<?xml version="1.0" standalone="no"?>
<!DOCTYPE svg PUBLIC "-//W3C//DTD SVG 1.1//EN" "http://www.w3.org/Graphics/SVG/1.1/DTD/svg11.dtd" >
<svg xmlns="http://www.w3.org/2000/svg" xmlns:xlink="http://www.w3.org/1999/xlink" version="1.1">
<metadata>
Created by FontForge 20170731 at Thu Dec 16 00:34:49 2021
 By Aleksey,,,
Copyright (c) 2017 Monotype Imaging Inc. All rights reserved.
</metadata>
<defs>
<font id="Masqualero-Bold" horiz-adv-x="1284" >
  <font-face 
    font-family="Masqualero"
    font-weight="700"
    font-stretch="normal"
    units-per-em="2048"
    panose-1="2 5 8 4 8 5 5 2 3 3"
    ascent="1638"
    descent="-410"
    x-height="934"
    cap-height="1436"
    bbox="-723 -512 3387 1976"
    underline-thickness="102"
    underline-position="-307"
    unicode-range="U+000D-FEFF"
  />
<missing-glyph horiz-adv-x="1024" 
d="M506 743q-122 85 -195 179q-153 190 -153 399q0 66 8 113q25 2 76 2h22q21 -1 69 -1.5t113 -0.5q173 0 308 2q67 0 102 -2q8 -47 8 -109q0 -100 -40 -203.5t-113 -193.5q-72 -92 -195 -178zM508 766q55 79 94 205q41 121 41 221q0 97 -45 154q-24 31 -80 51
q-58 -17 -96 -58q-43 -55 -43 -153q0 -102 39 -221q38 -119 90 -199zM717 596q-48 55 -154 125q91 54 154 123q74 -77 155 -125q-98 -61 -155 -123zM305 592q-74 77 -155 125q98 61 155 123q48 -55 154 -125q-98 -61 -154 -123zM268 0q-67 0 -102 2q-8 47 -8 107
q0 209 153 399q72 92 195 178l10 6q123 -86 195 -178q153 -193 153 -399q0 -66 -8 -113q-25 -2 -78 -2h-22q-21 1 -68.5 1.5t-112.5 0.5q-29 0 -130.5 -1t-176.5 -1zM504 39q55 16 94 55q45 61 45 156q0 96 -41 221q-30 104 -90 197q-58 -88 -94 -203q-39 -115 -39 -221
q0 -99 43 -154q27 -31 82 -51z" />
    <glyph glyph-name="uniFB00" unicode="ff" horiz-adv-x="1345" 
d="M1411 1608q38 -9 72 -25.5t62 -47.5t28 -67q0 -58 -43.5 -103.5t-99.5 -45.5q-45 0 -74 31.5t-62 97.5q-51 110 -80 131q-32 -38 -57.5 -135.5t-34.5 -208.5q-14 -148 -14 -307q135 0 211 2q0 -57 -16 -139q-90 2 -197 2v-261q0 -242 16 -327q18 -97 76 -142
q43 -32 111 -40l-2 -25q-61 0 -186.5 3t-170.5 3q-77 0 -260 -6l-2 22q40 14 74 48q46 46 57 170q6 70 6 276q0 126 -6 279h-370v-261q0 -231 14 -327q15 -90 65 -137q43 -37 101 -48l-2 -22q-49 0 -166.5 3t-165.5 3q-77 0 -266 -6l-2 22q38 11 73 41q53 45 64 177
q4 70 4 276q0 132 -6 279q-82 0 -168 -7l-4 25q106 61 172 133q-4 78 -4 125q0 128 24 209q43 134 158 221q133 98 297 98q67 0 119 -14q59 -12 105 -46t46 -83q0 -13 -4 -29q46 59 94 97q125 98 297 98q64 0 117 -12zM815 1085q0 139 25 213q12 36 20 52q-46 -39 -92 -39
q-44 0 -72 29t-57 92q-54 106 -80 124q-34 -37 -60.5 -133t-35.5 -206q-12 -155 -12 -285q78 -4 161 -4h207q-4 114 -4 157z" />
    <glyph glyph-name="uniFB03" unicode="ffi" horiz-adv-x="1916" 
d="M1794 127q33 -85 115 -107l-2 -22q-204 6 -295 6q-110 0 -269 -6l-2 22q69 22 95 76q45 88 45 322q0 186 -8 282q-3 43 -21.5 64t-60.5 24q-58 5 -285 5v-261q0 -253 14 -327q15 -97 68 -142q37 -31 96 -40l-2 -25q-58 0 -176 3t-162 3q-77 0 -254 -6l-2 22q35 10 70 41
q50 45 61 177q6 70 6 276q0 132 -6 279h-370v-261q0 -231 14 -327q15 -90 65 -137q43 -37 101 -48l-2 -22q-49 0 -166.5 3t-165.5 3q-77 0 -266 -6l-2 22q38 11 73 41q53 45 64 177q4 70 4 276q0 132 -6 279q-82 0 -168 -7l-4 25q106 61 172 133q-4 78 -4 125q0 128 24 209
q43 134 158 221q133 98 297 98q67 0 119 -14q59 -12 105 -46t46 -83q0 -19 -6 -37q45 63 111 109q133 94 325 94q99 0 193 -27q85 -24 149 -73.5t64 -118.5q0 -62 -44 -103t-108 -41q-58 0 -98.5 40t-91.5 128q-75 131 -133 152q-117 -69 -144 -346q-16 -147 -16 -303
q13 0 81 -1t122 -1q157 0 225 6q46 4 112.5 23.5t82.5 19.5q20 0 25 -38.5t5 -123.5q0 -21 -2 -130t-2 -173v-119q0 -183 37 -264zM815 1083q0 139 25 213q12 37 24 58q-43 -43 -96 -43q-44 0 -72 29t-57 92q-54 106 -80 124q-34 -37 -60.5 -133t-35.5 -206
q-12 -155 -12 -285q90 -4 184 -4h184q-4 98 -4 155z" />
    <glyph glyph-name="uniFB04" unicode="ffl" horiz-adv-x="1921" 
d="M1786 160q29 -115 125 -140l-2 -22q-22 0 -135 3t-164 3q-59 0 -160 -3t-104 -3l-3 22q37 15 61 33t38 51q23 54 33 152q6 70 6 188v277q0 182 -4 307q-8 216 -25 287q-49 3 -80.5 36t-68.5 103q-53 101 -89 125q-32 -38 -57.5 -135.5t-34.5 -208.5q-14 -148 -14 -307
q133 0 203 2q0 -60 -17 -139q-84 2 -188 2v-261q0 -250 14 -327q14 -94 66 -137q36 -33 98 -45l-2 -25q-56 0 -171 3t-161 3q-77 0 -260 -6l-2 22q40 14 74 48q46 46 57 170q6 70 6 276q0 129 -6 279h-370v-261q0 -231 14 -327q15 -90 65 -137q39 -33 101 -45l-2 -25
q-49 0 -166.5 3t-165.5 3q-77 0 -266 -6l-2 22q38 11 73 41q53 45 64 177q4 70 4 276q0 159 -6 279q-82 0 -168 -7l-4 25q74 37 172 131q-4 82 -4 123q0 132 24 213q43 134 158 221q133 98 297 98q67 0 119 -14q59 -12 105 -46t46 -83q0 -13 -4 -29q46 59 94 97
q125 98 297 98q74 0 146 -22t119 -60q133 80 176 80l20 -14q12 -68 12 -160q0 -36 -2 -384.5t-2 -557.5q0 -257 23 -342zM815 1085q0 139 25 213q12 36 20 52q-46 -39 -92 -39q-44 0 -72 29t-57 92q-54 106 -80 124q-34 -37 -60.5 -133t-35.5 -206q-12 -155 -12 -285
q45 -4 178 -4h190q-4 98 -4 157z" />
    <glyph glyph-name="f_b" unicode="fb" horiz-adv-x="1859" 
d="M27 20q38 11 73 41q53 45 64 177q4 70 4 276q0 57 -4 279q-74 0 -170 -7l-4 25q99 54 172 133q-4 78 -4 123q0 152 24 231q47 138 160 224q125 98 295 98q78 0 148 -22t116 -60q131 78 176 80l21 -12q12 -61 12 -215q0 -27 -3 -242.5t-3 -351.5q56 54 127 98
q92 57 180 57q131 0 229 -98q134 -131 134 -362q0 -135 -57 -244t-150 -174q-138 -94 -299 -94q-64 0 -130 29t-112 75q-158 -65 -211 -96l-24 10q32 128 32 438v285q0 317 -4 399q-3 128 -20 195q-52 3 -84 35.5t-70 103.5q-50 101 -86 125q-33 -38 -58 -133.5t-36 -210.5
q-14 -148 -14 -307q130 0 204 2q0 -65 -16 -139q-80 2 -190 2v-261q0 -234 14 -327q18 -99 69 -142q37 -32 97 -40l-2 -25q-58 0 -177 3t-163 3q-69 0 -258 -6zM1405 152q22 42 37.5 117.5t15.5 166.5q0 203 -92 295q-60 60 -139 70q-70 -6 -121 -51v-191q0 -129 2 -190
q4 -125 15 -183t32 -90q21 -33 54 -52t69 -21q80 34 127 129z" />
    <glyph glyph-name="f_f_b" unicode="ffb" horiz-adv-x="2516" 
d="M2298 854q133 -130 133 -362q0 -135 -57 -244t-150 -174q-138 -94 -301 -94q-63 0 -129 29.5t-111 74.5q-159 -65 -213 -96l-22 10q33 132 33 438v285q0 235 -4 399q-6 127 -23 195q-50 3 -82 36t-69 103q-53 101 -89 125q-32 -38 -57.5 -135.5t-34.5 -208.5
q-14 -148 -14 -307q133 0 203 2q0 -60 -17 -139q-84 2 -188 2v-261q0 -250 14 -327q14 -94 66 -137q36 -33 98 -45l-2 -25q-56 0 -171 3t-161 3q-77 0 -260 -6l-2 22q40 14 74 48q46 46 57 170q6 70 6 276q0 129 -6 279h-370v-261q0 -231 14 -327q15 -90 65 -137
q39 -33 101 -45l-2 -25q-49 0 -166.5 3t-165.5 3q-77 0 -266 -6l-2 22q38 11 73 41q53 45 64 177q4 70 4 276q0 159 -6 279q-82 0 -168 -7l-4 25q74 37 172 131q-4 82 -4 123q0 132 24 213q43 134 158 221q133 98 297 98q67 0 119 -14q59 -12 105 -46t46 -83q0 -13 -4 -29
q46 59 94 97q125 98 297 98q74 0 146 -22t119 -60q46 29 98 54t78 26l20 -12q12 -61 12 -215q0 -27 -3 -242.5t-3 -351.5q62 59 127 98q88 57 180 57q132 0 230 -98zM815 1085q0 139 25 213q12 36 20 52q-46 -39 -92 -39q-44 0 -72 29t-57 92q-54 106 -80 124
q-34 -37 -60.5 -133t-35.5 -206q-12 -155 -12 -285q45 -4 178 -4h190q-4 98 -4 157zM2062 152q22 42 38 118t16 166q0 202 -93 295q-60 60 -139 70q-70 -6 -121 -51v-191q0 -129 2 -190q4 -128 14.5 -184.5t32.5 -88.5q21 -33 54 -52t69 -21q80 34 127 129z" />
    <glyph glyph-name="f_f_h" unicode="ffh" horiz-adv-x="2525" 
d="M2425 92q19 -30 42 -46.5t60 -25.5l-2 -22q-43 0 -137.5 3t-149.5 3q-74 0 -278 -6l-2 22q39 21 63.5 48t38.5 73q27 84 27 281q0 162 -25 254q-28 108 -155 108q-71 0 -144 -57v-225q0 -260 23 -342q28 -114 123 -140l-2 -22q-22 0 -135 3t-164 3q-59 0 -161.5 -3
t-105.5 -3l-2 22q38 14 62.5 32t40.5 52q24 55 33 154q6 71 6 186v181q0 126 -4 282q-3 318 -23 408q-50 3 -82 36t-69 103q-53 101 -89 125q-32 -38 -57.5 -135.5t-34.5 -208.5q-14 -148 -14 -307q133 0 203 2q0 -60 -17 -139q-84 2 -188 2v-261q0 -250 14 -327
q14 -94 66 -137q36 -33 98 -45l-2 -25q-56 0 -171 3t-161 3q-77 0 -260 -6l-2 22q40 14 74 48q46 46 57 170q6 70 6 276q0 129 -6 279h-370v-261q0 -231 14 -327q15 -90 65 -137q39 -33 101 -45l-2 -25q-49 0 -166.5 3t-165.5 3q-77 0 -266 -6l-2 22q38 11 73 41
q53 45 64 177q4 70 4 276q0 159 -6 279q-82 0 -168 -7l-4 25q74 37 172 131q-4 82 -4 123q0 132 24 213q43 134 158 221q133 98 297 98q67 0 119 -14q59 -12 105 -46t46 -83q0 -13 -4 -29q46 59 94 97q125 98 297 98q74 0 146 -22t119 -60q133 80 176 80l20 -14
q12 -70 12 -160q0 -31 -3 -271.5t-3 -402.5q80 60 128.5 92t116 61t122.5 29q202 0 229 -211q9 -58 13 -249q4 -184 14 -263q14 -99 41 -137zM815 1085q0 139 25 213q12 36 20 52q-46 -39 -92 -39q-44 0 -72 29t-57 92q-54 106 -80 124q-34 -37 -60.5 -133t-35.5 -206
q-12 -155 -12 -285q45 -4 178 -4h190q-4 98 -4 157z" />
    <glyph glyph-name="f_f_j" unicode="ffj" horiz-adv-x="1910" 
d="M1757 494q0 -78 4 -245t4 -198q0 -198 -104 -321q-105 -130 -328 -183l-12 23q96 92 131 305q29 192 29 551q0 178 -8 274q-3 43 -21.5 64t-60.5 24q-58 5 -285 5v-261q0 -253 14 -327q15 -97 68 -142q37 -31 96 -40l-2 -25q-58 0 -176 3t-162 3q-77 0 -254 -6l-2 22
q35 10 70 41q50 45 61 177q6 70 6 276q0 132 -6 279h-370v-261q0 -231 14 -327q15 -90 65 -137q43 -37 101 -48l-2 -22q-49 0 -166.5 3t-165.5 3q-77 0 -266 -6l-2 22q38 11 73 41q53 45 64 177q4 70 4 276q0 132 -6 279q-82 0 -168 -7l-4 25q106 61 172 133q-4 78 -4 125
q0 128 24 209q43 134 158 221q133 98 297 98q67 0 119 -14q59 -12 105 -46t46 -83q0 -19 -6 -37q45 63 111 109q133 94 325 94q99 0 193 -27q85 -24 149 -73.5t64 -118.5q0 -62 -44 -103t-108 -41q-58 0 -98.5 40t-91.5 128q-75 131 -133 152q-117 -69 -144 -346
q-16 -147 -16 -305h203q157 0 225 6q46 4 112.5 23.5t82.5 19.5q20 0 25 -38.5t5 -123.5q0 -20 -2 -133.5t-2 -185.5zM815 1083q0 139 25 213q12 37 24 58q-43 -43 -96 -43q-44 0 -72 29t-57 92q-54 106 -80 124q-34 -37 -60.5 -133t-35.5 -206q-12 -155 -12 -285
q90 -4 184 -4h184q-4 98 -4 155z" />
    <glyph glyph-name="f_f_k" unicode="ffk" horiz-adv-x="2523" 
d="M2482 66q52 -40 92 -46l-2 -20q-89 -18 -217 -18q-157 0 -250 84q-73 65 -147 192q-19 30 -48 78t-46.5 76t-30.5 45q-25 -14 -72 -29q3 -185 23 -268q32 -115 125 -140v-22q-22 0 -136 3t-165 3q-59 0 -161.5 -3t-105.5 -3l-2 22q38 14 62.5 32t40.5 52q24 55 33 154
q6 71 6 186v244q0 80 -4 252q-3 289 -23 375q-50 3 -82 36t-69 103q-53 101 -89 125q-32 -38 -57.5 -135.5t-34.5 -208.5q-14 -148 -14 -307q133 0 203 2q0 -60 -17 -139q-84 2 -188 2v-261q0 -250 14 -327q14 -94 66 -137q36 -33 98 -45l-2 -25q-56 0 -171 3t-161 3
q-77 0 -260 -6l-2 22q40 14 74 48q46 46 57 170q6 70 6 276q0 129 -6 279h-370v-261q0 -231 14 -327q15 -90 65 -137q39 -33 101 -45l-2 -25q-49 0 -166.5 3t-165.5 3q-77 0 -266 -6l-2 22q38 11 73 41q53 45 64 177q4 70 4 276q0 159 -6 279q-82 0 -168 -7l-4 25
q74 37 172 131q-4 82 -4 123q0 132 24 213q43 134 158 221q133 98 297 98q67 0 119 -14q59 -12 105 -46t46 -83q0 -13 -4 -29q46 59 94 97q125 98 297 98q74 0 146 -22t119 -60q133 80 176 80l20 -14q12 -70 12 -160q0 -35 -3 -372t-3 -542v-51q14 3 72 23q67 27 125 69
q113 88 113 183q0 55 -31.5 96.5t-87.5 60.5l4 23q124 -8 258 -8q53 0 140 3t108 3l2 -23q-73 -20 -201 -135q-135 -120 -221 -190q41 -42 86.5 -100t102 -135.5t91.5 -121.5q76 -98 160 -161zM815 1085q0 139 25 213q12 36 20 52q-46 -39 -92 -39q-44 0 -72 29t-57 92
q-54 106 -80 124q-34 -37 -60.5 -133t-35.5 -206q-12 -155 -12 -285q45 -4 178 -4h190q-4 98 -4 157z" />
    <glyph glyph-name="f_h" unicode="fh" horiz-adv-x="1867" 
d="M901 1538q133 80 176 80l21 -14q12 -70 12 -160q0 -31 -2 -271.5t-2 -402.5q79 59 127 91.5t115 61.5t122 29q205 0 232 -211q8 -66 12 -249q3 -175 15 -263q10 -94 38 -137q33 -54 103 -72l-2 -22q-43 0 -137 3t-148 3q-76 0 -280 -6l-3 22q40 21 65.5 48t39.5 73
q25 84 25 281q0 159 -23 254q-32 108 -156 108q-68 0 -145 -57v-225q0 -252 22 -342q32 -116 123 -140l-2 -22q-22 0 -134 3t-163 3q-59 0 -161 -3t-105 -3l-2 22q37 14 60.5 32t39.5 52q29 61 33 154q6 71 6 186v181q0 49 -1 147t-1 135q-6 340 -22 408q-52 3 -84 35.5
t-70 103.5q-50 101 -86 125q-33 -38 -58 -133.5t-36 -210.5q-14 -148 -14 -307q130 0 204 2q0 -65 -16 -139q-80 2 -190 2v-261q0 -234 14 -327q18 -99 69 -142q37 -32 97 -40l-2 -25q-58 0 -177 3t-163 3q-69 0 -258 -6l-2 22q38 11 73 41q53 45 64 177q4 70 4 276
q0 57 -4 279q-74 0 -170 -7l-4 25q99 54 172 133q-4 78 -4 123q0 152 24 231q47 138 160 224q125 98 295 98q78 0 148 -22t116 -60z" />
    <glyph glyph-name="f_i" unicode="fi" horiz-adv-x="1261" 
d="M27 20q38 11 73 41q53 45 64 177q4 70 4 276q0 82 -6 279q-82 0 -168 -7l-4 25q90 47 172 133q-4 86 -4 139q0 134 24 213q50 145 174 230q133 94 326 94q96 0 190 -27q54 -15 99.5 -38.5t80.5 -64.5t35 -89q0 -62 -43.5 -103t-107.5 -41q-58 0 -100.5 40.5t-92.5 127.5
q-72 130 -133 152q-112 -66 -143 -346q-16 -172 -16 -301q82 -4 204 -4q158 0 226 6q45 4 111 23.5t83 19.5q20 0 25.5 -39.5t5.5 -122.5q0 -21 -3 -130t-3 -173v-119q0 -178 37 -264t116 -107l-2 -22q-204 6 -295 6q-109 0 -268 -6l-2 22q68 23 94 76q45 95 45 322
q0 192 -10 282q-3 43 -21 64t-61 24q-58 5 -284 5v-261q0 -234 14 -327q18 -99 69 -142q37 -32 97 -40l-2 -25q-59 0 -178 3t-162 3q-69 0 -258 -6z" />
    <glyph glyph-name="f_j" unicode="fj" horiz-adv-x="1253" 
d="M27 20q38 11 73 41q53 45 64 177q4 70 4 276q0 136 -6 332q-94 0 -168 -6l-4 24q96 35 172 90q-4 82 -4 129q0 134 24 213q50 145 174 230q133 94 326 94q129 0 227 -39q178 -64 178 -172q0 -61 -44.5 -106.5t-106.5 -45.5q-57 0 -95.5 38.5t-92.5 129.5
q-75 129 -138 152q-112 -66 -143 -346q-16 -172 -16 -301q82 -4 204 -4q158 0 228 6q45 4 110 23.5t82 19.5q20 0 25.5 -39.5t5.5 -122.5q0 -21 -2 -134t-2 -177q0 -75 3 -247t3 -204q0 -198 -104 -321q-104 -129 -326 -183l-12 23q97 93 129 305q30 182 30 526
q0 238 -22 357q-6 41 -28.5 63t-69.5 23q-94 2 -256 2v-314q0 -234 14 -327q18 -99 69 -142q37 -32 97 -40l-2 -25q-59 0 -178 3t-162 3q-69 0 -258 -6z" />
    <glyph glyph-name="f_k" unicode="fk" horiz-adv-x="1867" 
d="M901 1538q133 80 176 80q13 -3 21 -14q12 -70 12 -160q0 -35 -2 -372t-2 -542v-47l72 23q82 36 122 67q113 81 113 181q0 55 -31.5 96.5t-85.5 60.5l2 23q132 -8 258 -8q55 0 141 3t107 3l2 -23q-64 -19 -198 -135q-26 -22 -106.5 -91.5t-115.5 -98.5q41 -42 86 -100
t101.5 -135t91.5 -122q73 -95 162 -161q52 -40 92 -46l-4 -20q-89 -18 -217 -18q-157 0 -250 84q-76 67 -148 192q-18 30 -46 79t-45.5 78t-32.5 46q-28 -16 -70 -29q3 -206 22 -272q28 -115 125 -140l-2 -22q-22 0 -135 3t-164 3q-59 0 -161 -3t-105 -3l-2 22q38 14 62 32
t38 52q29 61 33 154q6 71 6 186v234q0 37 -1 114t-1 115q-6 340 -22 408q-52 3 -84 35.5t-70 103.5q-50 101 -86 125q-33 -38 -58 -133.5t-36 -210.5q-14 -148 -14 -307q130 0 204 2q0 -65 -16 -139q-80 2 -190 2v-261q0 -234 14 -327q18 -99 69 -142q37 -32 97 -40l-2 -25
q-58 0 -177 3t-163 3q-69 0 -258 -6l-2 22q38 11 73 41q53 45 64 177q4 70 4 276q0 57 -4 279q-74 0 -170 -7l-4 25q99 54 172 133q-4 78 -4 123q0 152 24 231q47 138 160 224q125 98 295 98q78 0 148 -22t116 -60z" />
    <glyph glyph-name="f_l" unicode="fl" horiz-adv-x="1265" 
d="M27 20q38 11 73 41q53 45 64 177q4 70 4 276q0 57 -4 279q-74 0 -170 -7l-4 25q99 54 172 133q-4 78 -4 123q0 152 24 231q47 138 160 224q125 98 295 98q78 0 148 -22t116 -60q48 29 102 54.5t74 25.5l21 -14q12 -70 12 -160q0 -36 -2 -384.5t-2 -557.5q0 -249 22 -342
q34 -116 125 -140l-2 -22q-21 0 -134 3t-163 3q-59 0 -160 -3t-104 -3l-2 22q36 14 59 32t39 52q27 61 31 152q6 71 6 205v272q0 172 -2 258q-7 257 -26 324q-49 3 -80.5 36t-69.5 103q-50 101 -86 125q-33 -38 -58 -133.5t-36 -210.5q-14 -148 -14 -307q130 0 204 2
q0 -65 -16 -139q-80 2 -190 2v-261q0 -234 14 -327q18 -99 69 -142q37 -32 97 -40l-2 -25q-58 0 -177 3t-163 3q-69 0 -258 -6z" />
    <glyph glyph-name=".notdef" horiz-adv-x="1024" 
d="M506 743q-122 85 -195 179q-153 190 -153 399q0 66 8 113q25 2 76 2h22q21 -1 69 -1.5t113 -0.5q173 0 308 2q67 0 102 -2q8 -47 8 -109q0 -100 -40 -203.5t-113 -193.5q-72 -92 -195 -178zM508 766q55 79 94 205q41 121 41 221q0 97 -45 154q-24 31 -80 51
q-58 -17 -96 -58q-43 -55 -43 -153q0 -102 39 -221q38 -119 90 -199zM717 596q-48 55 -154 125q91 54 154 123q74 -77 155 -125q-98 -61 -155 -123zM305 592q-74 77 -155 125q98 61 155 123q48 -55 154 -125q-98 -61 -154 -123zM268 0q-67 0 -102 2q-8 47 -8 107
q0 209 153 399q72 92 195 178l10 6q123 -86 195 -178q153 -193 153 -399q0 -66 -8 -113q-25 -2 -78 -2h-22q-21 1 -68.5 1.5t-112.5 0.5q-29 0 -130.5 -1t-176.5 -1zM504 39q55 16 94 55q45 61 45 156q0 96 -41 221q-30 104 -90 197q-58 -88 -94 -203q-39 -115 -39 -221
q0 -99 43 -154q27 -31 82 -51z" />
    <glyph glyph-name=".null" horiz-adv-x="0" 
 />
    <glyph glyph-name="nonmarkingreturn" horiz-adv-x="682" 
 />
    <glyph glyph-name="NULL" horiz-adv-x="0" 
 />
    <glyph glyph-name="NULL" horiz-adv-x="0" 
 />
    <glyph glyph-name="CR" unicode="&#xd;" horiz-adv-x="409" 
 />
    <glyph glyph-name="space" unicode=" " horiz-adv-x="409" 
 />
    <glyph glyph-name="exclam" unicode="!" horiz-adv-x="514" 
d="M231 430q-15 158 -52.5 334.5t-66 309.5t-28.5 216q0 80 49.5 124t116.5 44q66 0 115 -42.5t49 -117.5q0 -86 -27.5 -218.5t-67 -312.5t-57.5 -337h-31zM233 -18q-76 0 -120.5 45t-44.5 116q0 79 57 129t141 50q76 0 121 -45.5t45 -114.5q0 -82 -56 -131t-143 -49z" />
    <glyph glyph-name="quotedbl" unicode="&#x22;" horiz-adv-x="825" 
d="M154 848q4 24 4 61q0 84 -26 216.5t-26 181.5q0 72 42 110.5t106 38.5q60 0 95.5 -39t35.5 -96q0 -58 -30.5 -125.5t-85 -167.5t-87.5 -184zM530 848q5 30 5 61q0 84 -24 216.5t-24 181.5q0 72 42 110.5t106 38.5q59 0 95 -39t36 -96t-32 -125t-87 -167t-88 -185z" />
    <glyph glyph-name="numbersign" unicode="#" horiz-adv-x="1241" 
d="M203 20q75 213 119 349q-62 0 -156.5 -1t-116.5 -1v69h293q15 43 30 90.5t34 106.5t30 94q-173 0 -291 -4v72q70 -2 310 -2l106 337l74 -20q-100 -290 -109 -317h281l106 337l74 -20q-77 -224 -108 -317q220 0 290 2v-72q-122 4 -313 4q-18 -55 -48.5 -153t-43.5 -138
h309v-69q-25 0 -141 1t-191 1l-112 -367l-76 18q45 123 119 349h-281l-112 -367zM694 436q18 53 92 291h-280q-13 -39 -44.5 -138t-49.5 -153h282z" />
    <glyph glyph-name="dollar" unicode="$" horiz-adv-x="1150" 
d="M547 -229q4 160 4 241q-102 1 -202.5 31t-160.5 72q-127 82 -127 200q0 60 44.5 99t103.5 39q55 0 88 -33.5t41 -93.5q4 -23 12.5 -106t20.5 -116q55 -38 180 -45v473q-132 58 -207.5 99t-128.5 90q-106 95 -106 233q0 181 143 281q124 87 299 100q0 78 -4 226h57
q-2 -59 -2 -226q85 -3 169.5 -32t150.5 -78q133 -92 133 -201q0 -57 -41 -92t-99 -35q-56 0 -90.5 37.5t-40.5 97.5q-4 29 -9 80.5t-9.5 80t-11.5 54.5q-55 39 -152 43v-479q141 -61 215.5 -99t130.5 -85q109 -91 109 -236q0 -84 -40 -157t-110 -119q-141 -94 -305 -103
q0 -173 2 -241h-57zM551 1288q-86 -14 -141.5 -71t-55.5 -146q0 -96 72 -162q41 -38 125 -78v457zM602 63q93 18 149 74.5t56 143.5q0 69 -45 120q-52 58 -160 109v-447z" />
    <glyph glyph-name="percent" unicode="%" horiz-adv-x="1634" 
d="M158 -23q290 333 686 816q112 137 284 344t248 299l62 -56q-194 -225 -592 -702q-426 -514 -623 -756zM428 739q-151 0 -260 86q-123 101 -123 254q0 90 42.5 163.5t113.5 123.5q92 68 229 68q143 0 248 -88q117 -96 117 -259q0 -87 -44 -162t-118 -122q-92 -64 -205 -64
zM438 782q50 18 82.5 100t32.5 183q0 127 -42.5 219t-107.5 107q-54 -21 -85 -99.5t-31 -177.5q0 -127 40.5 -216.5t110.5 -115.5zM1221 -23q-152 0 -258 86q-123 98 -123 254q0 90 41 164t112 123q92 68 230 68q142 0 247 -88q117 -96 117 -258q0 -87 -44 -162.5
t-118 -122.5q-92 -64 -204 -64zM1231 20q50 18 82.5 100t32.5 183q0 126 -42.5 218.5t-107.5 107.5q-54 -21 -85.5 -99.5t-31.5 -177.5q0 -126 41 -216t111 -116z" />
    <glyph glyph-name="ampersand" unicode="&#x26;" horiz-adv-x="1611" 
d="M555 -23q-215 0 -342 91q-139 102 -139 264q0 136 89 222t251 144q-43 54 -80 121q-70 127 -70 248q0 171 125 272q120 99 305 99q148 0 256 -84q56 -41 88.5 -100t32.5 -126q0 -120 -98 -215q-99 -95 -268 -155q224 -255 411 -416q41 81 41 166q0 79 -46 136.5
t-130 74.5l2 29l124 -4q124 -3 193 -3q16 0 254 7l2 -25q-105 -30 -233 -188q-32 -40 -88 -118.5t-80 -109.5l25 -18q282 -232 407 -232q25 0 37 4l6 -24q-46 -23 -122.5 -39t-159.5 -16q-127 0 -213 32t-174 103q-81 -64 -186 -102t-220 -38zM680 791q64 55 102.5 138.5
t38.5 184.5q0 97 -39 174t-98 107q-64 -37 -102.5 -108.5t-38.5 -170.5q0 -118 51 -207q32 -57 86 -118zM680 61q126 3 242 89q-205 169 -420 436l-60 73q-90 -104 -90 -239q0 -69 30 -133.5t77 -111t105.5 -77t115.5 -37.5z" />
    <glyph glyph-name="quotesingle" unicode="'" horiz-adv-x="448" 
d="M154 848q4 24 4 61q0 84 -26 216.5t-26 181.5q0 71 43 110t107 39q60 0 96.5 -39t36.5 -96t-32 -125t-87 -167t-88 -185z" />
    <glyph glyph-name="parenleft" unicode="(" horiz-adv-x="815" 
d="M756 -471q-269 170 -434 405q-199 285 -199 623q0 342 186 617q178 263 447 444l18 -16q-139 -187 -231 -418q-113 -292 -113 -611q0 -312 111 -593q84 -224 233 -435z" />
    <glyph glyph-name="parenright" unicode=")" horiz-adv-x="815" 
d="M41 -455q139 187 231 418q113 292 113 610q0 313 -111 594q-84 224 -233 435l18 16q270 -170 435 -406q198 -279 198 -622q0 -342 -186 -617q-178 -263 -447 -444z" />
    <glyph glyph-name="asterisk" unicode="*" horiz-adv-x="843" 
d="M248 745q-41 0 -71 27.5t-30 67.5q0 24 8.5 43.5t30 36.5t38 27t50.5 28q88 47 129 82q-13 2 -85.5 0.5t-116.5 -0.5q-70 0 -111 25.5t-41 78.5q0 44 29 70t69 26q35 0 64.5 -18.5t69.5 -56.5q65 -65 129 -105q-12 69 -51.5 160.5t-39.5 128.5q0 46 29.5 75t73.5 29
t73 -29t29 -75q0 -37 -39 -128.5t-51 -160.5q64 40 129 105q40 39 69 57t64 18q40 0 69.5 -26t29.5 -70q0 -53 -41 -78.5t-111 -25.5q-44 -1 -117 0.5t-86 -0.5q41 -35 129 -82q34 -18 50.5 -28t38 -27t30 -36.5t8.5 -43.5q0 -40 -29.5 -67.5t-70.5 -27.5q-50 0 -78 41
t-51 119q-25 93 -45 137q-20 -44 -45 -137q-23 -78 -51 -119t-78 -41z" />
    <glyph glyph-name="plus" unicode="+" horiz-adv-x="1269" 
d="M598 0q4 230 4 492q-204 0 -491 -5v70q115 -2 491 -2q0 241 -4 487h74q-2 -104 -2 -487q364 0 487 2v-70q-255 5 -487 5q0 -406 2 -492h-74z" />
    <glyph glyph-name="comma" unicode="," horiz-adv-x="514" 
d="M6 -344q66 41 116 112t50 152q0 39 -16 77t-35 62.5t-35 56.5t-16 62q0 77 52.5 121.5t131.5 44.5q83 0 128.5 -56.5t45.5 -142.5q0 -172 -113 -311q-115 -135 -295 -203z" />
    <glyph glyph-name="hyphen" unicode="-" horiz-adv-x="696" 
d="M86 559q287 0 518 12l-4 -116q-330 0 -510 -11z" />
    <glyph glyph-name="period" unicode="." horiz-adv-x="514" 
d="M233 -18q-79 0 -125.5 49t-46.5 123q0 85 57.5 137.5t143.5 52.5q78 0 125 -48t47 -120q0 -88 -56.5 -141t-144.5 -53z" />
    <glyph glyph-name="slash" unicode="/" horiz-adv-x="602" 
d="M-76 -334q166 481 342 1049q44 142 142 452t141 451l80 -27q-129 -376 -318 -979q-257 -817 -305 -972z" />
    <glyph glyph-name="zero" unicode="0" horiz-adv-x="1318" 
d="M84 702q0 199 79 368t212.5 266.5t288.5 97.5q248 0 413 -213q160 -205 160 -519q0 -198 -79.5 -365.5t-213.5 -264.5t-289 -97q-224 0 -397 195q-84 94 -129 231.5t-45 300.5zM913 702q0 263 -65 435q-36 98 -91.5 168.5t-111.5 85.5q-109 -50 -176.5 -240t-67.5 -449
q0 -270 78 -458q34 -84 87 -145t104 -79q110 51 176.5 238t66.5 444z" />
    <glyph glyph-name="one" unicode="1" horiz-adv-x="854" 
d="M57 23q87 9 134.5 32.5t70.5 71.5q23 51 31 135q4 98 4 191v372q0 101 -2 148q-6 146 -37 186q-22 35 -74 35q-44 -6 -92 -29l-12 29q136 58 287 152q6 4 22 13t24.5 13.5t23.5 12.5t24 13t22 11.5t21.5 10t18 7.5t16.5 5.5t12 1.5l20 -9q13 -44 13 -94q0 -22 -2 -201.5
t-2 -320.5v-391q0 -179 26 -258q37 -123 180 -137l-2 -25q-25 0 -171 3t-203 3q-70 0 -209 -3t-142 -3z" />
    <glyph glyph-name="two" unicode="2" horiz-adv-x="1247" 
d="M43 20q122 81 242 183q221 193 338 368q131 189 131 414q0 141 -74 258q-31 49 -77 82t-87 39q-34 -1 -71.5 -17.5t-61.5 -39.5q1 -24 10.5 -107t9.5 -123q0 -64 -36.5 -106.5t-96.5 -42.5q-65 0 -110 39t-45 102q0 143 198 264q156 101 340 101q202 0 324 -134
q96 -104 96 -268q0 -92 -27.5 -167t-91.5 -158q-57 -75 -143 -150.5t-219 -177.5l-184 -137h378q168 0 246 53q73 50 127 164l29 -6q-3 -13 -16 -67.5t-25 -106.5t-19 -93q-26 -123 -43 -182q-49 -6 -188 -6q-82 0 -271 2t-286 2q-84 0 -181 -2t-114 -2z" />
    <glyph glyph-name="three" unicode="3" horiz-adv-x="1101" 
d="M471 848q149 164 279 334h-193q-70 0 -112.5 -2t-96 -12t-92.5 -29q-49 -24 -76.5 -53.5t-50.5 -79.5l-31 8q10 39 40 186.5t50 210.5q58 6 191 6q35 0 180 -2t215 -2q192 0 268 4l5 -24q-97 -97 -168 -176q-248 -274 -328 -367q217 -24 342 -129q139 -120 139 -307
q0 -112 -55.5 -204.5t-149.5 -148.5q-149 -88 -364 -88q-191 0 -311.5 61t-120.5 159q0 63 48 107t114 44q73 0 100 -59q8 -15 17 -38t19.5 -54.5t16.5 -47.5q40 -93 88 -120q120 9 207 96q84 90 84 225q0 130 -94 209q-100 80 -299 94l-23 25z" />
    <glyph glyph-name="four" unicode="4" horiz-adv-x="1280" 
d="M33 395q104 97 174 174q324 354 739 873l45 -21q-13 -129 -23 -396t-10 -454q96 2 156 24t92 75l21 -6q-18 -114 -62 -281q-61 -6 -207 -6v-35q0 -101 13 -153.5t41 -90.5q37 -53 108 -75l-2 -27q-240 6 -293 6q-68 0 -186.5 -3t-140.5 -3l-2 24q33 5 73.5 27t65.5 51
q37 41 49 95.5t12 148.5v35q-115 4 -356 4q-135 0 -303 -8zM696 571q6 240 6 289v182q-221 -252 -409 -477q111 6 248 6h155z" />
    <glyph glyph-name="five" unicode="5" horiz-adv-x="1083" 
d="M152 702q51 262 75 715q255 -22 482 -22q138 0 215 47q27 15 49 55l26 -8q-8 -39 -21 -111t-24.5 -127.5t-21.5 -91.5q-47 -8 -150 -8q-260 0 -506 31q-23 -127 -38 -277l98 -6q347 -20 508 -156q151 -124 151 -329q0 -107 -51.5 -198t-140.5 -146q-155 -97 -367 -97
q-189 0 -309 70q-107 56 -107 150q0 63 48 107t114 44q67 0 97 -49q12 -19 53 -133q42 -105 92 -137q111 22 186 102q80 83 80 221q0 124 -84 205q-107 101 -370 117l-74 4z" />
    <glyph glyph-name="six" unicode="6" horiz-adv-x="1208" 
d="M1063 1419q-182 -78 -304.5 -172t-228.5 -241q-81 -119 -124 -279q187 162 354 162q166 0 274 -115q105 -114 105 -303q0 -111 -44 -204t-122 -158q-156 -134 -371 -134q-123 0 -223.5 47t-169.5 128q-131 155 -131 374q0 280 139 480q123 182 365 309q208 104 475 133z
M836 416q0 153 -76 241q-69 78 -176 78q-103 0 -189 -63q-12 -67 -12 -140q0 -101 22 -190.5t57 -152t73 -105t77 -64.5q96 45 160 152t64 244z" />
    <glyph glyph-name="seven" unicode="7" horiz-adv-x="1116" 
d="M520 -29q-78 0 -125 47q-61 58 -61 175q0 173 125 397q50 90 180 276l221 316h-354q-171 0 -258.5 -42.5t-128.5 -133.5l-31 6q7 30 40 184.5t52 214.5q59 6 180 6q58 0 224.5 -2t228.5 -2q197 0 287 6l2 -26q-75 -88 -154 -199q-115 -166 -209 -340q-74 -132 -118 -279
q-29 -91 -29 -198q0 -76 37 -164q33 -76 33 -121q0 -52 -40 -86.5t-102 -34.5z" />
    <glyph glyph-name="eight" unicode="8" horiz-adv-x="1126" 
d="M195 811q-103 103 -103 242q0 174 137.5 277.5t350.5 103.5q123 0 226.5 -42t166.5 -121.5t63 -180.5q0 -215 -256 -316q137 -68 205 -139q94 -97 94 -238q0 -86 -34 -157.5t-88.5 -119.5t-125.5 -81.5t-143 -48.5t-143 -15q-87 0 -174 25t-160 71t-118.5 120t-45.5 163
q0 123 82 210t219 132q-90 49 -153 115zM688 817q82 111 82 260q0 111 -62.5 194.5t-150.5 119.5q-75 -32 -124.5 -106t-49.5 -165q0 -92 66 -164q60 -58 190 -116zM449 641q-136 -125 -136 -291q0 -117 71 -204t179 -126q37 12 73.5 36t71.5 60.5t56.5 90.5t21.5 117
q0 85 -57 145q-26 27 -67.5 55t-69.5 43t-88 45z" />
    <glyph glyph-name="nine" unicode="9" horiz-adv-x="1208" 
d="M141 -2q185 81 308 171.5t225 236.5q85 121 125 272q-79 -69 -173 -115.5t-184 -46.5q-170 0 -272 113q-107 116 -107 305q0 111 43.5 205t122.5 161q156 134 375 134q123 0 222.5 -46.5t168.5 -127.5q129 -153 129 -377q0 -278 -137 -477q-129 -188 -364 -308
q-196 -99 -476 -127zM821 874q0 100 -22 190t-57 153.5t-74 107t-78 64.5q-95 -43 -158 -152t-63 -250q0 -158 73 -242q68 -77 179 -77q92 0 188 61q12 94 12 145z" />
    <glyph glyph-name="colon" unicode=":" horiz-adv-x="514" 
d="M233 571q-78 0 -124 47t-46 119q0 82 57.5 133.5t143.5 51.5q78 0 125 -46.5t47 -117.5q0 -85 -57 -136t-146 -51zM233 -18q-78 0 -124 46.5t-46 118.5q0 82 57.5 133.5t143.5 51.5q78 0 125 -46.5t47 -117.5q0 -84 -57 -135t-146 -51z" />
    <glyph glyph-name="uni003B" unicode=";" horiz-adv-x="514" 
d="M233 571q-78 0 -124 47t-46 119q0 82 57.5 133.5t143.5 51.5q78 0 125 -46.5t47 -117.5q0 -85 -57 -136t-146 -51zM254 332q83 0 128.5 -55t45.5 -140q0 -167 -113 -303q-55 -66 -134 -119t-161 -84l-14 25q66 41 116 112t50 152q0 39 -16 75.5t-35 60.5t-35 55.5
t-16 60.5q0 74 52.5 117t131.5 43z" />
    <glyph glyph-name="less" unicode="&#x3c;" horiz-adv-x="1269" 
d="M662 803q307 141 468 221l29 -68q-39 -18 -232 -105t-276 -126l-442 -203l444 -205q228 -107 504 -231l-31 -68q-300 146 -469 224l-546 254v53z" />
    <glyph glyph-name="equal" unicode="=" horiz-adv-x="1269" 
d="M111 772q123 -2 532 -2q387 0 514 2v-70q-288 5 -555 5q-218 0 -491 -5v70zM111 342q123 -2 532 -2q387 0 514 2v-70q-230 4 -555 4q-273 0 -491 -4v70z" />
    <glyph glyph-name="greater" unicode="&#x3e;" horiz-adv-x="1269" 
d="M111 86q37 17 230.5 104.5t276.5 126.5l443 203l-445 205q-251 118 -503 231l30 68q264 -129 469 -223l547 -252v-53l-551 -254q-237 -109 -469 -224z" />
    <glyph glyph-name="question" unicode="?" horiz-adv-x="653" 
d="M233 418q-42 37 -71 91.5t-29 115.5q0 79 23.5 140.5t72.5 125.5q23 28 86.5 91t75.5 75q77 77 94 141q-30 21 -92 21q-35 0 -103 -12.5t-102 -12.5q-51 0 -82.5 27t-31.5 73q0 66 53 115t125 49q115 0 213 -110q48 -53 80.5 -125.5t32.5 -149.5q0 -102 -42 -178.5
t-130 -155.5q-86 -79 -122 -129.5t-36 -111.5q0 -24 12 -70zM256 -18q-76 0 -121 45t-45 116q0 78 58 128.5t143 50.5q76 0 120 -45t44 -115q0 -82 -56 -131t-143 -49z" />
    <glyph glyph-name="at" unicode="@" horiz-adv-x="1622" 
d="M907 563q0 72 -10 127q-26 129 -174 129q-33 0 -61 -8q1 -8 9.5 -56t8.5 -71q0 -58 -16 -84q-20 -45 -84 -45q-60 0 -98 29t-38 78q0 38 41.5 77.5t132.5 89.5q73 50 97 64q119 72 225 72q126 0 186 -86q33 -49 43 -134q2 -29 2 -88q0 -36 -2 -101.5t-2 -90.5
q0 -125 21 -174q23 -53 94 -53q80 0 143.5 100t63.5 262q0 131 -44 244.5t-124 196.5t-199.5 130.5t-263.5 47.5q-114 0 -221.5 -30t-198.5 -89t-159.5 -141t-107 -193t-38.5 -238q0 -162 53.5 -294t147 -218.5t218.5 -133t269 -46.5q200 0 359.5 60t271.5 155l27 -33
q-252 -237 -660 -237q-336 0 -542.5 204t-206.5 543q0 133 39.5 250.5t112 207.5t170 155t217.5 99t251 34q161 0 293 -51.5t218.5 -142.5t133.5 -214t47 -266q0 -199 -94 -328q-58 -81 -152.5 -128.5t-191.5 -47.5q-75 0 -125 34t-69 93q-150 -131 -281 -131
q-108 0 -173 60.5t-65 154.5q0 29 7 55.5t16 34.5q33 15 105.5 34t188.5 46.5t189 46.5v39zM858 471q-101 -24 -141.5 -49t-40.5 -70q0 -59 34 -90t89 -31q66 0 112 27q-6 37 -6 80q0 16 1 69t1 78z" />
    <glyph glyph-name="A" unicode="A" horiz-adv-x="1531" 
d="M-59 23q42 18 98 65q52 44 111 129q96 139 296 567l177 379q53 125 118 307l41 3q105 -246 197 -445q272 -607 383 -780q117 -189 231 -223l-2 -27q-8 0 -139 2t-209 2q-39 0 -173 -2t-198 -2l-2 25q59 19 103.5 56.5t54.5 86.5q-3 63 -39 162q-19 48 -78 182
q-140 4 -247 4q-116 0 -256 -4q-50 -139 -50 -242q0 -102 68 -182q44 -44 100 -63l-2 -25q-43 0 -160 2t-171 2q-59 0 -155 -2l-95 -2zM664 573q136 0 219 5l-226 497h-6l-157 -342q-47 -98 -66 -158q61 -2 236 -2z" />
    <glyph glyph-name="B" unicode="B" horiz-adv-x="1441" 
d="M770 -4q-38 0 -180.5 4t-202.5 4q-50 0 -362 -6l-2 25q161 43 204 198q27 110 27 508q0 249 -12 408q-11 143 -86 209q-56 48 -162 65l2 25q111 -6 346 -6q41 0 169.5 3t186.5 3q156 0 264 -20.5t187 -76.5q69 -49 99 -106t30 -135q0 -121 -92 -203q-84 -84 -225 -129
q155 -16 260 -90q129 -90 129 -252q0 -96 -42.5 -177t-117.5 -136q-160 -115 -420 -115zM723 766q83 0 160 18q84 93 84 252q0 86 -40.5 169t-121.5 132q-62 39 -135 49q-48 0 -92 -12q-10 -41 -17 -139q-9 -105 -12 -453q85 -16 174 -16zM762 49q46 6 92.5 30t77.5 60
q38 43 61 109.5t23 136.5q0 145 -80 225q-91 87 -207 99q-107 0 -180 8v-185q0 -176 18 -309q11 -71 51 -114q25 -26 64 -42t80 -18z" />
    <glyph glyph-name="C" unicode="C" horiz-adv-x="1548" 
d="M1468 408q-8 -42 -27.5 -167t-29.5 -171q-216 -93 -528 -93q-323 0 -541 193q-110 97 -170.5 232.5t-60.5 295.5q0 163 61.5 304t171.5 245q107 98 252 154.5t305 56.5q278 0 494 -88q10 -65 20 -208.5t21 -237.5l-27 -4q-94 173 -240 311q-156 150 -303 178
q-78 -27 -159 -91t-138 -147q-123 -183 -123 -434q0 -281 160 -487q65 -82 153.5 -139t178.5 -84q122 17 256 116q156 121 248 271z" />
    <glyph glyph-name="D" unicode="D" horiz-adv-x="1667" 
d="M20 23q65 13 117 51q34 28 54.5 61.5t37.5 93.5q25 113 25 445v63q0 295 -14 416q-13 123 -70 180q-61 57 -178 78l2 25q106 -6 354 -6q60 0 215 3t215 3q334 0 541 -164q124 -99 180.5 -236t56.5 -282q0 -205 -77.5 -355t-202.5 -243q-103 -78 -224 -119t-243 -41
q-63 0 -208 4t-234 4q-62 0 -344 -6zM551 672q0 -396 27 -492q23 -74 88 -104q50 -27 116 -27q197 46 318 219.5t121 446.5q0 269 -142 448q-68 89 -171 146t-214 77q-62 0 -114 -12q-12 -47 -21 -248q-8 -172 -8 -387v-67z" />
    <glyph glyph-name="E" unicode="E" horiz-adv-x="1302" 
d="M23 23q39 8 85.5 35t73.5 63q54 71 64 239q8 110 8 244v105q0 247 -8 378q-9 147 -45 205q-38 58 -99 86q-46 25 -110 33l2 25q72 -4 368 -4q167 0 364 2t235 2q121 0 192 -6q10 -63 18 -180t21 -214l-27 -4q-96 145 -194 221q-136 110 -301 133q-64 0 -97 -10
q-24 -204 -24 -581v-31h96q100 0 137 4q72 6 131 51q66 49 99 131l26 -4q-10 -98 -10 -221q0 -148 2 -201l-26 -4q-31 67 -80 113q-58 55 -152 67q-65 9 -127 9q-69 0 -96 -4v-27q0 -260 8 -379q6 -83 24.5 -128.5t55.5 -74.5q51 -43 147 -47q141 45 248 125q123 95 207 240
l27 -6q-13 -68 -34 -209.5t-34 -196.5q-58 -4 -151 -4q-118 0 -348.5 2t-311.5 2q-210 0 -362 -4z" />
    <glyph glyph-name="F" unicode="F" horiz-adv-x="1269" 
d="M23 23q39 8 84.5 34t72.5 62q56 73 66 241q8 122 8 244v105q0 247 -8 378q-9 147 -45 205q-34 56 -99 86q-46 25 -110 33l2 25q74 -4 375 -4q95 0 304 2t326 2q150 0 201 -4q10 -64 19 -184t20 -210l-27 -4q-217 326 -528 352q-73 0 -111 -10q-22 -205 -22 -583v-45h123
q100 0 137 4q67 6 131 51q67 53 98 133l27 -4q-10 -98 -10 -223q0 -148 2 -201l-27 -2q-31 66 -80 110q-58 55 -151 70q-57 8 -131 8q-63 0 -119 -6v-16q0 -256 10 -375q7 -82 33.5 -130t75.5 -83q34 -26 83.5 -40.5t92.5 -16.5l-2 -29q-40 0 -217 3t-240 3q-134 0 -362 -6z
" />
    <glyph glyph-name="G" unicode="G" horiz-adv-x="1662" 
d="M854 602q245 -10 471 -10q128 0 313 10l4 -29q-80 -18 -118 -79q-39 -55 -39 -158q0 -98 37 -219q-277 -140 -633 -140q-312 0 -535 183q-115 96 -179 235.5t-64 302.5q0 170 65.5 315.5t183.5 246.5q227 198 555 198q297 0 523 -88q10 -61 20 -206t23 -240l-27 -4
q-92 168 -231 301q-171 166 -351 188q-81 -26 -160 -87.5t-139 -150.5q-127 -184 -127 -434q0 -277 158 -481q129 -166 334 -229q97 7 170 71q80 69 80 205q0 112 -82 182t-256 84z" />
    <glyph glyph-name="H" unicode="H" horiz-adv-x="1703" 
d="M20 23q81 23 132 67q65 57 84 170q18 124 18 483q0 267 -9.5 383t-47.5 174q-25 38 -62.5 63t-63 33t-59.5 15l2 25q38 0 170.5 -3t198.5 -3q68 0 356 6l2 -25q-131 -39 -170 -176q-20 -80 -20 -412v-49q104 -2 301 -2q192 0 301 2v150q0 173 -12 245t-39 125
q-41 73 -139 117l2 25q270 -6 338 -6q208 0 346 6l4 -27q-106 -34 -150 -109q-38 -62 -43 -153q-10 -107 -10 -350q0 -443 12 -527q17 -101 62 -164q36 -51 125 -81l-7 -27q-318 6 -348 6q-15 0 -360 -6l-2 27q98 31 151 102q49 62 60 170q10 76 10 305v107q-98 2 -301 2
q-205 0 -301 -2v-27q0 -251 11.5 -367t47.5 -180q42 -74 142 -112l-2 -25q-264 6 -349 6q-156 0 -378 -6z" />
    <glyph glyph-name="I" unicode="I" horiz-adv-x="804" 
d="M20 23q81 23 132 67q65 57 84 170q18 99 18 483q0 267 -9.5 383t-47.5 174q-25 38 -62.5 63t-63 33t-59.5 15l2 25q38 0 170.5 -3t198.5 -3q79 0 367 6l2 -25q-63 -15 -107 -55.5t-65 -98.5q-14 -38 -20.5 -115t-7.5 -148t-1 -228q0 -284 8.5 -408t36.5 -184
q37 -107 154 -151l-5 -25q-282 6 -350 6q-150 0 -372 -6z" />
    <glyph glyph-name="J" unicode="J" horiz-adv-x="823" 
d="M37 -362q166 150 213 417q35 205 35 656v53q0 249 -10.5 363.5t-49.5 172.5q-37 55 -82 78t-100 33l2 25q38 0 170.5 -3t198.5 -3q78 0 366 6l2 -25q-139 -39 -178 -170q-14 -50 -18 -156.5t-4 -332.5q0 -94 3 -297t3 -232q0 -228 -105 -368q-62 -88 -183 -155t-251 -87z
" />
    <glyph glyph-name="K" unicode="K" horiz-adv-x="1589" 
d="M20 23q73 19 127 63q35 27 58 74.5t31 95.5q18 99 18 487q0 268 -10 385t-49 175q-59 84 -183 108l2 25q38 0 170.5 -3t198.5 -3q68 0 356 6l2 -25q-132 -45 -168 -170q-14 -52 -18 -154t-4 -325v-90q93 46 174 110q91 69 166 152q145 155 145 301q0 64 -39 111
q-38 44 -104 63l2 25q27 0 151 -1t191 -1q70 0 180.5 2t122.5 2l2 -25q-77 -27 -182 -115q-86 -69 -201 -190q-12 -12 -116 -120.5t-160 -158.5q71 -71 232 -269.5t259 -299.5q74 -77 148 -129q100 -69 151 -80q19 0 39 4l6 -24q-115 -45 -274 -45q-90 0 -152 18
q-124 39 -237 152q-102 98 -224 274l-159 236q-69 -45 -121 -84v-33q0 -176 12.5 -268.5t44.5 -147.5q48 -75 142 -108l-2 -25q-264 6 -353 6q-150 0 -372 -6z" />
    <glyph glyph-name="L" unicode="L" horiz-adv-x="1298" 
d="M23 23q40 10 83.5 34t69.5 56q58 69 68 219q10 88 10 286v142q0 251 -10 366.5t-47 173.5q-25 38 -62.5 63t-63 33t-59.5 15l2 25q38 0 170.5 -3t198.5 -3q117 0 399 6l4 -25q-101 -25 -152 -76.5t-65 -128.5q-18 -86 -18 -389v-147q0 -279 8 -383q14 -144 82 -195
q53 -40 150 -43q125 40 247 133q120 94 209 242l27 -6q-12 -63 -34.5 -210.5t-35.5 -205.5q-62 -4 -151 -4q-118 0 -351.5 2t-314.5 2q-210 0 -362 -4z" />
    <glyph glyph-name="M" unicode="M" horiz-adv-x="1873" 
d="M-16 23q87 37 155 124q89 116 113 420q18 214 18 400q0 107 -16 186q-27 116 -98 176q-72 59 -187 82l2 25q141 -6 262 -6q71 1 149 3.5t95 2.5q27 0 39 -6q22 -40 54 -105t56 -116.5t70.5 -153t69.5 -150.5l192 -418l144 375q182 477 215 553q8 21 37 21q18 0 105.5 -3
t137.5 -3q129 0 228 6l2 -25q-60 -16 -106 -51t-68 -74q-41 -74 -41 -205v-59q0 -235 12 -420q19 -340 55 -424q31 -71 66 -102t98 -51l-2 -27q-24 0 -159 3t-193 3q-59 0 -186.5 -3t-167.5 -3l-2 25q56 14 93.5 43t63.5 86q43 86 43 319q0 218 -10 420q-7 171 -20 246h-9
q-58 -106 -145 -336l-148 -389q-88 -256 -141 -359h-35q-75 199 -276 645q-18 38 -49.5 105t-50.5 107t-46.5 95.5t-52.5 102.5h-8q-16 -277 -16 -584q0 -44 4 -114q9 -161 67 -256q53 -88 181 -131l-3 -25q-39 0 -162 3t-169 3q-43 0 -137.5 -3t-120.5 -3z" />
    <glyph glyph-name="N" unicode="N" horiz-adv-x="1658" 
d="M6 23q71 29 127 92q96 108 115 315q14 172 14 549q0 230 -127 340q-83 72 -186 92l2 25q136 -4 242 -4q47 0 115 2t83 2q34 0 58 -6q133 -158 295.5 -340.5t277.5 -306.5t311 -334q8 93 8 223q0 116 -8 260q-6 92 -29 176t-55 139q-75 121 -217 164l2 25q36 0 155.5 -3
t170.5 -3q116 0 305 6l2 -25q-84 -27 -151 -115q-46 -62 -70 -147q-24 -90 -31 -217q-8 -88 -8 -342v-293q0 -165 10 -328l-41 -6q-591 674 -1032 1135h-8q-8 -104 -8 -234q0 -142 6 -321q6 -132 25 -220t40 -126.5t56 -75.5q73 -73 180 -98l-2 -25q-13 0 -143.5 3t-196.5 3
q-55 0 -160 -3t-125 -3z" />
    <glyph glyph-name="O" unicode="O" horiz-adv-x="1728" 
d="M877 -23q-146 0 -280.5 48t-240.5 137q-245 202 -245 538q0 213 91.5 377.5t256.5 263.5q189 115 430 115q289 0 493 -178q117 -102 175.5 -242.5t58.5 -304.5q0 -216 -97.5 -381t-279.5 -270q-76 -44 -172.5 -73.5t-189.5 -29.5zM905 31q168 71 271.5 255t103.5 416
q0 275 -120.5 462.5t-323.5 242.5q-173 -60 -281.5 -240.5t-108.5 -425.5q0 -133 38 -254t102.5 -211t146.5 -153t172 -92z" />
    <glyph glyph-name="P" unicode="P" horiz-adv-x="1380" 
d="M23 23q37 8 80 32.5t71 55.5q61 67 72 249q8 123 8 383q0 237 -10 367q-5 76 -20 128t-52 89q-64 67 -180 84l2 25q165 -6 334 -6q46 0 182.5 3t204.5 3q160 0 256 -19t166 -57q76 -42 122 -113t46 -164q0 -102 -49 -183.5t-136 -137.5q-165 -99 -405 -123l-6 25
q121 54 186 129q84 96 84 235q0 158 -100 258q-49 49 -100 70t-115 30q-53 0 -91 -10q-22 -188 -22 -598v-174q0 -148 8 -274q7 -131 57 -195q72 -95 230 -108l-2 -29q-14 0 -199.5 3t-255.5 3q-193 0 -364 -6z" />
    <glyph glyph-name="Q" unicode="Q" horiz-adv-x="1728" 
d="M805 -20q-119 9 -237.5 55.5t-211.5 126.5q-245 202 -245 538q0 213 91.5 377.5t256.5 263.5q189 115 430 115q289 0 491 -176q118 -102 177 -243.5t59 -305.5q0 -128 -38.5 -245.5t-107.5 -204.5q-153 -192 -438 -283l-260 -86q73 -7 266 -47q191 -45 303 -45
q90 0 172 32t142 85l18 -17q-101 -149 -238.5 -241.5t-306.5 -92.5q-64 0 -132.5 16t-115 33.5t-132.5 53.5q-122 51 -207.5 80.5t-163.5 40.5l-4 22zM903 31q124 54 210.5 161t126.5 236.5t40 273.5q0 277 -120.5 464.5t-323.5 240.5q-172 -60 -281 -240t-109 -426
q0 -115 28 -220.5t74 -184.5t106 -142.5t123 -103.5t126 -59z" />
    <glyph glyph-name="R" unicode="R" horiz-adv-x="1589" 
d="M23 23q38 8 84.5 35t72.5 61q56 70 66 241q8 114 8 252v97q0 247 -8 378q-5 80 -14 125t-31 80q-33 54 -99 86q-54 26 -110 33l2 25q111 -6 346 -6q37 0 173.5 3t207.5 3q159 0 261.5 -16t184.5 -62q166 -93 166 -266q0 -138 -90.5 -245t-220.5 -153q190 -274 340 -426
q76 -80 164 -142t147 -77q19 0 39 4l6 -24q-109 -45 -274 -45q-124 0 -207 41q-103 45 -188 137q-161 176 -332 510q-27 0 -87 2t-81 2v-68q0 -189 10 -309q7 -79 30 -123.5t66 -79.5q68 -60 191 -69l-2 -29q-40 0 -217 3t-240 3q-134 0 -362 -6zM549 750q98 -25 289 -25
q29 0 75 4q97 115 97 305q0 144 -88 238q-87 100 -240 114q-71 0 -109 -10q-24 -202 -24 -581v-45z" />
    <glyph glyph-name="S" unicode="S" horiz-adv-x="1214" 
d="M109 453q72 -143 221 -269q142 -123 282 -153q89 25 147 86t58 147q0 61 -37 113q-30 41 -91 81.5t-159 94.5q-85 47 -117.5 66t-90 59t-91.5 76q-116 123 -116 278q0 202 151 318q132 106 363 106q237 0 415 -61q9 -49 21 -193t18 -198l-26 -5q-80 135 -203 252
q-139 130 -256 156q-71 -19 -127.5 -88t-56.5 -164q0 -59 16.5 -101t56.5 -83q64 -66 256 -158q50 -25 82 -42.5t76 -44.5t71.5 -50.5t58 -56t47.5 -65.5t28.5 -75.5t11.5 -89.5q0 -176 -139 -291q-150 -121 -408 -121q-276 0 -430 62q-8 27 -16.5 78t-14 92.5t-14.5 122.5
t-14 117z" />
    <glyph glyph-name="T" unicode="T" horiz-adv-x="1357" 
d="M295 23q70 18 131 67q67 57 86 170q18 99 18 483q0 210 -4 390q-2 109 -12 239q-40 4 -92 4q-100 -30 -213 -143q-88 -91 -158 -203l-26 4q12 89 22 212.5t19 183.5q62 6 147 6q55 0 221.5 -2t241.5 -2q77 0 252.5 2t218.5 2q87 0 145 -6q10 -64 20 -187t21 -209l-26 -4
q-70 115 -160 205q-109 111 -209 141q-58 0 -98 -4q-7 -99 -9 -227q-4 -204 -4 -379q0 -374 17 -502q10 -76 45 -137q52 -77 172 -104l-2 -25q-288 6 -387 6q-153 0 -375 -6z" />
    <glyph glyph-name="U" unicode="U" horiz-adv-x="1656" 
d="M840 -31q-286 0 -439 135q-159 134 -159 390q0 25 2 126.5t2 165.5q0 275 -10 336q-16 139 -74 197q-37 38 -70.5 57.5t-81.5 34.5l2 25q294 -6 367 -6q99 0 381 6l4 -25q-92 -31 -137 -82q-61 -67 -74 -174q-10 -95 -10 -313v-144q0 -149 6 -215q15 -169 113 -256
q102 -88 270 -88q166 0 274 92q107 90 129 263q11 87 11 204q0 142 -17 285q-18 178 -102 297q-35 49 -85 83t-93 48l2 25q21 0 139.5 -3t177.5 -3q128 0 287 6l4 -27q-58 -27 -103 -74q-63 -66 -100 -194q-43 -162 -43 -436v-50q0 -99 -6 -176q-16 -214 -121 -334
q-146 -176 -446 -176z" />
    <glyph glyph-name="V" unicode="V" horiz-adv-x="1538" 
d="M754 -37q-85 198 -195 440q-267 582 -389 785q-109 184 -231 221l2 27q8 0 139.5 -2t208.5 -2q40 0 178 2t201 2l2 -25q-61 -21 -105.5 -59t-50.5 -86q3 -69 39 -160q14 -38 31.5 -79t44.5 -99.5t37 -81.5q24 -55 70 -153.5t80.5 -175.5t60.5 -146h6l139 301
q141 309 141 491q0 110 -67 185q-35 40 -101 63l2 25q43 0 168 -2t178 -2q60 0 156 2l96 2l2 -25q-42 -18 -98 -65q-20 -16 -41.5 -40t-31.5 -38t-37 -51q-55 -77 -138.5 -230t-169.5 -338l-172 -379q-44 -105 -116 -305z" />
    <glyph glyph-name="W" unicode="W" horiz-adv-x="2162" 
d="M674 -37q-22 60 -50.5 134.5t-65.5 166.5t-56 142q-228 576 -338 784q-100 186 -207 219v27q17 0 128 -2t179 -2q39 0 163.5 2t180.5 2l4 -25q-51 -19 -87 -55t-40 -84q3 -64 37 -166q39 -114 99 -264q115 -285 172 -465h6l123 299q80 197 96 315q-62 155 -90 213
q-82 164 -178 205v27q12 0 126 -2t179 -2q42 0 163.5 2t176.5 2l2 -25q-62 -21 -105 -56.5t-47 -82.5q0 -70 35 -168q59 -170 98 -270q107 -267 172 -457h6l121 291q115 285 115 485q0 108 -61 184q-40 49 -109 74l2 25q38 0 158 -2t168 -2q168 0 262 4l2 -25
q-55 -25 -100 -65q-50 -45 -113 -140q-83 -130 -262 -561l-158 -379q-90 -229 -115 -301l-36 -2q-17 46 -175 443q-104 265 -188 471q-33 -98 -84 -228l-160 -381q-19 -52 -60 -159.5t-54 -143.5z" />
    <glyph glyph-name="X" unicode="X" horiz-adv-x="1454" 
d="M-6 20q57 29 107.5 73t119.5 120q79 84 205 260l152 207l-238 375q-115 178 -160 232l-16 18q-42 46 -76.5 71t-73.5 35l2 25q24 0 142 -2t188 -2q256 0 354 4l2 -25q-113 -40 -124 -131q0 -75 63 -182q55 -95 182 -287q69 85 121.5 202.5t52.5 203.5q0 150 -143 194
l2 25q122 -4 326 -4q168 0 250 4l4 -27q-103 -42 -224 -184q-92 -110 -241 -318l-111 -151l232 -348q142 -216 225 -299q67 -67 129 -89l-2 -22q-228 6 -316 6q-250 0 -385 -6l-2 22q55 12 91.5 42.5t39.5 82.5q-9 59 -47.5 134.5t-126.5 212.5l-82 131q-184 -238 -184 -408
q0 -140 141 -195l-2 -22q-91 6 -311 6q-98 0 -262 -8z" />
    <glyph glyph-name="Y" unicode="Y" horiz-adv-x="1357" 
d="M297 23q75 23 129 67q66 53 86 170q16 88 18 289q-52 195 -137 369q-92 192 -203 317q-60 69 -122 109t-95 40q-26 0 -34 -2l-7 23q106 49 240 49q107 0 188.5 -33t151.5 -121q96 -122 174 -323q63 -156 90 -320h6l13 70q59 376 170 553q113 176 286 176q113 0 197 -65
l-8 -23q-223 -67 -385 -305q-158 -233 -228 -502q3 -201 14.5 -284t43.5 -142q45 -79 172 -112l-2 -25q-264 6 -377 6q-157 0 -379 -6z" />
    <glyph glyph-name="Z" unicode="Z" horiz-adv-x="1316" 
d="M35 20q189 273 438 695q235 391 367 657q-32 4 -99 4q-141 0 -209 -12q-100 -33 -202 -115q-99 -79 -193 -217l-26 4q6 46 16.5 131.5t19.5 151.5t17 111q59 6 192 6q114 0 317 -3t265 -3q51 0 157 1t150 1l2 -25q-177 -259 -485 -778q-173 -291 -322 -563
q113 -11 183 -11q145 0 217 13q100 34 202 114q54 43 111.5 108t95.5 128l27 -4q-10 -53 -32 -197t-38 -215q-58 -4 -213 -4q-43 0 -197 1t-245 1h-145q-287 0 -369 -2z" />
    <glyph glyph-name="bracketleft" unicode="[" horiz-adv-x="815" 
d="M162 -442q20 269 20 831v361q0 558 -20 827l10 25q42 0 147.5 -1.5t167.5 -1.5q144 0 285 3l-2 -56h-293q-18 -222 -18 -760v-436q0 -543 18 -760h297l-6 -57q-94 2 -283 2q-58 0 -164.5 -1t-148.5 -1z" />
    <glyph glyph-name="backslash" unicode="\" horiz-adv-x="602" 
d="M596 -360q-48 155 -305 972q-189 603 -318 979l80 27q43 -141 141 -451t142 -452q176 -568 342 -1049z" />
    <glyph glyph-name="bracketright" unicode="]" horiz-adv-x="815" 
d="M338 -410q20 244 20 760v436q0 516 -20 762h-295l2 56q94 -2 285 -2q58 0 164.5 1t148.5 1l10 -25q-20 -269 -20 -829v-361q0 -560 20 -829l-10 -25q-42 0 -147.5 1t-167.5 1q-189 0 -283 -2l-2 55h295z" />
    <glyph glyph-name="asciicircum" unicode="^" horiz-adv-x="1024" 
d="M90 717q20 34 197 362l198 377h54l200 -377q115 -218 197 -362l-78 -37q-83 177 -186 369l-162 307l-160 -307q-116 -220 -186 -369z" />
    <glyph glyph-name="underscore" unicode="_" horiz-adv-x="946" 
d="M25 -55q123 -2 458 -2q312 0 439 2v-72q-115 2 -480 2q-311 0 -417 -2v72z" />
    <glyph glyph-name="grave" unicode="`" horiz-adv-x="700" 
d="M436 1077q-236 117 -299 180q-39 39 -39 74q0 45 35 85t80 40q43 0 80 -55q108 -180 248 -350l-15 -19z" />
    <glyph glyph-name="a" unicode="a" horiz-adv-x="1042" 
d="M330 -23q-113 0 -184.5 68t-71.5 172q0 74 24 98q34 17 107.5 37.5t205 53.5t197.5 51v47q0 78 -14 143q-31 146 -178 146q-26 0 -66 -9q1 -6 11 -63t10 -84q0 -52 -15 -82q-27 -49 -92 -49q-58 0 -100.5 31t-42.5 77q0 42 46.5 86t145.5 99q35 28 99 71q65 42 119 62
t116 20q134 0 197 -98q37 -57 43 -149q4 -33 4 -97q0 -39 -2 -112.5t-2 -102.5q0 -125 28 -180q11 -25 33.5 -38t44.5 -13q25 0 35 2l6 -19q-72 -46 -149 -102q-86 -63 -140 -63q-32 0 -69 41.5t-55 103.5q-74 -68 -142.5 -108t-148.5 -40zM508 127q63 0 104 35q-8 33 -8 90
q0 18 2 77t2 87l-47 -10q-108 -25 -152 -56.5t-44 -83.5q0 -64 42 -101.5t101 -37.5z" />
    <glyph glyph-name="b" unicode="b" horiz-adv-x="1185" 
d="M119 -2q33 132 33 438v285q0 219 -5 424q-5 155 -41 221q-27 45 -81 45q-25 0 -37 -4l-8 25q25 10 74 30t88 36.5t73 33.5q150 86 191 86l20 -12q12 -62 12 -215q0 -27 -3 -242.5t-3 -351.5q62 59 127 98q88 57 180 57q132 0 230 -98q133 -130 133 -362q0 -135 -57 -244
t-150 -174q-141 -94 -301 -94q-63 0 -129 29.5t-111 74.5q-159 -65 -213 -96zM434 559q0 -129 2 -190q4 -128 14.5 -184.5t32.5 -88.5q21 -33 54 -52t69 -21q80 34 127 129q51 96 51 284q0 205 -90 295q-60 60 -141 70q-69 -6 -119 -51v-191z" />
    <glyph glyph-name="c" unicode="c" horiz-adv-x="1024" 
d="M983 268q-28 -50 -67.5 -97t-93.5 -91.5t-125 -72t-146 -27.5q-203 0 -328 114q-141 132 -141 369q0 132 58.5 243.5t168 179.5t248.5 68q142 0 240 -39q149 -60 149 -153q0 -58 -40.5 -101t-96.5 -43q-53 0 -87 36.5t-75 129.5q-48 118 -108 129q-70 -33 -105 -143
t-35 -276q0 -171 84 -271q76 -88 205 -88q158 0 268 150z" />
    <glyph glyph-name="d" unicode="d" horiz-adv-x="1191" 
d="M782 -12q-13 22 -26 151q-63 -64 -146 -111.5t-157 -47.5q-78 0 -150 36.5t-121 102.5q-98 120 -98 321q0 124 43.5 216.5t99.5 148.5q59 62 156 105.5t195 43.5q88 0 174 -39q-5 173 -7 203q-8 177 -47 232q-41 57 -129 57l-6 27q46 12 124.5 40.5t119.5 51.5
q58 36 119 64t82 28l18 -10q14 -43 14 -129q-6 -738 -6 -944v-66q0 -205 41 -266q25 -41 76 -41q17 0 25 2l4 -23q-27 -13 -71 -33t-69 -32.5t-49 -26.5q-43 -26 -100 -50t-90 -24zM752 831q-26 37 -69.5 60.5t-86.5 23.5q-21 0 -33 -4q-72 -39 -118 -143t-46 -274
q0 -161 64 -261q27 -42 73 -69.5t93 -32.5q73 7 123 53q0 21 -1 84t-1 103q0 80 1 200t1 162v98z" />
    <glyph glyph-name="e" unicode="e" horiz-adv-x="1046" 
d="M395 489q0 -172 80.5 -265t210.5 -93q144 0 272 141l23 -16q-184 -276 -428 -276q-169 0 -281 77q-192 127 -192 414q0 126 58 236t166.5 178.5t242.5 68.5q88 0 161.5 -31t122.5 -84.5t80.5 -115t46.5 -131.5q7 -21 7 -35q0 -11 -11 -22l-559 -13v-33zM535 911
q-126 -66 -138 -348q203 5 279 17q-5 129 -42 226t-99 105z" />
    <glyph glyph-name="f" unicode="f" horiz-adv-x="690" 
d="M27 20q38 11 73 41q53 45 64 177q4 70 4 276q0 177 -6 279q-72 0 -168 -7l-4 25q99 54 172 133q-4 106 -4 141q0 132 24 213q43 134 158 224q129 98 297 98q67 0 123 -12q60 -15 107.5 -52.5t47.5 -95.5q0 -56 -42 -98.5t-99 -42.5q-47 0 -75.5 31.5t-59.5 97.5
q-56 114 -80 131q-33 -38 -58 -133.5t-36 -210.5q-14 -148 -14 -307q135 0 211 2q0 -60 -17 -139q-80 2 -196 2v-261q0 -242 16 -327q17 -95 78 -142q43 -32 108 -40l-2 -25q-61 0 -185 3t-169 3q-77 0 -266 -6z" />
    <glyph glyph-name="g" unicode="g" horiz-adv-x="1103" 
d="M471 -467q-219 0 -340 59q-117 58 -117 150q0 43 27.5 79t80 64t110.5 49t137 41l-199 31l-4 25l338 176q-175 41 -283 125q-121 93 -121 235q0 156 129 275q131 112 306 112q63 0 143 -26q42 14 83.5 46.5t68 63t60 54.5t64.5 24q57 0 92 -44t35 -105q0 -44 -28.5 -70.5
t-71.5 -26.5q-28 0 -118 17.5t-144 19.5q100 -46 161.5 -127t61.5 -188q-3 -150 -131 -256q-69 -58 -246 -146l-100 -51l125 -16q251 -28 366 -100q103 -69 103 -191q0 -126 -156 -209q-172 -90 -432 -90zM543 238q116 109 116 342q0 127 -45.5 211.5t-105.5 119.5
q-53 -40 -89 -123t-36 -204q0 -231 160 -346zM500 -422q123 14 196.5 63.5t73.5 131.5q0 68 -55 106q-63 49 -258 80l-35 6q-152 -74 -152 -203q0 -74 61.5 -123t168.5 -61z" />
    <glyph glyph-name="h" unicode="h" horiz-adv-x="1202" 
d="M18 20q79 29 101 84q26 55 35 154q4 94 4 186v240q0 231 -6 354q-7 259 -35 318q-13 26 -38 40.5t-52 14.5q-13 0 -33 -4l-8 25q18 8 68.5 27.5t97.5 40t81 38.5q47 28 103 54t76 26l22 -14q10 -59 10 -160q0 -31 -2 -271.5t-2 -402.5q78 59 127 91.5t116 61.5t122 29
q204 0 231 -211q9 -58 13 -249q4 -184 14 -263q10 -92 39 -137q33 -54 102 -72l-2 -22q-42 0 -136 3t-148 3q-77 0 -281 -6l-2 22q40 21 65 47.5t39 73.5q25 84 25 281q0 169 -23 254q-32 108 -155 108q-69 0 -146 -57v-225q0 -248 23 -342q32 -116 123 -140l-2 -22
q-20 0 -133 3t-164 3q-59 0 -161.5 -3t-105.5 -3z" />
    <glyph glyph-name="i" unicode="i" horiz-adv-x="595" 
d="M186 1083q-51 77 -51 172q0 70 50.5 123.5t131.5 53.5q61 0 98.5 -38t37.5 -94q0 -51 -29 -84.5t-82 -62.5q-12 -6 -62.5 -32t-74.5 -42zM16 20q72 23 97 72q47 83 47 311q0 239 -31 306q-23 61 -76 61q-19 0 -39 -4l-6 22q147 67 201 97q63 39 123 68.5t82 29.5
q5 0 11 -5t7 -13q8 -47 8 -152q0 -21 -2 -130t-2 -173v-119q0 -183 37 -264q33 -85 115 -107l-2 -22q-204 6 -295 6q-108 0 -273 -6z" />
    <glyph glyph-name="j" unicode="j" horiz-adv-x="589" 
d="M188 1083q-51 77 -51 172q0 70 50 123.5t132 53.5q61 0 98.5 -38t37.5 -94q0 -51 -29 -84.5t-82 -62.5q-12 -6 -62.5 -32t-74.5 -42zM2 -430q97 93 129 305q31 188 31 555q0 203 -29 281q-25 59 -80 59q-21 0 -37 -4l-6 22q103 44 180 86q186 109 226 109q26 0 26 -111
q0 -49 -2 -189.5t-2 -211.5q0 -70 3 -228.5t3 -191.5q0 -200 -102 -321q-107 -129 -328 -183z" />
    <glyph glyph-name="k" unicode="k" horiz-adv-x="1202" 
d="M1032 -18q-157 0 -250 84q-73 65 -147 192q-106 177 -123 199q-33 -17 -72 -29q3 -198 23 -268q28 -115 125 -140l-2 -22q-22 0 -135 3t-164 3q-59 0 -161.5 -3t-105.5 -3l-2 22q79 29 101 84q26 55 35 154q4 94 4 186v293q0 178 -6 301q-7 259 -35 318q-13 26 -38 40.5
t-52 14.5q-13 0 -33 -4l-8 25q18 8 68.5 27.5t97.5 40t81 38.5q47 28 103 54t76 26q11 -3 22 -14q10 -59 10 -160q0 -35 -2 -372t-2 -542v-51q14 3 72 23q73 31 123 69q113 84 113 183q0 56 -31 97t-86 60l2 23q132 -8 258 -8q55 0 141.5 3t106.5 3l2 -23q-71 -21 -199 -135
q-135 -120 -221 -190q41 -42 86 -100t100.5 -135t91.5 -122q73 -95 162 -161q52 -40 92 -46l-2 -20q-91 -18 -219 -18z" />
    <glyph glyph-name="l" unicode="l" horiz-adv-x="600" 
d="M18 20q79 29 101 84q26 55 35 154q4 94 4 186v293q0 178 -6 301q-7 259 -35 318q-13 26 -38 40.5t-52 14.5q-13 0 -33 -4l-8 25q18 8 68.5 27.5t97.5 40t81 38.5q47 28 103 54t76 26l22 -14q10 -59 10 -160q0 -36 -2 -384.5t-2 -557.5q0 -245 23 -342q34 -116 127 -140
l-2 -22q-22 0 -136 3t-165 3q-59 0 -161.5 -3t-105.5 -3z" />
    <glyph glyph-name="m" unicode="m" horiz-adv-x="1736" 
d="M23 20q68 26 92 74q43 77 43 314q0 219 -23 290q-25 72 -82 72q-21 0 -37 -4l-6 22q171 81 203 99q154 96 199 96q15 -4 18 -20q8 -52 8 -175v-14q70 59 152 111q114 67 205 67q153 0 196 -192q98 78 180 129q109 61 183 61q139 0 186 -123q15 -29 24 -68t11.5 -68
t5.5 -83q1 -30 2 -89t2 -87q1 -87 3.5 -132t13 -102.5t30.5 -88.5q39 -64 107 -89l-2 -22q-38 0 -141 3t-152 3q-113 0 -266 -6l-2 22q80 32 108 125q6 17 10 36t6.5 43t4 41.5t2 47t0.5 43.5v47.5v42.5q0 146 -21 226q-26 104 -133 104q-85 0 -154 -53q9 -85 9 -258v-86
q0 -164 22 -238q31 -94 96 -121l-2 -22q-33 0 -120 3t-127 3q-72 0 -261 -6l-2 22q59 30 84 95q14 33 21 97.5t7.5 103t0.5 137.5q0 147 -12 215q-21 112 -131 112q-75 0 -146 -47l-2 -231q0 -182 5.5 -250.5t25.5 -120.5q27 -83 98 -111l-2 -22q-204 6 -272 6
q-83 0 -266 -6z" />
    <glyph glyph-name="n" unicode="n" horiz-adv-x="1202" 
d="M18 20q79 29 101 84q26 55 35 154q4 94 4 186q0 183 -27 263q-9 29 -31 46t-51 17q-17 0 -33 -4l-6 22q136 62 223 111q49 31 102.5 57.5t76.5 26.5q7 0 13.5 -4t6.5 -10q8 -49 8 -168v-31q118 89 202.5 135.5t162.5 46.5q204 0 231 -211q9 -58 13 -249q4 -184 14 -263
q10 -92 39 -137q33 -54 102 -72l-2 -22q-42 0 -136 3t-148 3q-77 0 -281 -6l-2 22q40 21 65 47.5t39 73.5q25 84 25 281q0 169 -23 254q-32 108 -155 108q-69 0 -146 -57v-225q0 -248 23 -342q32 -116 123 -140l-2 -22q-20 0 -133 3t-164 3q-59 0 -161.5 -3t-105.5 -3z" />
    <glyph glyph-name="o" unicode="o" horiz-adv-x="1198" 
d="M84 457q0 135 63.5 243.5t174.5 176.5q59 36 139 56.5t155 20.5q93 0 183 -32.5t157 -90.5q158 -136 158 -362q0 -129 -68 -240.5t-186 -179.5q-123 -69 -252 -69q-101 0 -195.5 31t-164.5 91q-164 135 -164 355zM793 430q0 195 -62.5 332t-157.5 149
q-83 -24 -127.5 -134.5t-44.5 -264.5q0 -191 62 -324t166 -165q73 18 118.5 135t45.5 272z" />
    <glyph glyph-name="p" unicode="p" horiz-adv-x="1196" 
d="M14 -444q76 22 105 82q27 61 35 157q6 63 6 260v164q0 411 -29 492q-21 59 -80 59q-17 0 -33 -4l-6 22q12 6 60 28.5t87.5 42.5t73.5 40q140 84 181 84q5 0 12 -4t8 -10q6 -29 6 -121v-51q164 155 308 155q130 0 229 -96q133 -133 133 -360q0 -244 -172 -396
q-65 -57 -150 -88.5t-170 -31.5q-94 0 -176 55v-23q0 -250 29 -327q36 -105 178 -127l-2 -25q-27 0 -166.5 3t-189.5 3q-59 0 -165.5 -3t-109.5 -3zM442 463q0 -245 31 -334q19 -50 58.5 -77t82.5 -29q85 33 134 137q47 106 47 286q0 132 -50 226q-24 52 -73.5 88.5
t-108.5 40.5q-70 -6 -121 -51v-287z" />
    <glyph glyph-name="q" unicode="q" horiz-adv-x="1181" 
d="M451 -20q-70 0 -136.5 31.5t-117.5 88.5q-113 126 -113 338q0 114 43.5 215.5t116.5 167.5q148 133 338 133q133 0 241 -69q41 13 88.5 36.5t79 40t43.5 17.5q9 -1 15 -9.5t6 -17.5q-13 -115 -19 -252q-4 -212 -4 -346v-153q0 -231 6 -348q5 -156 52 -218q40 -54 106 -77
l-2 -25q-240 6 -291 6q-67 0 -196.5 -3t-151.5 -3l-4 25q38 5 77.5 24.5t63.5 50.5q49 58 56 203q4 70 4 297q-163 -153 -301 -153zM629 131q72 7 123 53v99q0 312 -19 501q-14 58 -50.5 94.5t-86.5 36.5q-21 0 -33 -4q-72 -39 -118 -142.5t-46 -272.5q0 -160 62 -258
q27 -44 73 -72.5t95 -34.5z" />
    <glyph glyph-name="r" unicode="r" horiz-adv-x="868" 
d="M16 20q27 7 55.5 26t41.5 44q45 76 45 303q0 234 -25 307q-23 70 -82 70q-25 0 -37 -4l-6 22q4 2 82.5 38.5t110.5 54.5q168 102 213 102q14 0 16 -10q10 -31 10 -189v-122q54 128 138 233q60 72 118 72q61 0 104.5 -68.5t43.5 -146.5q0 -44 -26.5 -71.5t-69.5 -27.5
q-34 0 -109 17.5t-109 17.5q-18 0 -26 -2q-25 -22 -44.5 -74.5t-19.5 -124.5v-61q0 -212 33 -291q17 -41 59.5 -72.5t110.5 -39.5l-2 -25q-45 0 -171.5 3t-174.5 3q-41 0 -87 -1t-102 -2.5t-88 -2.5z" />
    <glyph glyph-name="s" unicode="s" horiz-adv-x="917" 
d="M86 332q62 -110 170 -199.5t209 -112.5q55 11 90 47t35 93q0 48 -33 78q-36 40 -162 96q-168 74 -225 129q-84 74 -84 190q0 137 117 226q110 79 274 79q169 0 318 -49q6 -32 10.5 -143.5t7.5 -147.5l-22 -4q-74 120 -168.5 202.5t-180.5 101.5q-43 -14 -73.5 -54.5
t-30.5 -89.5q0 -46 20 -77t64 -56q38 -28 131 -66q55 -25 82.5 -38t68 -37t64.5 -47q72 -72 72 -177q0 -132 -103 -210q-117 -89 -303 -89q-207 0 -328 54q-7 18 -13.5 56.5t-10.5 69.5t-10.5 91t-8.5 80z" />
    <glyph glyph-name="t" unicode="t" horiz-adv-x="772" 
d="M358 -23q-94 0 -149 58q-55 63 -55 205q0 28 2 152t2 175q0 144 -2 226q-84 0 -156 -7l-4 25q130 76 237 186q104 110 183 242l28 -6q-8 -144 -8 -275v-30q252 0 303 2q0 -57 -16 -139q-22 0 -120 1t-165 1v-248q0 -241 13 -305q10 -48 38 -72.5t66 -24.5q85 0 152 70
l24 -25q-76 -94 -176 -153q-94 -58 -197 -58z" />
    <glyph glyph-name="u" unicode="u" horiz-adv-x="1187" 
d="M387 -23q-96 0 -155 54.5t-78 156.5q-13 66 -13 252q0 196 -18 256q-17 74 -86 74q-13 0 -33 -4l-6 22q152 72 184 89q163 86 215 86q10 0 19 -13q12 -30 12 -116q0 -10 -1 -132t-1 -184q0 -187 23 -270q31 -101 147 -101q76 0 154 58v215q0 189 -19 266q-8 36 -32 59
t-60 23q-15 0 -23 -2l-6 22q52 18 201 93q54 31 118 56.5t93 25.5q9 0 15.5 -5.5t6.5 -13.5q0 -16 -3.5 -71t-4.5 -72q-4 -74 -4 -320q0 -173 27 -256q20 -61 74 -61q18 0 34 4l7 -23q-20 -10 -95 -45.5t-118 -60.5q-42 -24 -96 -43t-79 -19q-15 0 -18 13q-11 47 -18 170
q-111 -88 -196 -135.5t-167 -47.5z" />
    <glyph glyph-name="v" unicode="v" horiz-adv-x="1130" 
d="M516 -31q-48 114 -172 383q-150 300 -207 396q-36 61 -92 110q-44 38 -86 53l4 21q106 -4 281 -4q148 0 325 6l2 -23q-55 -18 -82 -45q-34 -30 -34 -86q0 -32 26 -104q28 -73 111 -252q57 -113 76 -170q62 121 97.5 242.5t35.5 214.5q0 85 -45 139q-37 43 -97 61l3 23
q16 0 116.5 -4t145.5 -4q38 0 78.5 1t89 2.5t77.5 2.5l2 -23q-54 -23 -127 -102q-84 -89 -200 -315l-135 -261q-94 -193 -160 -266z" />
    <glyph glyph-name="w" unicode="w" horiz-adv-x="1646" 
d="M483 -33q-59 162 -157 383q-115 275 -185 398q-27 53 -84 110q-38 35 -80 51l5 23q147 -6 249 -6q94 0 306 8v-23q-48 -18 -72 -45q-27 -30 -27 -80q0 -39 29 -110q34 -91 100 -250q59 -149 66 -170q70 144 101.5 245t31.5 185q-30 102 -72 164q-29 46 -71 61l2 23
q10 0 100 -4t133 -4q39 0 127 3t127 3l2 -23q-45 -13 -67 -41q-33 -33 -33 -86q0 -40 24 -110q8 -20 101 -252q42 -103 59 -166q131 271 131 451q0 82 -39 135q-32 49 -90 71l2 23q10 0 105.5 -4t136.5 -4q15 0 231 6l2 -23q-52 -18 -121 -98q-88 -104 -188 -319l-127 -261
q-91 -187 -156 -268l-32 4q-51 139 -154 385q-59 148 -88 228q-32 -117 -100 -265l-45 -94q-84 -175 -150 -258z" />
    <glyph glyph-name="x" unicode="x" horiz-adv-x="1103" 
d="M-14 20q75 34 178 134q73 71 256 276l-178 248q-62 88 -127 153q-63 63 -119 80l2 23q152 -4 307 -4q191 0 273 4l2 -23q-84 -40 -84 -110q0 -35 26 -82q42 -70 123 -178q113 138 113 247q0 45 -25 77t-65 46l2 23q90 -4 237 -4q75 0 193 4l2 -23q-74 -36 -176 -135
q-116 -113 -254 -272l178 -236q94 -124 166 -186q53 -50 102 -64l-2 -20q-122 4 -254 4q-200 0 -344 -4l-2 20q40 8 68.5 33t31.5 60q-11 50 -120 215l-50 67q-53 -65 -84.5 -133.5t-31.5 -120.5q0 -42 25 -74.5t67 -44.5l-2 -22q-90 4 -240 4q-74 0 -192 -4z" />
    <glyph glyph-name="y" unicode="y" horiz-adv-x="1153" 
d="M207 -467q-71 0 -119 18q-106 43 -106 144q0 63 41 104t102 41q52 0 82.5 -27.5t50.5 -82.5q23 -72 49 -95q39 11 92 68q67 73 127 197l35 69q-97 186 -192 383q-141 285 -209 396q-36 61 -92 110q-42 37 -88 53l4 21q106 -4 282 -4q153 0 324 6l2 -23q-53 -18 -80 -45
q-35 -30 -35 -86q0 -38 27 -104q14 -36 114 -252q77 -154 84 -170h5q116 246 116 457q0 86 -47 139q-32 43 -94 61l2 23q12 0 114.5 -4t147.5 -4q38 0 79 1t89.5 2.5t77.5 2.5l2 -23q-51 -22 -125 -102q-33 -35 -69 -90.5t-59 -99.5t-64 -125q-30 -60 -110 -223.5
t-118 -241.5l-74 -152q-93 -190 -178 -264q-84 -78 -190 -78z" />
    <glyph glyph-name="z" unicode="z" horiz-adv-x="964" 
d="M31 18q111 154 323 504q124 212 201 369q-88 0 -135 -6q-41 -2 -78 -17q-64 -41 -130.5 -111.5t-109.5 -146.5l-22 4q2 18 4 48.5t4.5 70.5t3.5 60q8 119 14 137q58 4 93 4q52 0 171.5 -2t172.5 -2q270 0 360 2l4 -23q-147 -209 -295 -463q-139 -230 -235 -407h80
q93 0 155 16q78 38 152 107q77 77 137 170l23 -4q-5 -32 -13.5 -103t-16.5 -129.5t-17 -97.5q-21 0 -159 1t-231 1h-194q-205 0 -260 -2z" />
    <glyph glyph-name="braceleft" unicode="{" horiz-adv-x="815" 
d="M766 -471q-250 41 -385 145q-150 118 -150 328q0 62 19.5 178t19.5 164q0 92 -57 149t-158 64l2 37q101 7 157 62t56 145q0 48 -19.5 157.5t-19.5 171.5q0 207 146 324q131 105 389 164l8 -23q-131 -74 -188 -176q-56 -98 -56 -270q0 -44 5.5 -137.5t5.5 -124.5
q0 -124 -92 -202t-254 -110q170 -27 258 -102t88 -213q0 -31 -5.5 -130.5t-5.5 -143.5q0 -173 56 -269q56 -97 188 -166z" />
    <glyph glyph-name="bar" unicode="|" horiz-adv-x="602" 
d="M262 -362q2 293 2 1009q0 647 -2 952h78q-2 -272 -2 -1046q0 -655 2 -915h-78z" />
    <glyph glyph-name="braceright" unicode="}" horiz-adv-x="815" 
d="M41 -449q131 74 188 177q56 98 56 270q0 44 -5.5 137.5t-5.5 124.5q0 124 92.5 202.5t256.5 110.5q-171 26 -260 101t-89 213q0 31 5.5 130.5t5.5 143.5q0 173 -56 269q-55 95 -188 165l8 23q250 -41 385 -145q150 -118 150 -328q0 -62 -19.5 -178t-19.5 -164
q0 -91 57 -147.5t158 -63.5l-2 -37q-101 -7 -157 -62.5t-56 -146.5q0 -49 19.5 -158.5t19.5 -171.5q0 -206 -146 -323q-131 -105 -389 -164z" />
    <glyph glyph-name="asciitilde" unicode="~" horiz-adv-x="1318" 
d="M104 397q116 285 334 285q59 0 101 -8.5t135 -36.5q180 -55 280 -55q154 0 240 102l23 -12q-146 -283 -363 -283q-45 0 -96 9.5t-81.5 18t-107.5 32.5q-130 40 -219 40q-68 0 -127 -29t-96 -75z" />
    <glyph glyph-name="uni00A0" unicode="&#xa0;" horiz-adv-x="409" 
 />
    <glyph glyph-name="exclamdown" unicode="&#xa1;" horiz-adv-x="514" 
d="M281 1010q76 0 120.5 -45.5t44.5 -116.5q0 -78 -57 -128t-141 -50q-76 0 -121 45t-45 114q0 82 56.5 131.5t142.5 49.5zM283 561q15 -158 52.5 -334.5t66 -309.5t28.5 -216q0 -80 -49.5 -124t-116.5 -44q-66 0 -115 42.5t-49 117.5q0 86 27.5 218.5t67 312.5t57.5 337h31
z" />
    <glyph glyph-name="cent" unicode="&#xa2;" horiz-adv-x="1046" 
d="M532 -63q5 210 5 251q-182 9 -306 121q-145 132 -145 365q0 130 56.5 239t159.5 176t235 76q0 43 -5 228h58q-2 -59 -2 -228q142 -3 241 -53q127 -67 127 -170q0 -53 -39.5 -89t-95.5 -36q-58 0 -91.5 37.5t-45.5 122.5q-11 92 -31 133q-19 12 -65 16v-772q40 -12 92 -12
q172 0 285 158l24 -17q-57 -106 -160 -192.5t-241 -100.5q0 -183 2 -253h-58zM537 1122q-146 -70 -146 -413q0 -148 60 -250q29 -53 86 -86v749z" />
    <glyph glyph-name="sterling" unicode="&#xa3;" 
d="M90 20l35 21q125 78 189.5 162.5t64.5 208.5q0 102 -57 250h-203v51q74 -2 182 -2q-23 55 -33.5 85t-23.5 91t-13 121q0 185 125 301q64 60 156.5 92.5t196.5 32.5q147 0 252.5 -61.5t105.5 -151.5q0 -54 -35.5 -91.5t-93.5 -37.5q-57 0 -89.5 36.5t-53.5 104.5
q-24 66 -44.5 106.5t-48.5 55.5q-75 -40 -116 -127q-47 -102 -47 -221q0 -32 3.5 -66.5t7 -57t13 -61t12.5 -50t16.5 -54.5t14.5 -47q148 0 248 2l-4 -51h-229q16 -57 16 -121q0 -168 -199 -301h348q172 0 252 53q42 28 64.5 59t44.5 80l31 -6q-40 -169 -50 -221
q-29 -143 -45 -199q-62 -8 -180 -8q-80 0 -217 2t-223 2q-233 0 -371 -6z" />
    <glyph glyph-name="currency" unicode="&#xa4;" horiz-adv-x="1228" 
d="M188 180q105 100 140 137q-38 48 -62 112t-24 128t24 128t62 112q-35 37 -140 137l52 51q61 -66 137 -139q106 88 237 88q132 0 238 -88q76 73 137 139l51 -51q-93 -89 -139 -137q38 -48 62 -112t24 -128t-24 -128t-62 -112q46 -48 139 -137l-51 -51q-61 66 -137 139
q-106 -88 -238 -88q-131 0 -237 88q-76 -73 -137 -139zM614 248q125 0 212 93.5t87 215.5t-87 215.5t-212 93.5t-212 -93.5t-87 -215.5t87 -215.5t212 -93.5z" />
    <glyph glyph-name="yen" unicode="&#xa5;" 
d="M291 23q62 17 119 63q55 51 75 158q8 52 13 114q-248 0 -375 -2v52q106 -2 377 -2l2 120l-10 60q-248 0 -369 -2v51q98 -2 356 -2q-31 119 -92 272q-88 207 -182 324q-53 66 -109 104.5t-86 38.5q-18 0 -30 -4l-9 25q100 49 228 49q96 0 173 -32.5t140 -117.5
q77 -99 145 -315q51 -165 74 -336h4l10 80q42 390 136 551q102 170 262 170q113 0 192 -64l-8 -20q-203 -74 -350 -295q-115 -179 -178 -430q251 0 362 2v-51q-123 2 -375 2l-6 -45q0 -94 2 -135q262 0 379 2v-52q-127 2 -377 2q7 -149 47 -227q41 -75 156 -108l-2 -25
q-246 6 -346 6q-142 0 -346 -6z" />
    <glyph glyph-name="brokenbar" unicode="&#xa6;" horiz-adv-x="602" 
d="M266 797q0 526 -2 802h74q-2 -268 -2 -802h-70zM264 -362q2 268 2 804h70q0 -528 2 -804h-74z" />
    <glyph glyph-name="section" unicode="&#xa7;" horiz-adv-x="1046" 
d="M477 -309q-196 0 -321 53q-8 23 -15.5 64.5t-11.5 71.5t-11 91t-9 76l24 4q61 -110 164 -196q112 -97 209 -121q67 24 106 71.5t39 110.5q0 69 -51 123q-21 22 -50.5 43.5t-77.5 51.5t-66 42q-38 25 -55.5 37t-50.5 36t-49.5 38t-43 37.5t-40 41t-30.5 42.5t-25 48.5
t-14 51.5t-6 57q0 98 61.5 172t165.5 121q-83 60 -126 124.5t-43 150.5q0 153 115.5 238t291.5 85q181 0 326 -49q8 -43 12 -148t8 -143l-22 -4q-80 116 -154 182q-107 100 -195 121q-59 -18 -98 -65t-39 -113q0 -72 60 -135q17 -17 41.5 -35t42 -29t54 -32.5t50.5 -30.5
q61 -37 99.5 -63t83 -65t69.5 -76t42 -87.5t17 -108.5q0 -188 -221 -282q84 -66 124 -129.5t40 -155.5q0 -93 -60.5 -167t-155.5 -112t-204 -38zM657 340q52 61 52 135q0 76 -39 127q-42 58 -183 146l-100 63q-49 -59 -49 -135q0 -82 47 -141q43 -52 164 -125q17 -12 54 -35
t54 -35z" />
    <glyph glyph-name="dieresis" unicode="&#xa8;" horiz-adv-x="747" 
d="M162 1122q-53 0 -83 32.5t-30 82.5q0 61 40 98t101 37q50 0 79.5 -33t29.5 -82q0 -60 -40 -97.5t-97 -37.5zM561 1122q-53 0 -82.5 32.5t-29.5 82.5q0 60 39.5 97.5t99.5 37.5q51 0 80.5 -33t29.5 -82q0 -60 -40 -97.5t-97 -37.5z" />
    <glyph glyph-name="copyright" unicode="&#xa9;" horiz-adv-x="1413" 
d="M705 -66q-174 0 -317 82t-225.5 225.5t-82.5 317.5q0 130 49.5 246.5t133.5 199.5t199.5 132t242.5 49q171 0 314.5 -82.5t227.5 -227t84 -317.5q0 -174 -84.5 -318t-228 -225.5t-313.5 -81.5zM702 -14q152 0 282 77t206 209t76 287t-76 286.5t-206 208t-282 76.5
q-155 0 -284.5 -76.5t-204 -208t-74.5 -286.5t74.5 -287t204 -209t284.5 -77zM735 203q-169 0 -276 90q-119 95 -119 262q0 169 115 270q115 103 293 103q127 0 237 -45q6 -33 12.5 -124t10.5 -128l-23 -4q-41 78 -113 153q-70 79 -143 115q-59 -35 -102 -115
q-43 -88 -43 -207q0 -135 53 -221q44 -74 127 -116q57 19 121 79q49 42 110 127l23 -4q-22 -160 -31 -188q-97 -47 -252 -47z" />
    <glyph glyph-name="ordfeminine" unicode="&#xaa;" horiz-adv-x="870" 
d="M270 713q-96 0 -150 51t-54 131q0 24 6 47t14 31q27 13 87 29t157 39.5t157 39.5v33q0 64 -10 109q-20 110 -135 110q-23 0 -51 -8q1 -9 7.5 -49t6.5 -59q0 -43 -12 -62q-8 -16 -27.5 -27.5t-44.5 -11.5q-46 0 -81.5 24t-35.5 60q0 31 37.5 64.5t116.5 76.5q43 34 78 54
q94 61 186 61q108 0 158 -76q30 -49 33 -114q2 -25 2 -72q0 -30 -1 -86t-1 -78q0 -94 22 -137q19 -37 62 -37q20 0 28 2l4 -20q-40 -22 -118 -76q-67 -49 -113 -49q-26 0 -56.5 32t-43.5 78q-59 -51 -112 -80.5t-116 -29.5zM408 831q46 0 84 23q-7 35 -7 66q0 14 1 59.5
t1 67.5l-34 -9q-82 -15 -117 -39.5t-35 -64.5q0 -50 30 -76.5t77 -26.5z" />
    <glyph glyph-name="guillemotleft" unicode="&#xab;" horiz-adv-x="882" 
d="M367 125q-187 180 -250 252q-35 40 -35 67q0 4 1 8.5t1.5 7.5t3.5 8t4 7t5 8t5.5 7.5t7 8.5t7.5 9q25 28 115 118t133 136l77 82l17 -13q-95 -217 -127 -376q13 -80 49 -188.5t78 -200.5l-19 -13zM725 125q-195 191 -248 252q-35 40 -35 67q0 4 1 8.5t1.5 7.5t3.5 8t4 7
t5 8t5.5 7.5t7 8.5t7.5 9q25 28 115 118t133 136l76 82l16 -13q-94 -225 -125 -376q13 -82 49.5 -191.5t77.5 -197.5l-18 -13z" />
    <glyph glyph-name="logicalnot" unicode="&#xac;" horiz-adv-x="1269" 
d="M1081 215q2 113 2 490q-274 4 -481 4q-273 0 -491 -4v63q123 -2 532 -2q375 0 502 2v-63q0 -381 2 -490h-66z" />
    <glyph glyph-name="uni00AD" unicode="&#xad;" horiz-adv-x="696" 
d="M86 559q287 0 518 12l-4 -116q-330 0 -510 -11z" />
    <glyph glyph-name="registered" unicode="&#xae;" horiz-adv-x="1054" 
d="M524 508q-198 0 -334.5 137t-136.5 336q0 129 64.5 239t174 173t236.5 63q96 0 183.5 -37.5t151 -101t101 -151.5t37.5 -185q0 -130 -65 -239.5t-174.5 -171.5t-237.5 -62zM526 561q97 0 183.5 45t144.5 121q-12 -2 -35 -2q-52 0 -96 16q-40 16 -78 54q-74 74 -129 172
q-10 -2 -33 -2q0 -84 6 -125q2 -18 8 -31.5t12.5 -20t18.5 -16.5q24 -14 68 -22l-2 -21q-20 0 -85.5 1t-105.5 1q-24 0 -74.5 -1t-64.5 -1l-2 21q47 8 70 34q19 25 24 78q2 25 2 88v35q0 92 -2 127q-3 49 -18 74q-18 30 -88 41l2 20q49 -2 149 -2q20 0 67.5 1t70.5 1
q126 0 178 -30q65 -38 65 -103q0 -54 -37 -84t-102 -47q46 -68 131 -147q58 -52 103 -74q61 99 61 219q0 173 -121.5 296.5t-290.5 123.5q-173 0 -293 -123t-120 -297t120 -297t293 -123zM563 991q31 0 49 6q29 37 29 95q0 53 -37 90q-30 30 -78 37q-12 0 -30 -7
q-13 -93 -13 -198v-15q36 -8 80 -8z" />
    <glyph glyph-name="macron" unicode="&#xaf;" horiz-adv-x="718" 
d="M66 1278q80 -2 266 -2q177 0 321 6l-2 -92q-94 2 -307 2q-182 0 -274 -4z" />
    <glyph glyph-name="degree" unicode="&#xb0;" horiz-adv-x="696" 
d="M348 1456q127 0 211 -76.5t84 -205.5q0 -128 -85.5 -209.5t-209.5 -81.5q-127 0 -211 76.5t-84 205.5q0 128 85.5 209.5t209.5 81.5zM346 936q104 0 171 66.5t67 168.5t-67.5 167t-168.5 65q-103 0 -169 -67t-66 -169t66.5 -166.5t166.5 -64.5z" />
    <glyph glyph-name="plusminus" unicode="&#xb1;" horiz-adv-x="1269" 
d="M598 223q4 230 4 492q-261 0 -491 -4v69q230 -4 491 -4q0 244 -4 490h74q-2 -104 -2 -490q241 0 487 4v-69q-204 4 -487 4q0 -406 2 -492h-74zM111 66q308 -5 532 -5q197 0 514 5v-70q-115 2 -555 2q-382 0 -491 -2v70z" />
    <glyph glyph-name="uni00B2" unicode="&#xb2;" horiz-adv-x="843" 
d="M29 631q92 53 207 139q132 98 206 199q72 97 72 200q0 87 -47 148q-43 58 -115 65q-49 -4 -71 -26q1 -15 8.5 -67.5t7.5 -78.5q0 -45 -27.5 -76.5t-72.5 -31.5q-49 0 -85 26.5t-36 71.5q0 51 40.5 98t108.5 82q100 54 224 54q146 0 231 -70q78 -68 78 -166
q0 -95 -82 -174q-11 -11 -24.5 -23t-25 -21.5t-31 -23t-29.5 -20.5t-34 -22.5t-32.5 -20.5t-36 -22t-33.5 -21l-115 -70h273q98 0 145 27q41 21 76 82l22 -8q-17 -57 -39 -153t-26 -110q-38 -6 -133 -6q-57 0 -187 2t-200 2q-59 0 -131 -2t-84 -2z" />
    <glyph glyph-name="uni00B3" unicode="&#xb3;" horiz-adv-x="806" 
d="M350 594q-131 0 -219 38.5t-88 98.5q0 43 36.5 76t88.5 33q19 0 33 -6t27 -24t19 -29.5t21 -43.5q32 -88 66 -108q77 10 131 53q57 57 57 125q0 72 -63 117q-61 44 -201 55l-12 16q41 33 123 107q49 43 153 147h-112q-57 0 -82 -0.5t-64.5 -5.5t-66.5 -16
q-52 -21 -91 -80l-22 4q6 22 20.5 80.5t27.5 104.5t24 73q43 6 133 6q26 0 127.5 -2t150.5 -2q142 0 197 4v-18q-54 -44 -111 -94q-205 -183 -219 -197q133 -9 230 -78q92 -62 92 -178q0 -64 -39.5 -118t-106.5 -89q-101 -49 -260 -49z" />
    <glyph glyph-name="acute" unicode="&#xb4;" horiz-adv-x="700" 
d="M160 1051q126 148 250 350q34 55 79 55q44 0 78.5 -39.5t34.5 -85.5q0 -38 -39 -74q-71 -68 -297 -180l-92 -45z" />
    <glyph glyph-name="uni00B5" unicode="&#xb5;" horiz-adv-x="1204" 
d="M113 -442q29 77 37 177.5t8 287.5v495q0 269 -64 391l4 21q61 -2 207 -2q22 0 53.5 2t73.5 2q15 0 20 -6.5t5 -24.5q0 -11 -4.5 -59.5t-8.5 -129.5t-4 -171v-64q0 -157 21 -231q31 -99 135 -99q67 0 117.5 53t50.5 142v176q0 269 -64 391l5 21q53 -2 188 -2q36 0 72 2.5
t71 3.5q15 0 20 -6.5t5 -24.5q0 -12 -3.5 -61t-7 -130t-3.5 -171v-66q0 -165 24 -248q9 -28 31.5 -45.5t48.5 -17.5q15 0 31 4l6 -23q-80 -44 -154 -92q-117 -76 -170 -76q-15 0 -28 17q-51 68 -66 201h-4q-35 -99 -80.5 -157t-110.5 -58q-99 0 -135 131h-4q4 -136 4 -201
q0 -213 68 -352l-4 -21q-20 0 -94.5 1t-110.5 1q-116 0 -184 -2z" />
    <glyph glyph-name="paragraph" unicode="&#xb6;" horiz-adv-x="1144" 
d="M283 -268q40 7 89 33t81 63q71 83 86 242q8 91 8 407v160q-178 18 -307 106q-158 108 -158 285q0 190 168 305q147 101 360 101q44 0 145 -1t146 -1q134 0 236 4l2 -25q-124 -23 -183 -78q-77 -69 -77 -223v-797q0 -137 8 -243q9 -157 76 -242q29 -38 74 -64t85 -32
l-2 -25q-198 6 -309 6h-12q4 266 4 936v731q-44 6 -96 6q-48 0 -86 -10v-727q0 -670 4 -936h-80q-113 0 -260 -6z" />
    <glyph glyph-name="periodcentered" unicode="&#xb7;" horiz-adv-x="514" 
d="M242 344q-79 0 -125.5 49t-46.5 123q0 85 57 138t143 53q78 0 125 -48t47 -120q0 -88 -56 -141.5t-144 -53.5z" />
    <glyph glyph-name="cedilla" unicode="&#xb8;" horiz-adv-x="708" 
d="M215 -453q133 50 133 150q0 67 -52.5 101.5t-131.5 37.5l-6 21l307 168h76l-150 -84q139 -49 139 -170q0 -92 -84.5 -159t-222.5 -87z" />
    <glyph glyph-name="uni00B9" unicode="&#xb9;" horiz-adv-x="681" 
d="M51 635q133 12 168 72q17 29 25 92q4 70 4 133v76q0 69 -2 102q-6 106 -31 137q-18 21 -59 21q-40 -7 -74 -21l-10 21q140 62 225 106q122 62 145 62l15 -6q8 -24 8 -66q0 -3 -2 -98t-2 -174v-230q0 -103 22 -149q30 -70 146 -78l-2 -23q-19 0 -135.5 3t-161.5 3
q-52 0 -163 -3t-114 -3z" />
    <glyph glyph-name="ordmasculine" unicode="&#xba;" horiz-adv-x="962" 
d="M489 713q-164 0 -286 92q-129 101 -129 270q0 105 47.5 188t136.5 136q47 27 111 43t125 16q155 0 270 -94q125 -101 125 -274q0 -100 -52 -184t-147 -138q-90 -55 -201 -55zM504 750q59 24 93 110t34 199q0 145 -47.5 243.5t-122.5 120.5q-64 -27 -97.5 -109.5
t-33.5 -195.5q0 -141 47 -236.5t127 -131.5z" />
    <glyph glyph-name="guillemotright" unicode="&#xbb;" horiz-adv-x="882" 
d="M66 66q92 221 124 376q-11 79 -47 188.5t-77 200.5l16 13l76 -72q195 -191 248 -252q36 -36 36 -67q0 -25 -36 -64q-26 -29 -115.5 -118.5t-132.5 -135.5l-76 -82zM424 66q95 217 127 376q-13 79 -49.5 188.5t-77.5 200.5l18 13l74 -72q187 -180 250 -252q35 -40 35 -67
q0 -4 -1 -8.5t-1.5 -7.5t-3.5 -8t-4 -7t-5 -8t-5.5 -7.5t-7 -8.5t-7.5 -9q-26 -29 -115.5 -118.5t-132.5 -135.5l-78 -82z" />
    <glyph glyph-name="onequarter" unicode="&#xbc;" horiz-adv-x="1640" 
d="M57 635q133 12 168 72q19 33 23 92q4 70 4 133v76q0 69 -2 102q-3 105 -29 137q-18 21 -59 21q-38 -6 -74 -21l-10 21q140 62 225 106q122 62 143 62l17 -6q8 -24 8 -66q0 -3 -2 -98t-2 -174v-230q0 -108 20 -149q34 -71 148 -78l-2 -23q-19 0 -135.5 3t-161.5 3
q-54 0 -165 -3t-112 -3zM209 -25q290 333 686 816q112 137 284 344t248 299l60 -52q-194 -225 -592 -702q-98 -119 -320 -389t-303 -367zM1194 4q23 90 23 205v12q-80 2 -230 2q-87 0 -205 -4l-2 17q15 13 55.5 47t61.5 53q325 306 510 500l35 -11q-15 -128 -19 -211
q-6 -132 -6 -270h17q110 0 153 62l19 -3q-23 -115 -43 -178q-43 -4 -146 -4v-14q0 -119 25 -203l-2 -10q-39 2 -127 2q-24 0 -63.5 -1t-53.5 -1zM1221 344q1 41 2 124t2 122q-205 -195 -258 -250q49 4 159 4h95z" />
    <glyph glyph-name="onehalf" unicode="&#xbd;" horiz-adv-x="1849" 
d="M57 635q133 12 168 72q19 33 23 92q4 70 4 133v76q0 69 -2 102q-3 105 -29 137q-18 21 -59 21q-38 -6 -74 -21l-10 21q140 62 225 106q122 62 143 62l17 -6q8 -24 8 -66q0 -3 -2 -98t-2 -174v-230q0 -108 20 -149q34 -71 148 -78l-2 -23q-19 0 -135.5 3t-161.5 3
q-54 0 -165 -3t-112 -3zM209 -25q290 333 686 816q112 137 284 344t248 299l60 -52q-194 -225 -592 -702q-98 -119 -320 -389t-303 -367zM1012 16q86 50 207 140q133 99 206 198q72 97 72 201q0 90 -47 147q-44 59 -113 66q-50 -4 -73 -27q1 -15 8.5 -67t7.5 -78
q0 -46 -27.5 -77.5t-72.5 -31.5q-49 0 -85 27t-36 72q0 51 40.5 98t108.5 82q98 53 224 53q147 0 231 -69q78 -68 78 -166q0 -94 -80 -174q-11 -11 -25 -23t-26 -21.5t-31 -23t-30 -21t-34 -22t-32.5 -20.5t-36 -22t-33.5 -21l-115 -70h275q96 0 143 27q42 22 76 81l23 -8
q-15 -52 -37 -147.5t-29 -114.5q-37 -6 -133 -6q-58 0 -188 2t-199 2q-58 0 -130.5 -2t-84.5 -2z" />
    <glyph glyph-name="threequarters" unicode="&#xbe;" horiz-adv-x="1722" 
d="M291 -25q290 333 686 816q112 137 284 344t248 299l60 -52q-194 -225 -592 -702q-98 -119 -320 -389t-303 -367zM360 594q-131 0 -219 38.5t-88 98.5q0 43 36.5 76t88.5 33q19 0 33.5 -6.5t27 -23.5t19.5 -30t21 -43q33 -89 65 -108q77 10 131 53q57 57 57 125
q0 72 -63 117q-64 44 -201 55l-12 16q41 33 123 107q49 43 153 147h-112q-57 0 -82 -0.5t-64.5 -5.5t-66.5 -16q-57 -23 -90 -80l-23 4q6 22 20.5 80.5t27.5 104.5t24 73q43 6 133 6q26 0 128 -2t151 -2q141 0 196 4v-18q-43 -35 -110 -94q-156 -136 -222 -197
q135 -9 232 -78q92 -62 92 -178q0 -64 -40 -118t-108 -89q-98 -49 -258 -49zM1274 4q24 94 24 205v12q-80 2 -231 2q-89 0 -203 -4l-2 17q19 18 59.5 51.5t57.5 48.5q300 283 510 500l33 -11q-15 -128 -19 -211q-6 -132 -6 -270h16q111 0 154 62l21 -3q-23 -115 -43 -178
q-43 -4 -148 -4v-14q3 -132 27 -203l-4 -10q-39 2 -127 2q-24 0 -62.5 -1t-52.5 -1zM1303 344q2 82 2 246q-197 -188 -256 -250q49 4 157 4h97z" />
    <glyph glyph-name="questiondown" unicode="&#xbf;" horiz-adv-x="653" 
d="M397 1010q76 0 121 -45.5t45 -116.5q0 -78 -58 -128t-143 -50q-76 0 -119.5 44.5t-43.5 114.5q0 82 56 131.5t142 49.5zM420 573q42 -37 71 -91t29 -115q0 -79 -23.5 -141t-72.5 -126q-23 -28 -86.5 -91t-75.5 -75q-77 -77 -94 -141q29 -20 92 -20q35 0 103 12t102 12
q51 0 83 -27.5t32 -72.5q0 -66 -53.5 -115t-125.5 -49q-114 0 -213 111q-48 53 -80 125t-32 149q0 102 42 178.5t130 155.5q85 78 121.5 129.5t36.5 112.5q0 19 -13 69z" />
    <glyph glyph-name="Agrave" unicode="&#xc0;" horiz-adv-x="1531" 
d="M864 1561q-265 54 -344 98q-63 32 -63 92q0 41 30 81t74 40q38 0 70 -35q169 -163 332 -272l-9 -23zM-59 23q42 18 98 65q52 44 111 129q96 139 296 567l177 379q53 125 118 307l41 3q105 -246 197 -445q272 -607 383 -780q117 -189 231 -223l-2 -27q-8 0 -139 2t-209 2
q-39 0 -173 -2t-198 -2l-2 25q59 19 103.5 56.5t54.5 86.5q-3 63 -39 162q-19 48 -78 182q-140 4 -247 4q-116 0 -256 -4q-50 -139 -50 -242q0 -102 68 -182q44 -44 100 -63l-2 -25q-43 0 -160 2t-171 2q-59 0 -155 -2l-95 -2zM664 573q136 0 219 5l-226 497h-6l-157 -342
q-47 -98 -66 -158q61 -2 236 -2z" />
    <glyph glyph-name="Aacute" unicode="&#xc1;" horiz-adv-x="1531" 
d="M592 1565q158 104 330 272q35 35 69 35q46 0 76.5 -40t30.5 -81q0 -59 -64 -92q-80 -45 -346 -98l-88 -19zM-59 23q42 18 98 65q52 44 111 129q96 139 296 567l177 379q53 125 118 307l41 3q105 -246 197 -445q272 -607 383 -780q117 -189 231 -223l-2 -27q-8 0 -139 2
t-209 2q-39 0 -173 -2t-198 -2l-2 25q59 19 103.5 56.5t54.5 86.5q-3 63 -39 162q-19 48 -78 182q-140 4 -247 4q-116 0 -256 -4q-50 -139 -50 -242q0 -102 68 -182q44 -44 100 -63l-2 -25q-43 0 -160 2t-171 2q-59 0 -155 -2l-95 -2zM664 573q136 0 219 5l-226 497h-6
l-157 -342q-47 -98 -66 -158q61 -2 236 -2z" />
    <glyph glyph-name="Acircumflex" unicode="&#xc2;" horiz-adv-x="1531" 
d="M428 1563q46 38 93.5 81t112 104t81.5 77q39 35 69 35q31 0 70 -35q21 -19 82 -77t108 -101.5t95 -83.5l-13 -21q-197 56 -348 119q-154 -61 -338 -119zM-59 23q42 18 98 65q52 44 111 129q96 139 296 567l177 379q53 125 118 307l41 3q105 -246 197 -445
q272 -607 383 -780q117 -189 231 -223l-2 -27q-8 0 -139 2t-209 2q-39 0 -173 -2t-198 -2l-2 25q59 19 103.5 56.5t54.5 86.5q-3 63 -39 162q-19 48 -78 182q-140 4 -247 4q-116 0 -256 -4q-50 -139 -50 -242q0 -102 68 -182q44 -44 100 -63l-2 -25q-43 0 -160 2t-171 2
q-59 0 -155 -2l-95 -2zM664 573q136 0 219 5l-226 497h-6l-157 -342q-47 -98 -66 -158q61 -2 236 -2z" />
    <glyph glyph-name="Atilde" unicode="&#xc3;" horiz-adv-x="1531" 
d="M414 1577q29 117 86 187.5t131 70.5q72 0 194 -51q114 -49 176 -49q96 0 146 102l24 -10q-37 -122 -97.5 -192t-139.5 -70q-62 0 -184 49q-115 51 -179 51q-86 0 -133 -96zM-59 23q42 18 98 65q52 44 111 129q96 139 296 567l177 379q53 125 118 307l41 3
q105 -246 197 -445q272 -607 383 -780q117 -189 231 -223l-2 -27q-8 0 -139 2t-209 2q-39 0 -173 -2t-198 -2l-2 25q59 19 103.5 56.5t54.5 86.5q-3 63 -39 162q-19 48 -78 182q-140 4 -247 4q-116 0 -256 -4q-50 -139 -50 -242q0 -102 68 -182q44 -44 100 -63l-2 -25
q-43 0 -160 2t-171 2q-59 0 -155 -2l-95 -2zM664 573q136 0 219 5l-226 497h-6l-157 -342q-47 -98 -66 -158q61 -2 236 -2z" />
    <glyph glyph-name="Adieresis" unicode="&#xc4;" horiz-adv-x="1531" 
d="M549 1573q-53 0 -83 33.5t-30 81.5q0 60 40.5 97.5t101.5 37.5q49 0 78.5 -33t29.5 -82q0 -59 -40 -97t-97 -38zM971 1573q-53 0 -83 33.5t-30 81.5q0 61 40 98t101 37q50 0 79.5 -33t29.5 -82q0 -59 -40 -97t-97 -38zM-59 23q42 18 98 65q52 44 111 129q96 139 296 567
l177 379q53 125 118 307l41 3q105 -246 197 -445q272 -607 383 -780q117 -189 231 -223l-2 -27q-8 0 -139 2t-209 2q-39 0 -173 -2t-198 -2l-2 25q59 19 103.5 56.5t54.5 86.5q-3 63 -39 162q-19 48 -78 182q-140 4 -247 4q-116 0 -256 -4q-50 -139 -50 -242q0 -102 68 -182
q44 -44 100 -63l-2 -25q-43 0 -160 2t-171 2q-59 0 -155 -2l-95 -2zM664 573q136 0 219 5l-226 497h-6l-157 -342q-47 -98 -66 -158q61 -2 236 -2z" />
    <glyph glyph-name="Aring" unicode="&#xc5;" horiz-adv-x="1531" 
d="M-59 23q42 18 98 65q52 44 111 129q96 139 296 567l168 365q42 89 113 281q-78 10 -125 49q-72 56 -72 147q0 109 93 172q53 41 139 41q89 0 151 -49q74 -58 74 -154q0 -107 -100 -170q-35 -24 -88 -34q110 -254 180 -404q272 -607 383 -780q117 -189 231 -223l-2 -27
q-8 0 -139 2t-209 2q-39 0 -173 -2t-198 -2l-2 25q59 19 103.5 56.5t54.5 86.5q-3 63 -39 162q-19 48 -78 182q-140 4 -247 4q-116 0 -256 -4q-50 -139 -50 -242q0 -102 68 -182q44 -44 100 -63l-2 -25q-43 0 -160 2t-171 2q-59 0 -155 -2l-95 -2zM776 1468q43 19 68.5 61.5
t25.5 96.5q0 67 -35 112.5t-92 59.5q-47 -20 -73.5 -62.5t-26.5 -97.5q0 -67 38.5 -113t94.5 -57zM664 573q136 0 219 5l-226 497h-6l-157 -342q-47 -98 -66 -158q59 -2 236 -2z" />
    <glyph glyph-name="AE" unicode="&#xc6;" horiz-adv-x="1890" 
d="M-57 23q54 25 99 72t97 120q57 80 137 240t140 327l61 170q62 173 62 277q0 84 -66 131q-45 32 -141 51l2 25q228 -6 371 -6q193 0 449.5 3t289.5 3q126 0 196 -6q10 -61 18 -176t21 -210l-26 -4q-91 137 -195 215q-144 116 -334 131q-76 0 -131 -10q25 -208 117 -573
l10 -39h29q104 0 141 4q68 9 131 53q65 55 92 131l27 -4q-10 -137 -10 -223q0 -111 4 -201l-27 -2q-30 62 -82 111q-52 52 -143 67q-64 11 -100 11q-33 0 -47 -4l6 -31q42 -181 108 -379q36 -111 76 -168t102 -80q118 33 226 141q100 94 174 222l26 -4q-12 -64 -33.5 -209
t-33.5 -197q-58 -4 -156 -4q-116 0 -260 2t-225 2q-231 0 -379 -4l-2 25q38 8 80 32t65 56q28 41 31 92q-3 63 -33 211l-24 116q-66 2 -224 2q-192 0 -266 -2q-59 -163 -59 -278q0 -101 63 -164q40 -43 109 -65l-2 -25q-40 0 -152.5 2t-161.5 2q-123 0 -245 -4zM659 590
q141 0 211 2l-63 260q-72 300 -131 481l-260 -739q122 -4 243 -4z" />
    <glyph glyph-name="Ccedilla" unicode="&#xc7;" horiz-adv-x="1548" 
d="M858 -23q-307 6 -516 193q-110 97 -170.5 232.5t-60.5 295.5q0 163 61.5 304t171.5 245q107 98 252 154.5t305 56.5q278 0 494 -88q10 -65 20 -208.5t21 -237.5l-27 -4q-94 173 -240 311q-156 150 -303 178q-78 -27 -159 -91t-138 -147q-123 -183 -123 -434
q0 -281 160 -487q65 -82 153.5 -139t178.5 -84q122 17 256 116q156 121 248 271l26 -6q-8 -42 -27.5 -167t-29.5 -171q-205 -87 -473 -93l-68 -36q142 -49 142 -170q0 -92 -85.5 -159t-224.5 -87l-8 22q133 49 133 150q0 67 -52 101.5t-132 37.5l-6 21z" />
    <glyph glyph-name="Egrave" unicode="&#xc8;" horiz-adv-x="1302" 
d="M754 1561q-265 54 -344 98q-64 33 -64 92q0 41 30.5 81t74.5 40q37 0 69 -35q169 -163 332 -272l-8 -23zM23 23q39 8 85.5 35t73.5 63q54 71 64 239q8 110 8 244v105q0 247 -8 378q-9 147 -45 205q-38 58 -99 86q-46 25 -110 33l2 25q72 -4 368 -4q167 0 364 2t235 2
q121 0 192 -6q10 -63 18 -180t21 -214l-27 -4q-96 145 -194 221q-136 110 -301 133q-64 0 -97 -10q-24 -204 -24 -581v-31h96q100 0 137 4q72 6 131 51q66 49 99 131l26 -4q-10 -98 -10 -221q0 -148 2 -201l-26 -4q-31 67 -80 113q-58 55 -152 67q-65 9 -127 9q-69 0 -96 -4
v-27q0 -260 8 -379q6 -83 24.5 -128.5t55.5 -74.5q51 -43 147 -47q141 45 248 125q123 95 207 240l27 -6q-13 -68 -34 -209.5t-34 -196.5q-58 -4 -151 -4q-118 0 -348.5 2t-311.5 2q-210 0 -362 -4z" />
    <glyph glyph-name="Eacute" unicode="&#xc9;" horiz-adv-x="1302" 
d="M500 1565q155 102 329 272q35 35 70 35q46 0 76.5 -40t30.5 -81q0 -59 -64 -92q-80 -45 -346 -98l-88 -19zM23 23q39 8 85.5 35t73.5 63q54 71 64 239q8 110 8 244v105q0 247 -8 378q-9 147 -45 205q-38 58 -99 86q-46 25 -110 33l2 25q72 -4 368 -4q167 0 364 2t235 2
q121 0 192 -6q10 -63 18 -180t21 -214l-27 -4q-96 145 -194 221q-136 110 -301 133q-64 0 -97 -10q-24 -204 -24 -581v-31h96q100 0 137 4q72 6 131 51q66 49 99 131l26 -4q-10 -98 -10 -221q0 -148 2 -201l-26 -4q-31 67 -80 113q-58 55 -152 67q-65 9 -127 9q-69 0 -96 -4
v-27q0 -260 8 -379q6 -83 24.5 -128.5t55.5 -74.5q51 -43 147 -47q141 45 248 125q123 95 207 240l27 -6q-13 -68 -34 -209.5t-34 -196.5q-58 -4 -151 -4q-118 0 -348.5 2t-311.5 2q-210 0 -362 -4z" />
    <glyph glyph-name="Ecircumflex" unicode="&#xca;" horiz-adv-x="1302" 
d="M315 1563q46 38 93.5 81t112 104t81.5 77q39 35 70 35q14 0 27.5 -6t20.5 -11.5t21 -17.5q21 -19 82 -77t108 -101.5t95 -83.5l-12 -21q-197 56 -348 119q-154 -61 -338 -119zM23 23q39 8 85.5 35t73.5 63q54 71 64 239q8 110 8 244v105q0 247 -8 378q-9 147 -45 205
q-38 58 -99 86q-46 25 -110 33l2 25q72 -4 368 -4q167 0 364 2t235 2q121 0 192 -6q10 -63 18 -180t21 -214l-27 -4q-96 145 -194 221q-136 110 -301 133q-64 0 -97 -10q-24 -204 -24 -581v-31h96q100 0 137 4q72 6 131 51q66 49 99 131l26 -4q-10 -98 -10 -221
q0 -148 2 -201l-26 -4q-31 67 -80 113q-58 55 -152 67q-65 9 -127 9q-69 0 -96 -4v-27q0 -260 8 -379q6 -83 24.5 -128.5t55.5 -74.5q51 -43 147 -47q141 45 248 125q123 95 207 240l27 -6q-13 -68 -34 -209.5t-34 -196.5q-58 -4 -151 -4q-118 0 -348.5 2t-311.5 2
q-210 0 -362 -4z" />
    <glyph glyph-name="Edieresis" unicode="&#xcb;" horiz-adv-x="1302" 
d="M438 1573q-53 0 -82.5 33t-29.5 82q0 61 40 98t101 37q49 0 78.5 -33t29.5 -82q0 -59 -40 -97t-97 -38zM860 1573q-53 0 -82.5 33t-29.5 82q0 61 40 98t101 37q49 0 78.5 -33t29.5 -82q0 -59 -40 -97t-97 -38zM23 23q39 8 85.5 35t73.5 63q54 71 64 239q8 110 8 244v105
q0 247 -8 378q-9 147 -45 205q-38 58 -99 86q-46 25 -110 33l2 25q72 -4 368 -4q167 0 364 2t235 2q121 0 192 -6q10 -63 18 -180t21 -214l-27 -4q-96 145 -194 221q-136 110 -301 133q-64 0 -97 -10q-24 -204 -24 -581v-31h96q100 0 137 4q72 6 131 51q66 49 99 131l26 -4
q-10 -98 -10 -221q0 -148 2 -201l-26 -4q-31 67 -80 113q-58 55 -152 67q-65 9 -127 9q-69 0 -96 -4v-27q0 -260 8 -379q6 -83 24.5 -128.5t55.5 -74.5q51 -43 147 -47q141 45 248 125q123 95 207 240l27 -6q-13 -68 -34 -209.5t-34 -196.5q-58 -4 -151 -4q-118 0 -348.5 2
t-311.5 2q-210 0 -362 -4z" />
    <glyph glyph-name="Igrave" unicode="&#xcc;" horiz-adv-x="804" 
d="M492 1561q-267 54 -345 98q-63 32 -63 92q0 41 30 81t74 40q38 0 70 -35q169 -163 332 -272l-8 -23zM20 23q81 23 132 67q65 57 84 170q18 99 18 483q0 267 -9.5 383t-47.5 174q-25 38 -62.5 63t-63 33t-59.5 15l2 25q38 0 170.5 -3t198.5 -3q79 0 367 6l2 -25
q-63 -15 -107 -55.5t-65 -98.5q-14 -38 -20.5 -115t-7.5 -148t-1 -228q0 -284 8.5 -408t36.5 -184q37 -107 154 -151l-5 -25q-282 6 -350 6q-150 0 -372 -6z" />
    <glyph glyph-name="Iacute" unicode="&#xcd;" horiz-adv-x="804" 
d="M262 1565q158 104 330 272q35 35 70 35q46 0 76 -39.5t30 -81.5q0 -60 -63 -92q-80 -45 -347 -98l-88 -19zM20 23q81 23 132 67q65 57 84 170q18 99 18 483q0 267 -9.5 383t-47.5 174q-25 38 -62.5 63t-63 33t-59.5 15l2 25q38 0 170.5 -3t198.5 -3q79 0 367 6l2 -25
q-63 -15 -107 -55.5t-65 -98.5q-14 -38 -20.5 -115t-7.5 -148t-1 -228q0 -284 8.5 -408t36.5 -184q37 -107 154 -151l-5 -25q-282 6 -350 6q-150 0 -372 -6z" />
    <glyph glyph-name="Icircumflex" unicode="&#xce;" horiz-adv-x="804" 
d="M61 1563q46 38 93.5 81t112 104t81.5 77q39 35 70 35q14 0 27.5 -6t20.5 -11.5t21 -17.5q21 -19 82 -77t108 -101.5t95 -83.5l-12 -21q-197 56 -348 119q-154 -61 -338 -119zM20 23q81 23 132 67q65 57 84 170q18 99 18 483q0 267 -9.5 383t-47.5 174q-25 38 -62.5 63
t-63 33t-59.5 15l2 25q38 0 170.5 -3t198.5 -3q79 0 367 6l2 -25q-63 -15 -107 -55.5t-65 -98.5q-14 -38 -20.5 -115t-7.5 -148t-1 -228q0 -284 8.5 -408t36.5 -184q37 -107 154 -151l-5 -25q-282 6 -350 6q-150 0 -372 -6z" />
    <glyph glyph-name="Idieresis" unicode="&#xcf;" horiz-adv-x="804" 
d="M190 1573q-53 0 -82.5 33t-29.5 82q0 61 40 98t101 37q50 0 79.5 -33t29.5 -82q0 -59 -40.5 -97t-97.5 -38zM612 1573q-53 0 -82.5 33t-29.5 82q0 61 40 98t101 37q50 0 79.5 -33t29.5 -82q0 -59 -40.5 -97t-97.5 -38zM20 23q81 23 132 67q65 57 84 170q18 99 18 483
q0 267 -9.5 383t-47.5 174q-25 38 -62.5 63t-63 33t-59.5 15l2 25q38 0 170.5 -3t198.5 -3q79 0 367 6l2 -25q-63 -15 -107 -55.5t-65 -98.5q-14 -38 -20.5 -115t-7.5 -148t-1 -228q0 -284 8.5 -408t36.5 -184q37 -107 154 -151l-5 -25q-282 6 -350 6q-150 0 -372 -6z" />
    <glyph glyph-name="Eth" unicode="&#xd0;" horiz-adv-x="1667" 
d="M809 -4q-63 0 -208 4t-234 4q-62 0 -344 -6l-3 25q65 13 117 51q34 28 54.5 61.5t37.5 93.5q25 113 25 445v14q-45 0 -121 -1t-102 -1v62q95 -3 223 -3q0 289 -14 408q-13 123 -70 180q-61 57 -178 78l2 25q106 -6 354 -6q60 0 215 3t215 3q334 0 541 -164
q124 -99 180.5 -236t56.5 -282q0 -205 -77.5 -355t-202.5 -243q-103 -78 -224 -119t-243 -41zM782 49q197 46 318 219.5t121 446.5q0 269 -142 448q-68 89 -171 146t-214 77q-62 0 -114 -12q-12 -47 -21 -248q-8 -169 -8 -381q198 0 330 3v-62q-74 2 -330 2v-16
q0 -396 27 -492q23 -74 88 -104q50 -27 116 -27z" />
    <glyph glyph-name="Ntilde" unicode="&#xd1;" horiz-adv-x="1658" 
d="M473 1577q29 117 86 187.5t131 70.5q73 0 195 -51q114 -49 176 -49q95 0 145 102l25 -10q-37 -121 -98 -191.5t-140 -70.5q-62 0 -184 49q-115 51 -178 51q-86 0 -133 -96zM6 23q71 29 127 92q96 108 115 315q14 172 14 549q0 230 -127 340q-83 72 -186 92l2 25
q136 -4 242 -4q47 0 115 2t83 2q34 0 58 -6q133 -158 295.5 -340.5t277.5 -306.5t311 -334q8 93 8 223q0 116 -8 260q-6 92 -29 176t-55 139q-75 121 -217 164l2 25q36 0 155.5 -3t170.5 -3q116 0 305 6l2 -25q-84 -27 -151 -115q-46 -62 -70 -147q-24 -90 -31 -217
q-8 -88 -8 -342v-293q0 -165 10 -328l-41 -6q-591 674 -1032 1135h-8q-8 -104 -8 -234q0 -142 6 -321q6 -132 25 -220t40 -126.5t56 -75.5q73 -73 180 -98l-2 -25q-13 0 -143.5 3t-196.5 3q-55 0 -160 -3t-125 -3z" />
    <glyph glyph-name="Ograve" unicode="&#xd2;" horiz-adv-x="1728" 
d="M969 1561q-265 54 -344 98q-64 33 -64 92q0 41 30.5 81t74.5 40q37 0 69 -35q169 -163 332 -272l-8 -23zM877 -23q-146 0 -280.5 48t-240.5 137q-245 202 -245 538q0 213 91.5 377.5t256.5 263.5q189 115 430 115q289 0 493 -178q117 -102 175.5 -242.5t58.5 -304.5
q0 -216 -97.5 -381t-279.5 -270q-76 -44 -172.5 -73.5t-189.5 -29.5zM905 31q168 71 271.5 255t103.5 416q0 275 -120.5 462.5t-323.5 242.5q-173 -60 -281.5 -240.5t-108.5 -425.5q0 -133 38 -254t102.5 -211t146.5 -153t172 -92z" />
    <glyph glyph-name="Oacute" unicode="&#xd3;" horiz-adv-x="1728" 
d="M723 1565q158 104 330 272q35 35 69 35q46 0 76.5 -40t30.5 -81q0 -59 -64 -92q-80 -45 -346 -98l-88 -19zM877 -23q-146 0 -280.5 48t-240.5 137q-245 202 -245 538q0 213 91.5 377.5t256.5 263.5q189 115 430 115q289 0 493 -178q117 -102 175.5 -242.5t58.5 -304.5
q0 -216 -97.5 -381t-279.5 -270q-76 -44 -172.5 -73.5t-189.5 -29.5zM905 31q168 71 271.5 255t103.5 416q0 275 -120.5 462.5t-323.5 242.5q-173 -60 -281.5 -240.5t-108.5 -425.5q0 -133 38 -254t102.5 -211t146.5 -153t172 -92z" />
    <glyph glyph-name="Ocircumflex" unicode="&#xd4;" horiz-adv-x="1728" 
d="M524 1563q46 38 93.5 81t112 104t81.5 77q39 35 70 35q14 0 27.5 -6t20.5 -11.5t21 -17.5q21 -19 82 -77t108 -101.5t95 -83.5l-12 -21q-200 57 -349 119q-158 -63 -337 -119zM877 -23q-146 0 -280.5 48t-240.5 137q-245 202 -245 538q0 213 91.5 377.5t256.5 263.5
q189 115 430 115q289 0 493 -178q117 -102 175.5 -242.5t58.5 -304.5q0 -216 -97.5 -381t-279.5 -270q-76 -44 -172.5 -73.5t-189.5 -29.5zM905 31q168 71 271.5 255t103.5 416q0 275 -120.5 462.5t-323.5 242.5q-173 -60 -281.5 -240.5t-108.5 -425.5q0 -133 38 -254
t102.5 -211t146.5 -153t172 -92z" />
    <glyph glyph-name="Otilde" unicode="&#xd5;" horiz-adv-x="1728" 
d="M516 1577q29 117 86 187.5t131 70.5q73 0 195 -51q114 -49 176 -49q95 0 145 102l25 -10q-37 -121 -98 -191.5t-140 -70.5q-62 0 -184 49q-115 51 -178 51q-86 0 -133 -96zM877 -23q-146 0 -280.5 48t-240.5 137q-245 202 -245 538q0 213 91.5 377.5t256.5 263.5
q189 115 430 115q289 0 493 -178q117 -102 175.5 -242.5t58.5 -304.5q0 -216 -97.5 -381t-279.5 -270q-76 -44 -172.5 -73.5t-189.5 -29.5zM905 31q168 71 271.5 255t103.5 416q0 275 -120.5 462.5t-323.5 242.5q-173 -60 -281.5 -240.5t-108.5 -425.5q0 -133 38 -254
t102.5 -211t146.5 -153t172 -92z" />
    <glyph glyph-name="Odieresis" unicode="&#xd6;" horiz-adv-x="1728" 
d="M653 1573q-53 0 -82.5 33t-29.5 82q0 61 40 98t101 37q50 0 79.5 -33t29.5 -82q0 -59 -40.5 -97t-97.5 -38zM1075 1573q-53 0 -82.5 33t-29.5 82q0 61 40 98t101 37q49 0 78.5 -33t29.5 -82q0 -59 -40 -97t-97 -38zM877 -23q-146 0 -280.5 48t-240.5 137
q-245 202 -245 538q0 213 91.5 377.5t256.5 263.5q189 115 430 115q289 0 493 -178q117 -102 175.5 -242.5t58.5 -304.5q0 -216 -97.5 -381t-279.5 -270q-76 -44 -172.5 -73.5t-189.5 -29.5zM905 31q168 71 271.5 255t103.5 416q0 275 -120.5 462.5t-323.5 242.5
q-173 -60 -281.5 -240.5t-108.5 -425.5q0 -133 38 -254t102.5 -211t146.5 -153t172 -92z" />
    <glyph glyph-name="multiply" unicode="&#xd7;" horiz-adv-x="1269" 
d="M166 100q202 193 426 420q-348 348 -426 424l45 47q39 -42 116.5 -120.5t172 -173.5t133.5 -134q334 334 424 428l45 -47q-40 -38 -424 -422q321 -326 424 -422l-45 -47q-139 146 -424 426q-29 -29 -202.5 -203t-219.5 -223z" />
    <glyph glyph-name="Oslash" unicode="&#xd8;" horiz-adv-x="1728" 
d="M877 -23q-132 0 -257 40t-223 114q-118 -122 -147 -154l-55 54q41 39 147 145q-231 205 -231 524q0 213 91.5 377.5t256.5 263.5q189 115 430 115q297 0 502 -188q58 61 149 159l55 -51l-157 -157q178 -190 178 -488q0 -216 -97.5 -381t-279.5 -270q-76 -44 -172.5 -73.5
t-189.5 -29.5zM532 371q248 255 392 407q139 145 282 297q-57 129 -151.5 213.5t-218.5 118.5q-173 -60 -281.5 -240.5t-108.5 -425.5q0 -201 86 -370zM905 31q168 71 271.5 255t103.5 416q0 165 -49 304q-59 -61 -164.5 -173t-148.5 -157q-39 -41 -111.5 -116.5t-131 -137
t-108.5 -115.5q61 -102 149 -172t189 -104z" />
    <glyph glyph-name="Ugrave" unicode="&#xd9;" horiz-adv-x="1656" 
d="M958 1561q-265 54 -344 98q-63 32 -63 92q0 41 30 81t74 40q38 0 70 -35q169 -163 332 -272l-8 -23zM840 -31q-286 0 -439 135q-159 134 -159 390q0 25 2 126.5t2 165.5q0 275 -10 336q-16 139 -74 197q-37 38 -70.5 57.5t-81.5 34.5l2 25q294 -6 367 -6q99 0 381 6
l4 -25q-92 -31 -137 -82q-61 -67 -74 -174q-10 -95 -10 -313v-144q0 -149 6 -215q15 -169 113 -256q102 -88 270 -88q166 0 274 92q107 90 129 263q11 87 11 204q0 142 -17 285q-18 178 -102 297q-35 49 -85 83t-93 48l2 25q21 0 139.5 -3t177.5 -3q128 0 287 6l4 -27
q-58 -27 -103 -74q-63 -66 -100 -194q-43 -162 -43 -436v-50q0 -99 -6 -176q-16 -214 -121 -334q-146 -176 -446 -176z" />
    <glyph glyph-name="Uacute" unicode="&#xda;" horiz-adv-x="1656" 
d="M743 1565q158 104 330 272q35 35 70 35q46 0 76 -39.5t30 -81.5q0 -60 -63 -92q-80 -45 -346 -98l-88 -19zM840 -31q-286 0 -439 135q-159 134 -159 390q0 25 2 126.5t2 165.5q0 275 -10 336q-16 139 -74 197q-37 38 -70.5 57.5t-81.5 34.5l2 25q294 -6 367 -6
q99 0 381 6l4 -25q-92 -31 -137 -82q-61 -67 -74 -174q-10 -95 -10 -313v-144q0 -149 6 -215q15 -169 113 -256q102 -88 270 -88q166 0 274 92q107 90 129 263q11 87 11 204q0 142 -17 285q-18 178 -102 297q-35 49 -85 83t-93 48l2 25q21 0 139.5 -3t177.5 -3q128 0 287 6
l4 -27q-58 -27 -103 -74q-63 -66 -100 -194q-43 -162 -43 -436v-50q0 -99 -6 -176q-16 -214 -121 -334q-146 -176 -446 -176z" />
    <glyph glyph-name="Ucircumflex" unicode="&#xdb;" horiz-adv-x="1656" 
d="M524 1563q46 38 93.5 81t112 104t81.5 77q39 35 70 35q14 0 27.5 -6t20.5 -11.5t21 -17.5q21 -19 82 -77t108 -101.5t95 -83.5l-12 -21q-200 57 -349 119q-158 -63 -337 -119zM840 -31q-286 0 -439 135q-159 134 -159 390q0 25 2 126.5t2 165.5q0 275 -10 336
q-16 139 -74 197q-37 38 -70.5 57.5t-81.5 34.5l2 25q294 -6 367 -6q99 0 381 6l4 -25q-92 -31 -137 -82q-61 -67 -74 -174q-10 -95 -10 -313v-144q0 -149 6 -215q15 -169 113 -256q102 -88 270 -88q166 0 274 92q107 90 129 263q11 87 11 204q0 142 -17 285
q-18 178 -102 297q-35 49 -85 83t-93 48l2 25q21 0 139.5 -3t177.5 -3q128 0 287 6l4 -27q-58 -27 -103 -74q-63 -66 -100 -194q-43 -162 -43 -436v-50q0 -99 -6 -176q-16 -214 -121 -334q-146 -176 -446 -176z" />
    <glyph glyph-name="Udieresis" unicode="&#xdc;" horiz-adv-x="1656" 
d="M653 1573q-53 0 -82.5 33t-29.5 82q0 61 40 98t101 37q50 0 79.5 -33t29.5 -82q0 -59 -40.5 -97t-97.5 -38zM1075 1573q-53 0 -82.5 33t-29.5 82q0 61 40 98t101 37q49 0 78.5 -33t29.5 -82q0 -59 -40 -97t-97 -38zM840 -31q-286 0 -439 135q-159 134 -159 390
q0 25 2 126.5t2 165.5q0 275 -10 336q-16 139 -74 197q-37 38 -70.5 57.5t-81.5 34.5l2 25q294 -6 367 -6q99 0 381 6l4 -25q-92 -31 -137 -82q-61 -67 -74 -174q-10 -95 -10 -313v-144q0 -149 6 -215q15 -169 113 -256q102 -88 270 -88q166 0 274 92q107 90 129 263
q11 87 11 204q0 142 -17 285q-18 178 -102 297q-35 49 -85 83t-93 48l2 25q21 0 139.5 -3t177.5 -3q128 0 287 6l4 -27q-58 -27 -103 -74q-63 -66 -100 -194q-43 -162 -43 -436v-50q0 -99 -6 -176q-16 -214 -121 -334q-146 -176 -446 -176z" />
    <glyph glyph-name="Yacute" unicode="&#xdd;" horiz-adv-x="1357" 
d="M561 1565q158 104 330 272q35 35 70 35q46 0 76 -39.5t30 -81.5q0 -60 -63 -92q-80 -45 -347 -98l-88 -19zM297 23q75 23 129 67q66 53 86 170q16 88 18 289q-52 195 -137 369q-92 192 -203 317q-60 69 -122 109t-95 40q-26 0 -34 -2l-7 23q106 49 240 49
q107 0 188.5 -33t151.5 -121q96 -122 174 -323q63 -156 90 -320h6l13 70q59 376 170 553q113 176 286 176q113 0 197 -65l-8 -23q-223 -67 -385 -305q-158 -233 -228 -502q3 -201 14.5 -284t43.5 -142q45 -79 172 -112l-2 -25q-264 6 -377 6q-157 0 -379 -6z" />
    <glyph glyph-name="Thorn" unicode="&#xde;" horiz-adv-x="1378" 
d="M23 23q89 22 143 79q63 63 78 230q10 105 10 356v55q0 267 -9.5 383t-47.5 174q-25 38 -62.5 63t-63 33t-59.5 15l2 25q38 0 170.5 -3t198.5 -3q79 0 367 6l2 -25q-126 -29 -174 -154q-18 -47 -21 -127q123 5 148 5q290 0 434 -84q153 -90 153 -263q0 -100 -49.5 -181.5
t-138.5 -135.5q-80 -48 -188.5 -78.5t-213.5 -40.5l-6 25q126 55 191 131q80 100 80 229q0 152 -97 246q-83 81 -221 102q-49 0 -94 -10q-4 -63 -4 -305v-106q0 -227 8 -353q10 -120 62 -184q73 -87 225 -100l-2 -29q-47 0 -222.5 3t-232.5 3q-175 0 -364 -6z" />
    <glyph glyph-name="germandbls" unicode="&#xdf;" horiz-adv-x="1325" 
d="M895 -20q-167 0 -244 36q-8 26 -15 60.5t-10.5 60.5t-10 71t-9.5 68l23 5q33 -80 112 -155t156 -103q44 13 73 46.5t29 84.5q0 29 -11.5 54.5t-38 52t-46 42.5t-59.5 45q-39 29 -57 43t-50 44.5t-47 55t-28 61.5t-13 77q0 49 14.5 91.5t36.5 73t57 58t67.5 46t76.5 38.5
q62 94 62 256q0 150 -70 254q-69 102 -195 133q-56 -14 -104.5 -55.5t-79.5 -108.5q-37 -80 -50 -204.5t-13 -354.5v-324q0 -207 8 -317q10 -162 80 -192l-2 -25q-198 6 -267 6q-100 0 -241 -6l-2 22q38 11 73 41q53 47 64 177q4 70 4 276q0 87 -4 279q-77 0 -170 -7l-4 25
q99 54 172 133q0 22 -2 69t-2 72q0 127 26.5 214.5t91.5 160.5q151 160 449 160q199 0 338 -92q154 -102 154 -275q0 -95 -57 -173t-159 -152q-56 -40 -79 -81t-23 -99q0 -22 7.5 -43t16.5 -35.5t29.5 -33.5t34 -29.5t42 -32t42.5 -31.5q41 -31 66.5 -53.5t55 -57.5t44 -76
t14.5 -88q0 -128 -99.5 -208t-256.5 -80z" />
    <glyph glyph-name="agrave" unicode="&#xe0;" horiz-adv-x="1042" 
d="M586 1077q-236 117 -299 180q-39 39 -39 74q0 46 34.5 85.5t79.5 39.5q43 0 80 -55q108 -180 248 -350l-14 -19zM330 -23q-113 0 -184.5 68t-71.5 172q0 74 24 98q34 17 107.5 37.5t205 53.5t197.5 51v47q0 78 -14 143q-31 146 -178 146q-26 0 -66 -9q1 -6 11 -63t10 -84
q0 -52 -15 -82q-27 -49 -92 -49q-58 0 -100.5 31t-42.5 77q0 42 46.5 86t145.5 99q35 28 99 71q65 42 119 62t116 20q134 0 197 -98q37 -57 43 -149q4 -33 4 -97q0 -39 -2 -112.5t-2 -102.5q0 -125 28 -180q11 -25 33.5 -38t44.5 -13q25 0 35 2l6 -19q-72 -46 -149 -102
q-86 -63 -140 -63q-32 0 -69 41.5t-55 103.5q-74 -68 -142.5 -108t-148.5 -40zM508 127q63 0 104 35q-8 33 -8 90q0 18 2 77t2 87l-47 -10q-108 -25 -152 -56.5t-44 -83.5q0 -64 42 -101.5t101 -37.5z" />
    <glyph glyph-name="aacute" unicode="&#xe1;" horiz-adv-x="1042" 
d="M367 1051q122 144 249 350q34 55 80 55q44 0 78.5 -39.5t34.5 -85.5q0 -38 -39 -74q-71 -68 -297 -180l-92 -45zM330 -23q-113 0 -184.5 68t-71.5 172q0 74 24 98q34 17 107.5 37.5t205 53.5t197.5 51v47q0 78 -14 143q-31 146 -178 146q-26 0 -66 -9q1 -6 11 -63t10 -84
q0 -52 -15 -82q-27 -49 -92 -49q-58 0 -100.5 31t-42.5 77q0 42 46.5 86t145.5 99q35 28 99 71q65 42 119 62t116 20q134 0 197 -98q37 -57 43 -149q4 -33 4 -97q0 -39 -2 -112.5t-2 -102.5q0 -125 28 -180q11 -25 33.5 -38t44.5 -13q25 0 35 2l6 -19q-72 -46 -149 -102
q-86 -63 -140 -63q-32 0 -69 41.5t-55 103.5q-74 -68 -142.5 -108t-148.5 -40zM508 127q63 0 104 35q-8 33 -8 90q0 18 2 77t2 87l-47 -10q-108 -25 -152 -56.5t-44 -83.5q0 -64 42 -101.5t101 -37.5z" />
    <glyph glyph-name="acircumflex" unicode="&#xe2;" horiz-adv-x="1042" 
d="M197 1051q95 108 264 350q19 27 34 39t37 12q21 0 36 -12t34 -39q124 -181 264 -350l-14 -19q-111 56 -326 195q-231 -148 -315 -195zM330 -23q-113 0 -184.5 68t-71.5 172q0 74 24 98q34 17 107.5 37.5t205 53.5t197.5 51v47q0 78 -14 143q-31 146 -178 146
q-26 0 -66 -9q1 -6 11 -63t10 -84q0 -52 -15 -82q-27 -49 -92 -49q-58 0 -100.5 31t-42.5 77q0 42 46.5 86t145.5 99q35 28 99 71q65 42 119 62t116 20q134 0 197 -98q37 -57 43 -149q4 -33 4 -97q0 -39 -2 -112.5t-2 -102.5q0 -125 28 -180q11 -25 33.5 -38t44.5 -13
q25 0 35 2l6 -19q-72 -46 -149 -102q-86 -63 -140 -63q-32 0 -69 41.5t-55 103.5q-74 -68 -142.5 -108t-148.5 -40zM508 127q63 0 104 35q-8 33 -8 90q0 18 2 77t2 87l-47 -10q-108 -25 -152 -56.5t-44 -83.5q0 -64 42 -101.5t101 -37.5z" />
    <glyph glyph-name="atilde" unicode="&#xe3;" horiz-adv-x="1042" 
d="M186 1116q29 117 86 187.5t131 70.5q37 0 70 -10.5t88 -36.5q116 -53 168 -53q94 0 141 102l25 -10q-37 -122 -98 -192t-142 -70q-12 0 -23.5 1t-24.5 4.5t-21 6t-23.5 9.5t-22 10t-26.5 13t-27 13q-91 43 -147 43q-85 0 -129 -96zM330 -23q-113 0 -184.5 68t-71.5 172
q0 74 24 98q34 17 107.5 37.5t205 53.5t197.5 51v47q0 78 -14 143q-31 146 -178 146q-26 0 -66 -9q1 -6 11 -63t10 -84q0 -52 -15 -82q-27 -49 -92 -49q-58 0 -100.5 31t-42.5 77q0 42 46.5 86t145.5 99q35 28 99 71q65 42 119 62t116 20q134 0 197 -98q37 -57 43 -149
q4 -33 4 -97q0 -39 -2 -112.5t-2 -102.5q0 -125 28 -180q11 -25 33.5 -38t44.5 -13q25 0 35 2l6 -19q-72 -46 -149 -102q-86 -63 -140 -63q-32 0 -69 41.5t-55 103.5q-74 -68 -142.5 -108t-148.5 -40zM508 127q63 0 104 35q-8 33 -8 90q0 18 2 77t2 87l-47 -10
q-108 -25 -152 -56.5t-44 -83.5q0 -64 42 -101.5t101 -37.5z" />
    <glyph glyph-name="adieresis" unicode="&#xe4;" horiz-adv-x="1042" 
d="M309 1122q-53 0 -82.5 32.5t-29.5 82.5q0 61 40 98t101 37q49 0 78.5 -33t29.5 -82q0 -60 -40 -97.5t-97 -37.5zM709 1122q-53 0 -83 32.5t-30 82.5q0 60 39.5 97.5t99.5 37.5q51 0 81 -33t30 -82q0 -60 -40 -97.5t-97 -37.5zM330 -23q-113 0 -184.5 68t-71.5 172
q0 74 24 98q34 17 107.5 37.5t205 53.5t197.5 51v47q0 78 -14 143q-31 146 -178 146q-26 0 -66 -9q1 -6 11 -63t10 -84q0 -52 -15 -82q-27 -49 -92 -49q-58 0 -100.5 31t-42.5 77q0 42 46.5 86t145.5 99q35 28 99 71q65 42 119 62t116 20q134 0 197 -98q37 -57 43 -149
q4 -33 4 -97q0 -39 -2 -112.5t-2 -102.5q0 -125 28 -180q11 -25 33.5 -38t44.5 -13q25 0 35 2l6 -19q-72 -46 -149 -102q-86 -63 -140 -63q-32 0 -69 41.5t-55 103.5q-74 -68 -142.5 -108t-148.5 -40zM508 127q63 0 104 35q-8 33 -8 90q0 18 2 77t2 87l-47 -10
q-108 -25 -152 -56.5t-44 -83.5q0 -64 42 -101.5t101 -37.5z" />
    <glyph glyph-name="aring" unicode="&#xe5;" horiz-adv-x="1042" 
d="M528 1032q-87 0 -153 51q-72 59 -72 148q0 110 92 172q59 43 133 43q83 0 146 -51q71 -58 71 -154q0 -105 -98 -170q-56 -39 -119 -39zM543 1071q41 19 65.5 63t24.5 97q0 69 -34 115.5t-89 60.5q-45 -22 -70.5 -65t-25.5 -97q0 -68 37 -115.5t92 -58.5zM330 -23
q-113 0 -184.5 68t-71.5 172q0 74 24 98q34 17 107.5 37.5t205 53.5t197.5 51v47q0 78 -14 143q-31 146 -178 146q-26 0 -66 -9q1 -6 11 -63t10 -84q0 -52 -15 -82q-27 -49 -92 -49q-58 0 -100.5 31t-42.5 77q0 42 46.5 86t145.5 99q35 28 99 71q65 42 119 62t116 20
q134 0 197 -98q37 -57 43 -149q4 -33 4 -97q0 -39 -2 -112.5t-2 -102.5q0 -125 28 -180q11 -25 33.5 -38t44.5 -13q25 0 35 2l6 -19q-72 -46 -149 -102q-86 -63 -140 -63q-32 0 -69 41.5t-55 103.5q-74 -68 -142.5 -108t-148.5 -40zM508 127q63 0 104 35q-8 33 -8 90
q0 18 2 77t2 87l-47 -10q-108 -25 -152 -56.5t-44 -83.5q0 -64 42 -101.5t101 -37.5z" />
    <glyph glyph-name="ae" unicode="&#xe6;" horiz-adv-x="1523" 
d="M330 -20q-113 0 -184.5 67t-71.5 170q0 74 24 98q34 17 107.5 37.5t205 53.5t197.5 51v47q0 78 -14 143q-31 146 -178 146q-26 0 -66 -9q1 -6 11 -63t10 -84q0 -47 -17 -78q-24 -49 -88 -49q-58 0 -101.5 29t-43.5 75q0 42 46.5 86t145.5 99q35 28 99 71q127 82 231 82
q96 0 154 -86q101 88 235 88q83 0 154.5 -31t120.5 -83t81.5 -115t47.5 -133q6 -18 6 -35q0 -12 -10 -22l-547 -13v-30q0 -169 73.5 -265t202.5 -96q148 0 275 141l22 -16q-186 -276 -428 -276q-146 0 -250 71q-64 46 -102 101q-112 -85 -166 -115q-100 -57 -182 -57z
M887 563q148 0 266 15q-7 130 -41.5 227.5t-89.5 105.5q-123 -64 -135 -348zM508 127q84 0 151 53q-48 88 -51 236l-47 -10q-108 -25 -152 -56.5t-44 -83.5q0 -64 42 -101.5t101 -37.5z" />
    <glyph glyph-name="ccedilla" unicode="&#xe7;" horiz-adv-x="1024" 
d="M393 -453q133 49 133 150q0 67 -52 101.5t-132 37.5l-6 21l225 123q-203 -6 -338 114q-141 132 -141 369q0 132 58.5 243.5t168 179.5t248.5 68q142 0 240 -39q149 -60 149 -145q0 -58 -43 -105t-94 -47t-83.5 35.5t-78.5 130.5q-57 122 -108 129q-70 -33 -105 -143
t-35 -276q0 -171 84 -271q76 -88 205 -88q158 0 268 150l27 -17q-46 -84 -127.5 -160.5t-181.5 -107.5l-105 -59q142 -49 142 -170q0 -92 -85.5 -159t-224.5 -87z" />
    <glyph glyph-name="egrave" unicode="&#xe8;" horiz-adv-x="1046" 
d="M578 1077q-236 117 -299 180q-39 39 -39 74q0 46 34.5 85.5t79.5 39.5q43 0 80 -55q108 -180 248 -350l-14 -19zM395 489q0 -172 80.5 -265t210.5 -93q144 0 272 141l23 -16q-184 -276 -428 -276q-169 0 -281 77q-192 127 -192 414q0 126 58 236t166.5 178.5t242.5 68.5
q88 0 161.5 -31t122.5 -84.5t80.5 -115t46.5 -131.5q7 -21 7 -35q0 -11 -11 -22l-559 -13v-33zM535 911q-126 -66 -138 -348q203 5 279 17q-5 129 -42 226t-99 105z" />
    <glyph glyph-name="eacute" unicode="&#xe9;" horiz-adv-x="1046" 
d="M360 1051q126 148 250 350q34 55 80 55q44 0 78.5 -39.5t34.5 -85.5q0 -38 -39 -74q-71 -68 -297 -180l-92 -45zM395 489q0 -172 80.5 -265t210.5 -93q144 0 272 141l23 -16q-184 -276 -428 -276q-169 0 -281 77q-192 127 -192 414q0 126 58 236t166.5 178.5t242.5 68.5
q88 0 161.5 -31t122.5 -84.5t80.5 -115t46.5 -131.5q7 -21 7 -35q0 -11 -11 -22l-559 -13v-33zM535 911q-126 -66 -138 -348q203 5 279 17q-5 129 -42 226t-99 105z" />
    <glyph glyph-name="ecircumflex" unicode="&#xea;" horiz-adv-x="1046" 
d="M197 1051q95 108 264 350q19 27 34 39t37 12q21 0 36 -12t34 -39q124 -181 264 -350l-14 -19q-111 56 -326 195q-231 -148 -315 -195zM395 489q0 -172 80.5 -265t210.5 -93q144 0 272 141l23 -16q-184 -276 -428 -276q-169 0 -281 77q-192 127 -192 414q0 126 58 236
t166.5 178.5t242.5 68.5q88 0 161.5 -31t122.5 -84.5t80.5 -115t46.5 -131.5q7 -21 7 -35q0 -11 -11 -22l-559 -13v-33zM535 911q-126 -66 -138 -348q203 5 279 17q-5 129 -42 226t-99 105z" />
    <glyph glyph-name="edieresis" unicode="&#xeb;" horiz-adv-x="1046" 
d="M317 1122q-53 0 -82.5 32.5t-29.5 82.5q0 61 40 98t101 37q50 0 79.5 -33t29.5 -82q0 -60 -40.5 -97.5t-97.5 -37.5zM717 1122q-53 0 -83 32.5t-30 82.5q0 60 39.5 97.5t99.5 37.5q51 0 81 -33t30 -82q0 -60 -40 -97.5t-97 -37.5zM395 489q0 -172 80.5 -265t210.5 -93
q144 0 272 141l23 -16q-184 -276 -428 -276q-169 0 -281 77q-192 127 -192 414q0 126 58 236t166.5 178.5t242.5 68.5q88 0 161.5 -31t122.5 -84.5t80.5 -115t46.5 -131.5q7 -21 7 -35q0 -11 -11 -22l-559 -13v-33zM535 911q-126 -66 -138 -348q203 5 279 17q-5 129 -42 226
t-99 105z" />
    <glyph glyph-name="igrave" unicode="&#xec;" horiz-adv-x="595" 
d="M365 1077q-236 117 -299 180q-39 39 -39 74q0 46 34.5 85.5t79.5 39.5q43 0 80 -55q108 -180 248 -350l-14 -19zM16 20q72 23 97 72q47 83 47 311q0 239 -31 306q-23 61 -76 61q-19 0 -39 -4l-6 22q147 67 201 97q63 39 123 68.5t82 29.5q5 0 11 -5t7 -13q8 -47 8 -152
q0 -21 -2 -130t-2 -173v-119q0 -183 37 -264q33 -85 115 -107l-2 -22q-204 6 -295 6q-108 0 -273 -6z" />
    <glyph glyph-name="iacute" unicode="&#xed;" horiz-adv-x="595" 
d="M121 1051q126 148 250 350q34 55 80 55q44 0 78 -39.5t34 -85.5q0 -38 -39 -74q-71 -68 -297 -180l-92 -45zM16 20q72 23 97 72q47 83 47 311q0 239 -31 306q-23 61 -76 61q-19 0 -39 -4l-6 22q147 67 201 97q63 39 123 68.5t82 29.5q5 0 11 -5t7 -13q8 -47 8 -152
q0 -21 -2 -130t-2 -173v-119q0 -183 37 -264q33 -85 115 -107l-2 -22q-204 6 -295 6q-108 0 -273 -6z" />
    <glyph glyph-name="icircumflex" unicode="&#xee;" horiz-adv-x="595" 
d="M-43 1051q95 108 264 350q19 27 34.5 39t37.5 12q20 0 35 -12t34 -39q119 -174 265 -350l-15 -19q-106 54 -325 195q-225 -144 -316 -195zM16 20q72 23 97 72q47 83 47 311q0 239 -31 306q-23 61 -76 61q-19 0 -39 -4l-6 22q147 67 201 97q63 39 123 68.5t82 29.5
q5 0 11 -5t7 -13q8 -47 8 -152q0 -21 -2 -130t-2 -173v-119q0 -183 37 -264q33 -85 115 -107l-2 -22q-204 6 -295 6q-108 0 -273 -6z" />
    <glyph glyph-name="idieresis" unicode="&#xef;" horiz-adv-x="595" 
d="M84 1122q-53 0 -83 32.5t-30 82.5q0 60 40.5 97.5t101.5 37.5q49 0 78.5 -33t29.5 -82q0 -60 -40 -97.5t-97 -37.5zM483 1122q-53 0 -82.5 32.5t-29.5 82.5q0 60 39.5 97.5t99.5 37.5q51 0 81 -33t30 -82q0 -60 -40.5 -97.5t-97.5 -37.5zM16 20q72 23 97 72q47 83 47 311
q0 239 -31 306q-23 61 -76 61q-19 0 -39 -4l-6 22q147 67 201 97q63 39 123 68.5t82 29.5q5 0 11 -5t7 -13q8 -47 8 -152q0 -21 -2 -130t-2 -173v-119q0 -183 37 -264q33 -85 115 -107l-2 -22q-204 6 -295 6q-108 0 -273 -6z" />
    <glyph glyph-name="eth" unicode="&#xf0;" horiz-adv-x="1198" 
d="M600 -20q-96 0 -191 32t-165 92q-160 133 -160 349q0 226 164 370q70 62 154 95.5t159 33.5q83 0 154 -41q-53 160 -152 338l-221 -131l-29 51q62 33 226 123q-97 162 -220 310l19 16q185 -110 330 -252q65 37 229 137l29 -51q-143 -79 -219 -123q114 -114 186 -215
q221 -304 221 -610q0 -244 -164 -391q-73 -64 -165 -98.5t-185 -34.5zM629 23q61 19 106 116q58 122 58 316q0 179 -41 323q-25 52 -75 93t-104 44q-57 -23 -98 -90q-76 -122 -76 -333q0 -198 84 -342q60 -101 146 -127z" />
    <glyph glyph-name="ntilde" unicode="&#xf1;" horiz-adv-x="1202" 
d="M252 1116q29 117 86 187.5t131 70.5q37 0 70 -10.5t88 -36.5q116 -53 168 -53q94 0 141 102l25 -10q-37 -122 -98 -192t-142 -70q-12 0 -23.5 1t-24.5 4.5t-21 6t-23.5 9.5t-22 10t-26.5 13t-27 13q-91 43 -147 43q-86 0 -130 -96zM18 20q79 29 101 84q26 55 35 154
q4 94 4 186q0 183 -27 263q-9 29 -31 46t-51 17q-17 0 -33 -4l-6 22q136 62 223 111q49 31 102.5 57.5t76.5 26.5q7 0 13.5 -4t6.5 -10q8 -49 8 -168v-31q118 89 202.5 135.5t162.5 46.5q204 0 231 -211q9 -58 13 -249q4 -184 14 -263q10 -92 39 -137q33 -54 102 -72l-2 -22
q-42 0 -136 3t-148 3q-77 0 -281 -6l-2 22q40 21 65 47.5t39 73.5q25 84 25 281q0 169 -23 254q-32 108 -155 108q-69 0 -146 -57v-225q0 -248 23 -342q32 -116 123 -140l-2 -22q-20 0 -133 3t-164 3q-59 0 -161.5 -3t-105.5 -3z" />
    <glyph glyph-name="ograve" unicode="&#xf2;" horiz-adv-x="1198" 
d="M649 1077q-236 117 -299 180q-39 39 -39 74q0 45 35 85t80 40q43 0 80 -55q108 -180 248 -350l-15 -19zM84 457q0 135 63.5 243.5t174.5 176.5q59 36 139 56.5t155 20.5q93 0 183 -32.5t157 -90.5q158 -136 158 -362q0 -129 -68 -240.5t-186 -179.5q-123 -69 -252 -69
q-101 0 -195.5 31t-164.5 91q-164 135 -164 355zM793 430q0 195 -62.5 332t-157.5 149q-83 -24 -127.5 -134.5t-44.5 -264.5q0 -191 62 -324t166 -165q73 18 118.5 135t45.5 272z" />
    <glyph glyph-name="oacute" unicode="&#xf3;" horiz-adv-x="1198" 
d="M446 1051q126 148 250 350q34 55 80 55q44 0 78.5 -39.5t34.5 -85.5q0 -38 -39 -74q-71 -68 -297 -180l-92 -45zM84 457q0 135 63.5 243.5t174.5 176.5q59 36 139 56.5t155 20.5q93 0 183 -32.5t157 -90.5q158 -136 158 -362q0 -129 -68 -240.5t-186 -179.5
q-123 -69 -252 -69q-101 0 -195.5 31t-164.5 91q-164 135 -164 355zM793 430q0 195 -62.5 332t-157.5 149q-83 -24 -127.5 -134.5t-44.5 -264.5q0 -191 62 -324t166 -165q73 18 118.5 135t45.5 272z" />
    <glyph glyph-name="ocircumflex" unicode="&#xf4;" horiz-adv-x="1198" 
d="M264 1051q95 108 264 350q19 27 34.5 39t37.5 12q21 0 36 -12t34 -39q124 -181 264 -350l-14 -19q-111 56 -326 195q-231 -148 -315 -195zM84 457q0 135 63.5 243.5t174.5 176.5q59 36 139 56.5t155 20.5q93 0 183 -32.5t157 -90.5q158 -136 158 -362q0 -129 -68 -240.5
t-186 -179.5q-123 -69 -252 -69q-101 0 -195.5 31t-164.5 91q-164 135 -164 355zM793 430q0 195 -62.5 332t-157.5 149q-83 -24 -127.5 -134.5t-44.5 -264.5q0 -191 62 -324t166 -165q73 18 118.5 135t45.5 272z" />
    <glyph glyph-name="otilde" unicode="&#xf5;" horiz-adv-x="1198" 
d="M256 1116q29 117 86 187.5t131 70.5q37 0 70 -10.5t88 -36.5q116 -53 168 -53q94 0 141 102l25 -10q-37 -122 -98 -192t-142 -70q-12 0 -23.5 1t-24.5 4.5t-21 6t-23.5 9.5t-22 10t-26.5 13t-27 13q-91 43 -147 43q-85 0 -129 -96zM84 457q0 135 63.5 243.5t174.5 176.5
q59 36 139 56.5t155 20.5q93 0 183 -32.5t157 -90.5q158 -136 158 -362q0 -129 -68 -240.5t-186 -179.5q-123 -69 -252 -69q-101 0 -195.5 31t-164.5 91q-164 135 -164 355zM793 430q0 195 -62.5 332t-157.5 149q-83 -24 -127.5 -134.5t-44.5 -264.5q0 -191 62 -324
t166 -165q73 18 118.5 135t45.5 272z" />
    <glyph glyph-name="odieresis" unicode="&#xf6;" horiz-adv-x="1198" 
d="M387 1122q-53 0 -83 32.5t-30 82.5q0 60 40.5 97.5t101.5 37.5q49 0 78.5 -33t29.5 -82q0 -60 -40 -97.5t-97 -37.5zM786 1122q-53 0 -82.5 32.5t-29.5 82.5q0 60 39.5 97.5t99.5 37.5q51 0 81 -33t30 -82q0 -60 -40.5 -97.5t-97.5 -37.5zM84 457q0 135 63.5 243.5
t174.5 176.5q59 36 139 56.5t155 20.5q93 0 183 -32.5t157 -90.5q158 -136 158 -362q0 -129 -68 -240.5t-186 -179.5q-123 -69 -252 -69q-101 0 -195.5 31t-164.5 91q-164 135 -164 355zM793 430q0 195 -62.5 332t-157.5 149q-83 -24 -127.5 -134.5t-44.5 -264.5
q0 -191 62 -324t166 -165q73 18 118.5 135t45.5 272z" />
    <glyph glyph-name="divide" unicode="&#xf7;" horiz-adv-x="1269" 
d="M623 809q-44 0 -69.5 27.5t-25.5 68.5q0 50 33.5 81.5t83.5 31.5q42 0 67 -27.5t25 -68.5q0 -50 -33.5 -81.5t-80.5 -31.5zM111 557q123 -2 532 -2q387 0 514 2v-70q-288 5 -555 5q-218 0 -491 -5v70zM623 27q-44 0 -69.5 27.5t-25.5 68.5q0 50 33.5 81.5t83.5 31.5
q42 0 67 -28t25 -69q0 -50 -33.5 -81t-80.5 -31z" />
    <glyph glyph-name="oslash" unicode="&#xf8;" horiz-adv-x="1198" 
d="M608 -20q-91 0 -178.5 28t-153.5 76l-104 -107l-39 39q9 9 47.5 46t57.5 57q-154 131 -154 338q0 135 63.5 243.5t174.5 176.5q59 36 139 56.5t155 20.5q92 0 182.5 -34t151.5 -93l107 109l39 -39l-109 -106q127 -127 127 -322q0 -129 -68 -240.5t-186 -179.5
q-123 -69 -252 -69zM770 649q-29 113 -79.5 182.5t-119.5 79.5q-82 -24 -126 -135t-44 -264q0 -119 23 -207zM627 23q75 18 120.5 135t45.5 272q0 68 -11 158l-344 -342q61 -179 189 -223z" />
    <glyph glyph-name="ugrave" unicode="&#xf9;" horiz-adv-x="1187" 
d="M643 1077q-236 117 -299 180q-39 39 -39 74q0 45 35 85t80 40q43 0 80 -55q108 -180 248 -350l-15 -19zM387 -23q-96 0 -155 54.5t-78 156.5q-13 66 -13 252q0 196 -18 256q-17 74 -86 74q-13 0 -33 -4l-6 22q152 72 184 89q163 86 215 86q10 0 19 -13q12 -30 12 -116
q0 -10 -1 -132t-1 -184q0 -187 23 -270q31 -101 147 -101q76 0 154 58v215q0 189 -19 266q-8 36 -32 59t-60 23q-15 0 -23 -2l-6 22q52 18 201 93q54 31 118 56.5t93 25.5q9 0 15.5 -5.5t6.5 -13.5q0 -16 -3.5 -71t-4.5 -72q-4 -74 -4 -320q0 -173 27 -256q20 -61 74 -61
q18 0 34 4l7 -23q-20 -10 -95 -45.5t-118 -60.5q-42 -24 -96 -43t-79 -19q-15 0 -18 13q-11 47 -18 170q-111 -88 -196 -135.5t-167 -47.5z" />
    <glyph glyph-name="uacute" unicode="&#xfa;" horiz-adv-x="1187" 
d="M440 1051q126 148 250 350q34 55 80 55q44 0 78.5 -39.5t34.5 -85.5q0 -38 -39 -74q-71 -68 -297 -180l-92 -45zM387 -23q-96 0 -155 54.5t-78 156.5q-13 66 -13 252q0 196 -18 256q-17 74 -86 74q-13 0 -33 -4l-6 22q152 72 184 89q163 86 215 86q10 0 19 -13
q12 -30 12 -116q0 -10 -1 -132t-1 -184q0 -187 23 -270q31 -101 147 -101q76 0 154 58v215q0 189 -19 266q-8 36 -32 59t-60 23q-15 0 -23 -2l-6 22q52 18 201 93q54 31 118 56.5t93 25.5q9 0 15.5 -5.5t6.5 -13.5q0 -16 -3.5 -71t-4.5 -72q-4 -74 -4 -320q0 -173 27 -256
q20 -61 74 -61q18 0 34 4l7 -23q-20 -10 -95 -45.5t-118 -60.5q-42 -24 -96 -43t-79 -19q-15 0 -18 13q-11 47 -18 170q-111 -88 -196 -135.5t-167 -47.5z" />
    <glyph glyph-name="ucircumflex" unicode="&#xfb;" horiz-adv-x="1187" 
d="M260 1051q95 108 264 350q19 27 34.5 39t37.5 12q21 0 36 -12t34 -39q124 -181 264 -350l-15 -19q-106 54 -325 195q-225 -144 -316 -195zM387 -23q-96 0 -155 54.5t-78 156.5q-13 66 -13 252q0 196 -18 256q-17 74 -86 74q-13 0 -33 -4l-6 22q152 72 184 89
q163 86 215 86q10 0 19 -13q12 -30 12 -116q0 -10 -1 -132t-1 -184q0 -187 23 -270q31 -101 147 -101q76 0 154 58v215q0 189 -19 266q-8 36 -32 59t-60 23q-15 0 -23 -2l-6 22q52 18 201 93q54 31 118 56.5t93 25.5q9 0 15.5 -5.5t6.5 -13.5q0 -16 -3.5 -71t-4.5 -72
q-4 -74 -4 -320q0 -173 27 -256q20 -61 74 -61q18 0 34 4l7 -23q-20 -10 -95 -45.5t-118 -60.5q-42 -24 -96 -43t-79 -19q-15 0 -18 13q-11 47 -18 170q-111 -88 -196 -135.5t-167 -47.5z" />
    <glyph glyph-name="udieresis" unicode="&#xfc;" horiz-adv-x="1187" 
d="M379 1122q-53 0 -83 32.5t-30 82.5q0 60 40.5 97.5t101.5 37.5q49 0 78.5 -33t29.5 -82q0 -60 -40 -97.5t-97 -37.5zM778 1122q-53 0 -82.5 32.5t-29.5 82.5q0 60 39.5 97.5t99.5 37.5q51 0 80.5 -33t29.5 -82q0 -60 -40 -97.5t-97 -37.5zM387 -23q-96 0 -155 54.5
t-78 156.5q-13 66 -13 252q0 196 -18 256q-17 74 -86 74q-13 0 -33 -4l-6 22q152 72 184 89q163 86 215 86q10 0 19 -13q12 -30 12 -116q0 -10 -1 -132t-1 -184q0 -187 23 -270q31 -101 147 -101q76 0 154 58v215q0 189 -19 266q-8 36 -32 59t-60 23q-15 0 -23 -2l-6 22
q52 18 201 93q54 31 118 56.5t93 25.5q9 0 15.5 -5.5t6.5 -13.5q0 -16 -3.5 -71t-4.5 -72q-4 -74 -4 -320q0 -173 27 -256q20 -61 74 -61q18 0 34 4l7 -23q-20 -10 -95 -45.5t-118 -60.5q-42 -24 -96 -43t-79 -19q-15 0 -18 13q-11 47 -18 170q-111 -88 -196 -135.5
t-167 -47.5z" />
    <glyph glyph-name="yacute" unicode="&#xfd;" horiz-adv-x="1153" 
d="M459 1051q126 148 250 350q34 55 79 55q44 0 78.5 -39.5t34.5 -85.5q0 -38 -39 -74q-71 -68 -297 -180l-92 -45zM207 -467q-71 0 -119 18q-106 43 -106 144q0 63 41 104t102 41q52 0 82.5 -27.5t50.5 -82.5q23 -72 49 -95q39 11 92 68q67 73 127 197l35 69
q-97 186 -192 383q-141 285 -209 396q-36 61 -92 110q-42 37 -88 53l4 21q106 -4 282 -4q153 0 324 6l2 -23q-53 -18 -80 -45q-35 -30 -35 -86q0 -38 27 -104q14 -36 114 -252q77 -154 84 -170h5q116 246 116 457q0 86 -47 139q-32 43 -94 61l2 23q12 0 114.5 -4t147.5 -4
q38 0 79 1t89.5 2.5t77.5 2.5l2 -23q-51 -22 -125 -102q-33 -35 -69 -90.5t-59 -99.5t-64 -125q-30 -60 -110 -223.5t-118 -241.5l-74 -152q-93 -190 -178 -264q-84 -78 -190 -78z" />
    <glyph glyph-name="thorn" unicode="&#xfe;" horiz-adv-x="1185" 
d="M6 -444q76 23 105 82q26 58 34 157q7 86 7 273v653q0 213 -5 428q-5 151 -41 217q-27 45 -79 45q-23 0 -39 -4l-8 25q25 10 74 30t88 36.5t73 33.5q150 86 191 86l20 -12q12 -62 12 -215q0 -27 -3 -242.5t-3 -351.5q163 155 307 155q129 0 224 -92q139 -133 139 -366
q0 -133 -53.5 -239.5t-143.5 -174.5q-133 -100 -299 -100q-94 0 -172 55v-51q0 -222 29 -299q36 -105 178 -127l-2 -25q-27 0 -166.5 3t-189.5 3q-61 0 -166.5 -3t-108.5 -3zM606 23q82 34 127 129q51 100 51 286q0 189 -79 279q-63 74 -152 84q-65 -6 -119 -51v-211
q0 -124 2 -183q5 -111 14 -167t29 -89q47 -74 127 -77z" />
    <glyph glyph-name="ydieresis" unicode="&#xff;" horiz-adv-x="1153" 
d="M414 1122q-53 0 -83 32.5t-30 82.5q0 61 40 98t101 37q50 0 79.5 -33t29.5 -82q0 -60 -40 -97.5t-97 -37.5zM813 1122q-53 0 -83 32.5t-30 82.5q0 60 40 97.5t100 37.5q51 0 80.5 -33t29.5 -82q0 -60 -40 -97.5t-97 -37.5zM207 -467q-71 0 -119 18q-106 43 -106 144
q0 63 41 104t102 41q52 0 82.5 -27.5t50.5 -82.5q23 -72 49 -95q39 11 92 68q67 73 127 197l35 69q-97 186 -192 383q-141 285 -209 396q-36 61 -92 110q-42 37 -88 53l4 21q106 -4 282 -4q153 0 324 6l2 -23q-53 -18 -80 -45q-35 -30 -35 -86q0 -38 27 -104
q14 -36 114 -252q77 -154 84 -170h5q116 246 116 457q0 86 -47 139q-32 43 -94 61l2 23q12 0 114.5 -4t147.5 -4q38 0 79 1t89.5 2.5t77.5 2.5l2 -23q-51 -22 -125 -102q-33 -35 -69 -90.5t-59 -99.5t-64 -125q-30 -60 -110 -223.5t-118 -241.5l-74 -152q-93 -190 -178 -264
q-84 -78 -190 -78z" />
    <glyph glyph-name="Amacron" unicode="&#x100;" horiz-adv-x="1531" 
d="M446 1739q86 -2 304 -2q203 0 356 6l-2 -92q-100 2 -342 2q-213 0 -311 -4zM-59 23q42 18 98 65q52 44 111 129q96 139 296 567l177 379q53 125 118 307l41 3q105 -246 197 -445q272 -607 383 -780q117 -189 231 -223l-2 -27q-8 0 -139 2t-209 2q-39 0 -173 -2t-198 -2
l-2 25q59 19 103.5 56.5t54.5 86.5q-3 63 -39 162q-19 48 -78 182q-140 4 -247 4q-116 0 -256 -4q-50 -139 -50 -242q0 -102 68 -182q44 -44 100 -63l-2 -25q-43 0 -160 2t-171 2q-59 0 -155 -2l-95 -2zM664 573q136 0 219 5l-226 497h-6l-157 -342q-47 -98 -66 -158
q61 -2 236 -2z" />
    <glyph glyph-name="amacron" unicode="&#x101;" horiz-adv-x="1042" 
d="M229 1278q80 -2 267 -2q177 0 321 6l-2 -92q-94 2 -307 2q-183 0 -275 -4zM330 -23q-113 0 -184.5 68t-71.5 172q0 74 24 98q34 17 107.5 37.5t205 53.5t197.5 51v47q0 78 -14 143q-31 146 -178 146q-26 0 -66 -9q1 -6 11 -63t10 -84q0 -52 -15 -82q-27 -49 -92 -49
q-58 0 -100.5 31t-42.5 77q0 42 46.5 86t145.5 99q35 28 99 71q65 42 119 62t116 20q134 0 197 -98q37 -57 43 -149q4 -33 4 -97q0 -39 -2 -112.5t-2 -102.5q0 -125 28 -180q11 -25 33.5 -38t44.5 -13q25 0 35 2l6 -19q-72 -46 -149 -102q-86 -63 -140 -63q-32 0 -69 41.5
t-55 103.5q-74 -68 -142.5 -108t-148.5 -40zM508 127q63 0 104 35q-8 33 -8 90q0 18 2 77t2 87l-47 -10q-108 -25 -152 -56.5t-44 -83.5q0 -64 42 -101.5t101 -37.5z" />
    <glyph glyph-name="Abreve" unicode="&#x102;" horiz-adv-x="1531" 
d="M758 1542q-116 0 -199 80q-83 83 -115 238l23 10q42 -67 121.5 -112.5t181.5 -45.5q94 0 166.5 44.5t114.5 113.5l22 -10q-34 -158 -112 -236q-85 -82 -203 -82zM-59 23q42 18 98 65q52 44 111 129q96 139 296 567l177 379q53 125 118 307l41 3q105 -246 197 -445
q272 -607 383 -780q117 -189 231 -223l-2 -27q-8 0 -139 2t-209 2q-39 0 -173 -2t-198 -2l-2 25q59 19 103.5 56.5t54.5 86.5q-3 63 -39 162q-19 48 -78 182q-140 4 -247 4q-116 0 -256 -4q-50 -139 -50 -242q0 -102 68 -182q44 -44 100 -63l-2 -25q-43 0 -160 2t-171 2
q-59 0 -155 -2l-95 -2zM664 573q136 0 219 5l-226 497h-6l-157 -342q-47 -98 -66 -158q61 -2 236 -2z" />
    <glyph glyph-name="abreve" unicode="&#x103;" horiz-adv-x="1042" 
d="M520 1071q-114 0 -198 84q-78 81 -109 236l23 10q40 -69 117.5 -114.5t178.5 -45.5q91 0 165.5 45.5t113.5 114.5l23 -10q-31 -149 -115 -236q-78 -84 -199 -84zM330 -23q-113 0 -184.5 68t-71.5 172q0 74 24 98q34 17 107.5 37.5t205 53.5t197.5 51v47q0 78 -14 143
q-31 146 -178 146q-26 0 -66 -9q1 -6 11 -63t10 -84q0 -52 -15 -82q-27 -49 -92 -49q-58 0 -100.5 31t-42.5 77q0 42 46.5 86t145.5 99q35 28 99 71q65 42 119 62t116 20q134 0 197 -98q37 -57 43 -149q4 -33 4 -97q0 -39 -2 -112.5t-2 -102.5q0 -125 28 -180
q11 -25 33.5 -38t44.5 -13q25 0 35 2l6 -19q-72 -46 -149 -102q-86 -63 -140 -63q-32 0 -69 41.5t-55 103.5q-74 -68 -142.5 -108t-148.5 -40zM508 127q63 0 104 35q-8 33 -8 90q0 18 2 77t2 87l-47 -10q-108 -25 -152 -56.5t-44 -83.5q0 -64 42 -101.5t101 -37.5z" />
    <glyph glyph-name="Aogonek" unicode="&#x104;" horiz-adv-x="1531" 
d="M1405 0q-145 -123 -145 -258q0 -61 31.5 -95t84.5 -34q57 0 109 25l8 -21q-125 -88 -244 -88q-81 0 -127 43q-47 41 -47 113q0 93 117 198q49 44 154 119h-103q-39 0 -173 -2t-198 -2l-2 25q59 19 103.5 56.5t54.5 86.5q-3 63 -39 162q-19 48 -78 182q-140 4 -247 4
q-116 0 -256 -4q-50 -139 -50 -242q0 -102 68 -182q44 -44 100 -63l-2 -25q-43 0 -160 2t-171 2q-59 0 -155 -2l-95 -2l-2 25q42 18 98 65q52 44 111 129q96 139 296 567l177 379q53 125 118 307l41 3q105 -246 197 -445q272 -607 383 -780q117 -189 231 -223l-2 -27
q-5 0 -70 1t-116 1zM664 573q136 0 219 5l-226 497h-6l-157 -342q-47 -98 -66 -158q61 -2 236 -2z" />
    <glyph glyph-name="aogonek" unicode="&#x105;" horiz-adv-x="1042" 
d="M797 -387q-81 0 -127 43q-47 41 -47 106q0 53 29.5 102t92.5 107l9 9h-9q-32 0 -69 41.5t-55 103.5q-74 -68 -142.5 -108t-148.5 -40q-113 0 -184.5 68t-71.5 172q0 74 24 98q34 17 107.5 37.5t205 53.5t197.5 51v47q0 78 -14 143q-31 146 -178 146q-26 0 -66 -9
q1 -6 11 -63t10 -84q0 -47 -17 -78q-24 -49 -88 -49q-58 0 -101.5 29t-43.5 75q0 42 46.5 86t145.5 99q35 28 99 71q65 42 119 62t116 20q134 0 197 -98q37 -57 43 -154q4 -29 4 -92q0 -39 -2 -112.5t-2 -102.5q0 -125 28 -180q11 -25 33.5 -38t44.5 -13q25 0 35 2l6 -19
l-12 -8q-217 -144 -217 -311q0 -62 32.5 -96.5t86.5 -34.5q57 0 108 26l8 -20q-123 -88 -243 -88zM508 127q63 0 104 35q-8 33 -8 90q0 18 2 77t2 87l-47 -10q-108 -25 -152 -56.5t-44 -83.5q0 -64 42 -101.5t101 -37.5z" />
    <glyph glyph-name="Cacute" unicode="&#x106;" horiz-adv-x="1548" 
d="M731 1565q158 104 330 272q35 35 69 35q46 0 76.5 -40t30.5 -81q0 -60 -63 -92q-80 -45 -347 -98l-88 -19zM1468 408q-8 -42 -27.5 -167t-29.5 -171q-216 -93 -528 -93q-323 0 -541 193q-110 97 -170.5 232.5t-60.5 295.5q0 163 61.5 304t171.5 245q107 98 252 154.5
t305 56.5q278 0 494 -88q10 -65 20 -208.5t21 -237.5l-27 -4q-94 173 -240 311q-156 150 -303 178q-78 -27 -159 -91t-138 -147q-123 -183 -123 -434q0 -281 160 -487q65 -82 153.5 -139t178.5 -84q122 17 256 116q156 121 248 271z" />
    <glyph glyph-name="cacute" unicode="&#x107;" horiz-adv-x="1024" 
d="M360 1051q126 148 250 350q34 55 80 55q44 0 78.5 -39.5t34.5 -85.5q0 -38 -39 -74q-71 -68 -297 -180l-92 -45zM983 268q-28 -50 -67.5 -97t-93.5 -91.5t-125 -72t-146 -27.5q-203 0 -328 114q-141 132 -141 369q0 132 58.5 243.5t168 179.5t248.5 68q142 0 240 -39
q149 -60 149 -153q0 -58 -40.5 -101t-96.5 -43q-53 0 -87 36.5t-75 129.5q-48 118 -108 129q-70 -33 -105 -143t-35 -276q0 -171 84 -271q76 -88 205 -88q158 0 268 150z" />
    <glyph glyph-name="Ccircumflex" unicode="&#x108;" horiz-adv-x="1548" 
d="M518 1563q46 38 93.5 81t112 104t81.5 77q39 35 69 35q31 0 70 -35q21 -19 82 -77t108 -101.5t95 -83.5l-12 -21q-200 57 -349 119q-154 -61 -338 -119zM1468 408q-8 -42 -27.5 -167t-29.5 -171q-216 -93 -528 -93q-323 0 -541 193q-110 97 -170.5 232.5t-60.5 295.5
q0 163 61.5 304t171.5 245q107 98 252 154.5t305 56.5q278 0 494 -88q10 -65 20 -208.5t21 -237.5l-27 -4q-94 173 -240 311q-156 150 -303 178q-78 -27 -159 -91t-138 -147q-123 -183 -123 -434q0 -281 160 -487q65 -82 153.5 -139t178.5 -84q122 17 256 116
q156 121 248 271z" />
    <glyph glyph-name="ccircumflex" unicode="&#x109;" horiz-adv-x="1024" 
d="M195 1051q95 108 264 350q19 27 34 39t37 12q21 0 36 -12t34 -39q124 -181 264 -350l-14 -19q-111 56 -326 195q-231 -148 -315 -195zM983 268q-28 -50 -67.5 -97t-93.5 -91.5t-125 -72t-146 -27.5q-203 0 -328 114q-141 132 -141 369q0 132 58.5 243.5t168 179.5
t248.5 68q142 0 240 -39q149 -60 149 -153q0 -58 -40.5 -101t-96.5 -43q-53 0 -87 36.5t-75 129.5q-48 118 -108 129q-70 -33 -105 -143t-35 -276q0 -171 84 -271q76 -88 205 -88q158 0 268 150z" />
    <glyph glyph-name="Cdotaccent" unicode="&#x10a;" horiz-adv-x="1548" 
d="M813 1556q-64 0 -101.5 40t-37.5 102q0 71 50 115.5t122 44.5q60 0 97.5 -40t37.5 -100q0 -70 -49.5 -116t-118.5 -46zM1468 408q-8 -42 -27.5 -167t-29.5 -171q-216 -93 -528 -93q-323 0 -541 193q-110 97 -170.5 232.5t-60.5 295.5q0 163 61.5 304t171.5 245
q107 98 252 154.5t305 56.5q278 0 494 -88q10 -65 20 -208.5t21 -237.5l-27 -4q-94 173 -240 311q-156 150 -303 178q-78 -27 -159 -91t-138 -147q-123 -183 -123 -434q0 -281 160 -487q65 -82 153.5 -139t178.5 -84q122 17 256 116q156 121 248 271z" />
    <glyph glyph-name="cdotaccent" unicode="&#x10b;" horiz-adv-x="1024" 
d="M514 1122q-64 0 -101.5 40t-37.5 100q0 72 50 116.5t122 44.5q61 0 98 -40t37 -101q0 -70 -49.5 -115t-118.5 -45zM983 268q-28 -50 -67.5 -97t-93.5 -91.5t-125 -72t-146 -27.5q-203 0 -328 114q-141 132 -141 369q0 132 58.5 243.5t168 179.5t248.5 68q142 0 240 -39
q149 -60 149 -153q0 -58 -40.5 -101t-96.5 -43q-53 0 -87 36.5t-75 129.5q-48 118 -108 129q-70 -33 -105 -143t-35 -276q0 -171 84 -271q76 -88 205 -88q158 0 268 150z" />
    <glyph glyph-name="Ccaron" unicode="&#x10c;" horiz-adv-x="1548" 
d="M870 1540q-36 0 -71 35q-210 200 -283 262l12 21q156 -45 346 -119q211 79 340 119l13 -21q-86 -71 -287 -262q-39 -35 -70 -35zM1468 408q-8 -42 -27.5 -167t-29.5 -171q-216 -93 -528 -93q-323 0 -541 193q-110 97 -170.5 232.5t-60.5 295.5q0 163 61.5 304t171.5 245
q107 98 252 154.5t305 56.5q278 0 494 -88q10 -65 20 -208.5t21 -237.5l-27 -4q-94 173 -240 311q-156 150 -303 178q-78 -27 -159 -91t-138 -147q-123 -183 -123 -434q0 -281 160 -487q65 -82 153.5 -139t178.5 -84q122 17 256 116q156 121 248 271z" />
    <glyph glyph-name="ccaron" unicode="&#x10d;" horiz-adv-x="1024" 
d="M532 1030q-20 0 -35 12t-34 39q-149 218 -264 351l14 18q111 -56 326 -195q220 141 315 195l14 -18q-92 -104 -264 -351q-31 -51 -72 -51zM983 268q-28 -50 -67.5 -97t-93.5 -91.5t-125 -72t-146 -27.5q-203 0 -328 114q-141 132 -141 369q0 132 58.5 243.5t168 179.5
t248.5 68q142 0 240 -39q149 -60 149 -153q0 -58 -40.5 -101t-96.5 -43q-53 0 -87 36.5t-75 129.5q-48 118 -108 129q-70 -33 -105 -143t-35 -276q0 -171 84 -271q76 -88 205 -88q158 0 268 150z" />
    <glyph glyph-name="Dcaron" unicode="&#x10e;" horiz-adv-x="1667" 
d="M805 1540q-37 0 -72 35q-17 16 -62.5 60t-72 69t-68.5 63t-79 70l12 21q156 -45 346 -119q211 79 340 119l12 -21q-86 -71 -287 -262q-39 -35 -69 -35zM20 23q65 13 117 51q34 28 54.5 61.5t37.5 93.5q25 113 25 445v63q0 295 -14 416q-13 123 -70 180q-61 57 -178 78
l2 25q106 -6 354 -6q60 0 215 3t215 3q334 0 541 -164q124 -99 180.5 -236t56.5 -282q0 -205 -77.5 -355t-202.5 -243q-103 -78 -224 -119t-243 -41q-63 0 -208 4t-234 4q-62 0 -344 -6zM551 672q0 -396 27 -492q23 -74 88 -104q50 -27 116 -27q197 46 318 219.5t121 446.5
q0 269 -142 448q-68 89 -171 146t-214 77q-62 0 -114 -12q-12 -47 -21 -248q-8 -172 -8 -387v-67z" />
    <glyph glyph-name="dcaron" unicode="&#x10f;" horiz-adv-x="1191" 
d="M782 -12q-13 22 -26 151q-63 -64 -146 -111.5t-157 -47.5q-78 0 -150 36.5t-121 102.5q-98 120 -98 321q0 124 43.5 216.5t99.5 148.5q59 62 156 105.5t195 43.5q88 0 174 -39q-5 173 -7 203q-8 177 -47 232q-41 57 -129 57l-6 27q46 12 124.5 40.5t119.5 51.5
q58 36 119 64t82 28l18 -10q14 -43 14 -129q-6 -738 -6 -944v-66q0 -205 41 -266q25 -41 76 -41q17 0 25 2l4 -23q-27 -13 -71 -33t-69 -32.5t-49 -26.5q-43 -26 -100 -50t-90 -24zM1155 950q111 83 111 199q1 48 -32.5 104t-33.5 88q0 56 38 89.5t95 33.5q60 0 96.5 -44
t36.5 -113q0 -131 -88 -232q-75 -90 -211 -147zM752 831q-26 37 -69.5 60.5t-86.5 23.5q-21 0 -33 -4q-72 -39 -118 -143t-46 -274q0 -161 64 -261q27 -42 73 -69.5t93 -32.5q73 7 123 53q0 21 -1 84t-1 103q0 80 1 200t1 162v98z" />
    <glyph glyph-name="Dcroat" unicode="&#x110;" horiz-adv-x="1667" 
d="M809 -4q-63 0 -208 4t-234 4q-62 0 -344 -6l-3 25q65 13 117 51q34 28 54.5 61.5t37.5 93.5q25 113 25 445v14q-45 0 -121 -1t-102 -1v62q95 -3 223 -3q0 289 -14 408q-13 123 -70 180q-61 57 -178 78l2 25q106 -6 354 -6q60 0 215 3t215 3q334 0 541 -164
q124 -99 180.5 -236t56.5 -282q0 -205 -77.5 -355t-202.5 -243q-103 -78 -224 -119t-243 -41zM782 49q197 46 318 219.5t121 446.5q0 269 -142 448q-68 89 -171 146t-214 77q-62 0 -114 -12q-12 -47 -21 -248q-8 -169 -8 -381q198 0 330 3v-62q-74 2 -330 2v-16
q0 -396 27 -492q23 -74 88 -104q50 -27 116 -27z" />
    <glyph glyph-name="dcroat" unicode="&#x111;" horiz-adv-x="1191" 
d="M453 -20q-78 0 -150 36.5t-121 102.5q-98 120 -98 321q0 124 43.5 216.5t99.5 148.5q59 62 156 105.5t195 43.5q88 0 174 -39q-1 20 -2 63.5t-2 83t-3 75.5q-194 0 -270 -2v57q78 -2 266 -2q-10 106 -43 160q-41 57 -129 57l-6 27q46 12 124.5 40.5t119.5 51.5
q58 36 119 64t82 28l18 -10q14 -43 14 -129l-2 -289q109 0 158 2v-57q-21 0 -74.5 1t-83.5 1q-4 -360 -4 -602v-66q0 -205 41 -266q25 -41 76 -41q17 0 25 2l4 -23q-27 -13 -71 -33t-69 -32.5t-49 -26.5q-43 -26 -100 -50t-90 -24l-19 13q-13 22 -26 151
q-63 -64 -146 -111.5t-157 -47.5zM629 131q75 8 125 53q-4 98 -4 187q0 74 1 194t1 168v98q-26 37 -69.5 60.5t-86.5 23.5q-21 0 -33 -4q-72 -39 -118 -143t-46 -274q0 -161 64 -261q27 -42 73 -69.5t93 -32.5z" />
    <glyph glyph-name="Emacron" unicode="&#x112;" horiz-adv-x="1302" 
d="M311 1739q86 -2 303 -2q204 0 357 6l-2 -92q-100 2 -342 2q-214 0 -312 -4zM23 23q39 8 85.5 35t73.5 63q54 71 64 239q8 110 8 244v105q0 247 -8 378q-9 147 -45 205q-38 58 -99 86q-46 25 -110 33l2 25q72 -4 368 -4q167 0 364 2t235 2q121 0 192 -6q10 -63 18 -180
t21 -214l-27 -4q-96 145 -194 221q-136 110 -301 133q-64 0 -97 -10q-24 -204 -24 -581v-31h96q100 0 137 4q72 6 131 51q66 49 99 131l26 -4q-10 -98 -10 -221q0 -148 2 -201l-26 -4q-31 67 -80 113q-58 55 -152 67q-65 9 -127 9q-69 0 -96 -4v-27q0 -260 8 -379
q6 -83 24.5 -128.5t55.5 -74.5q51 -43 147 -47q141 45 248 125q123 95 207 240l27 -6q-13 -68 -34 -209.5t-34 -196.5q-58 -4 -151 -4q-118 0 -348.5 2t-311.5 2q-210 0 -362 -4z" />
    <glyph glyph-name="emacron" unicode="&#x113;" horiz-adv-x="1046" 
d="M229 1278q80 -2 267 -2q177 0 321 6l-2 -92q-94 2 -307 2q-183 0 -275 -4zM395 489q0 -172 80.5 -265t210.5 -93q144 0 272 141l23 -16q-184 -276 -428 -276q-169 0 -281 77q-192 127 -192 414q0 126 58 236t166.5 178.5t242.5 68.5q88 0 161.5 -31t122.5 -84.5
t80.5 -115t46.5 -131.5q7 -21 7 -35q0 -11 -11 -22l-559 -13v-33zM535 911q-126 -66 -138 -348q203 5 279 17q-5 129 -42 226t-99 105z" />
    <glyph glyph-name="Ebreve" unicode="&#x114;" horiz-adv-x="1302" 
d="M633 1542q-116 0 -199 80q-83 83 -115 238l23 10q42 -67 121.5 -112.5t181.5 -45.5q94 0 166.5 44.5t114.5 113.5l22 -10q-34 -158 -112 -236q-85 -82 -203 -82zM23 23q39 8 85.5 35t73.5 63q54 71 64 239q8 110 8 244v105q0 247 -8 378q-9 147 -45 205q-38 58 -99 86
q-46 25 -110 33l2 25q72 -4 368 -4q167 0 364 2t235 2q121 0 192 -6q10 -63 18 -180t21 -214l-27 -4q-96 145 -194 221q-136 110 -301 133q-64 0 -97 -10q-24 -204 -24 -581v-31h96q100 0 137 4q72 6 131 51q66 49 99 131l26 -4q-10 -98 -10 -221q0 -148 2 -201l-26 -4
q-31 67 -80 113q-58 55 -152 67q-65 9 -127 9q-69 0 -96 -4v-27q0 -260 8 -379q6 -83 24.5 -128.5t55.5 -74.5q51 -43 147 -47q141 45 248 125q123 95 207 240l27 -6q-13 -68 -34 -209.5t-34 -196.5q-58 -4 -151 -4q-118 0 -348.5 2t-311.5 2q-210 0 -362 -4z" />
    <glyph glyph-name="ebreve" unicode="&#x115;" horiz-adv-x="1046" 
d="M522 1071q-114 0 -198 84q-78 81 -109 236l23 10q40 -68 118 -114t179 -46q91 0 165 45.5t113 114.5l23 -10q-31 -149 -115 -236q-78 -84 -199 -84zM395 489q0 -172 80.5 -265t210.5 -93q144 0 272 141l23 -16q-184 -276 -428 -276q-169 0 -281 77q-192 127 -192 414
q0 126 58 236t166.5 178.5t242.5 68.5q88 0 161.5 -31t122.5 -84.5t80.5 -115t46.5 -131.5q7 -21 7 -35q0 -11 -11 -22l-559 -13v-33zM535 911q-126 -66 -138 -348q203 5 279 17q-5 129 -42 226t-99 105z" />
    <glyph glyph-name="Edotaccent" unicode="&#x116;" horiz-adv-x="1302" 
d="M631 1556q-64 0 -101.5 40t-37.5 102q0 71 50 115.5t122 44.5q60 0 97.5 -40t37.5 -100q0 -70 -49.5 -116t-118.5 -46zM23 23q39 8 85.5 35t73.5 63q54 71 64 239q8 110 8 244v105q0 247 -8 378q-9 147 -45 205q-38 58 -99 86q-46 25 -110 33l2 25q72 -4 368 -4
q167 0 364 2t235 2q121 0 192 -6q10 -63 18 -180t21 -214l-27 -4q-96 145 -194 221q-136 110 -301 133q-64 0 -97 -10q-24 -204 -24 -581v-31h96q100 0 137 4q72 6 131 51q66 49 99 131l26 -4q-10 -98 -10 -221q0 -148 2 -201l-26 -4q-31 67 -80 113q-58 55 -152 67
q-65 9 -127 9q-69 0 -96 -4v-27q0 -260 8 -379q6 -83 24.5 -128.5t55.5 -74.5q51 -43 147 -47q141 45 248 125q123 95 207 240l27 -6q-13 -68 -34 -209.5t-34 -196.5q-58 -4 -151 -4q-118 0 -348.5 2t-311.5 2q-210 0 -362 -4z" />
    <glyph glyph-name="edotaccent" unicode="&#x117;" horiz-adv-x="1046" 
d="M508 1122q-64 0 -101.5 40t-37.5 100q0 72 50 116.5t122 44.5q61 0 98 -40t37 -101q0 -70 -49.5 -115t-118.5 -45zM395 489q0 -172 80.5 -265t210.5 -93q144 0 272 141l23 -16q-184 -276 -428 -276q-169 0 -281 77q-192 127 -192 414q0 126 58 236t166.5 178.5
t242.5 68.5q88 0 161.5 -31t122.5 -84.5t80.5 -115t46.5 -131.5q7 -21 7 -35q0 -11 -11 -22l-559 -13v-33zM535 911q-126 -66 -138 -348q203 5 279 17q-5 129 -42 226t-99 105z" />
    <glyph glyph-name="Eogonek" unicode="&#x118;" horiz-adv-x="1302" 
d="M1063 -2q-141 -122 -141 -256q0 -61 31.5 -95t84.5 -34q57 0 109 25l8 -21q-125 -88 -244 -88q-81 0 -127 43q-47 41 -47 113q0 93 117 198q59 54 147 115q-113 0 -326 2t-288 2q-210 0 -362 -4l-2 25q39 8 85.5 35t73.5 63q54 71 64 239q8 110 8 244v105q0 247 -8 378
q-9 147 -45 205q-38 58 -99 86q-46 25 -110 33l2 25q72 -4 368 -4q167 0 364 2t235 2q121 0 192 -6q10 -63 18 -180t21 -214l-27 -4q-96 145 -194 221q-136 110 -301 133q-64 0 -97 -10q-24 -204 -24 -581v-31h96q100 0 137 4q72 6 131 51q66 49 99 131l26 -4
q-10 -98 -10 -221q0 -148 2 -201l-26 -4q-31 67 -80 113q-58 55 -152 67q-65 9 -127 9q-69 0 -96 -4v-27q0 -260 8 -379q6 -83 24.5 -128.5t55.5 -74.5q51 -43 147 -47q141 45 248 125q123 95 207 240l27 -6q-13 -68 -34 -209.5t-34 -196.5q-50 -4 -135 -4z" />
    <glyph glyph-name="eogonek" unicode="&#x119;" horiz-adv-x="1046" 
d="M565 -471q-83 0 -129 43q-47 41 -47 113q0 93 117 198q54 48 139 107q-39 -10 -92 -10q-169 0 -281 77q-192 127 -192 414q0 126 58 236t166.5 178.5t242.5 68.5q88 0 161.5 -31t122.5 -84.5t80.5 -115t46.5 -131.5q7 -21 7 -35q0 -11 -11 -22l-559 -13v-33
q0 -172 80.5 -265t210.5 -93q144 0 272 141l23 -16q-99 -148 -213 -213q-98 -75 -146.5 -146t-48.5 -155q0 -61 32 -95t85 -34q57 0 109 25l8 -21q-125 -88 -242 -88zM397 563q203 5 279 17q-5 129 -42 226t-99 105q-126 -66 -138 -348z" />
    <glyph glyph-name="Ecaron" unicode="&#x11a;" horiz-adv-x="1302" 
d="M659 1540q-36 0 -71 35q-210 200 -283 262l12 21q160 -46 347 -119q211 79 340 119l12 -21q-86 -71 -287 -262q-39 -35 -70 -35zM23 23q39 8 85.5 35t73.5 63q54 71 64 239q8 110 8 244v105q0 247 -8 378q-9 147 -45 205q-38 58 -99 86q-46 25 -110 33l2 25q72 -4 368 -4
q167 0 364 2t235 2q121 0 192 -6q10 -63 18 -180t21 -214l-27 -4q-96 145 -194 221q-136 110 -301 133q-64 0 -97 -10q-24 -204 -24 -581v-31h96q100 0 137 4q72 6 131 51q66 49 99 131l26 -4q-10 -98 -10 -221q0 -148 2 -201l-26 -4q-31 67 -80 113q-58 55 -152 67
q-65 9 -127 9q-69 0 -96 -4v-27q0 -260 8 -379q6 -83 24.5 -128.5t55.5 -74.5q51 -43 147 -47q141 45 248 125q123 95 207 240l27 -6q-13 -68 -34 -209.5t-34 -196.5q-58 -4 -151 -4q-118 0 -348.5 2t-311.5 2q-210 0 -362 -4z" />
    <glyph glyph-name="ecaron" unicode="&#x11b;" horiz-adv-x="1046" 
d="M526 1030q-20 0 -35 12t-34 39q-149 218 -264 351l14 18q106 -54 325 -195q212 136 316 195l14 -18q-92 -104 -264 -351q-31 -51 -72 -51zM395 489q0 -172 80.5 -265t210.5 -93q144 0 272 141l23 -16q-184 -276 -428 -276q-169 0 -281 77q-192 127 -192 414q0 126 58 236
t166.5 178.5t242.5 68.5q88 0 161.5 -31t122.5 -84.5t80.5 -115t46.5 -131.5q7 -21 7 -35q0 -11 -11 -22l-559 -13v-33zM535 911q-126 -66 -138 -348q203 5 279 17q-5 129 -42 226t-99 105z" />
    <glyph glyph-name="Gcircumflex" unicode="&#x11c;" horiz-adv-x="1662" 
d="M526 1563q46 38 93.5 81t112 104t81.5 77q39 35 70 35q14 0 27.5 -6t20.5 -11.5t21 -17.5q21 -19 82 -77t108 -101.5t95 -83.5l-12 -21q-197 56 -348 119q-154 -61 -338 -119zM854 602q245 -10 471 -10q128 0 313 10l4 -29q-80 -18 -118 -79q-39 -55 -39 -158
q0 -98 37 -219q-277 -140 -633 -140q-312 0 -535 183q-115 96 -179 235.5t-64 302.5q0 170 65.5 315.5t183.5 246.5q227 198 555 198q297 0 523 -88q10 -61 20 -206t23 -240l-27 -4q-92 168 -231 301q-171 166 -351 188q-81 -26 -160 -87.5t-139 -150.5q-127 -184 -127 -434
q0 -277 158 -481q129 -166 334 -229q97 7 170 71q80 69 80 205q0 112 -82 182t-256 84z" />
    <glyph glyph-name="gcircumflex" unicode="&#x11d;" horiz-adv-x="1103" 
d="M956 23q103 -69 103 -191q0 -126 -156 -209q-172 -90 -432 -90q-219 0 -340 59q-117 58 -117 150q0 43 27.5 79t80 64t110.5 49t137 41l-199 31l-4 25l338 176q-175 41 -283 125q-121 93 -121 235q0 156 129 275q131 112 306 112q63 0 143 -26q64 21 147 104
q-106 54 -325 195q-225 -144 -316 -195l-14 19q95 108 264 350q19 27 34.5 39t37.5 12q20 0 35 -12t34 -39q119 -174 265 -350l-11 -13q26 26 42 40t39 26t44 12q57 0 92 -44t35 -105q0 -44 -28.5 -70.5t-71.5 -26.5q-28 0 -118 17.5t-144 19.5q100 -46 161.5 -127
t61.5 -188q-3 -150 -131 -256q-69 -58 -246 -146l-100 -51l125 -16q251 -28 366 -100zM383 584q0 -231 160 -346q116 109 116 342q0 127 -45.5 211.5t-105.5 119.5q-53 -40 -89 -123t-36 -204zM500 -422q123 14 196.5 63.5t73.5 131.5q0 68 -55 106q-63 49 -258 80l-35 6
q-152 -74 -152 -203q0 -74 61.5 -123t168.5 -61z" />
    <glyph glyph-name="Gbreve" unicode="&#x11e;" horiz-adv-x="1662" 
d="M872 1542q-115 0 -198 80q-83 83 -115 238l23 10q42 -67 121.5 -112.5t181.5 -45.5q94 0 166 44.5t114 113.5l23 -10q-34 -157 -113 -236q-85 -82 -203 -82zM854 602q245 -10 471 -10q128 0 313 10l4 -29q-80 -18 -118 -79q-39 -55 -39 -158q0 -98 37 -219
q-277 -140 -633 -140q-312 0 -535 183q-115 96 -179 235.5t-64 302.5q0 170 65.5 315.5t183.5 246.5q227 198 555 198q297 0 523 -88q10 -61 20 -206t23 -240l-27 -4q-92 168 -231 301q-171 166 -351 188q-81 -26 -160 -87.5t-139 -150.5q-127 -184 -127 -434
q0 -277 158 -481q129 -166 334 -229q97 7 170 71q80 69 80 205q0 112 -82 182t-256 84z" />
    <glyph glyph-name="gbreve" unicode="&#x11f;" horiz-adv-x="1103" 
d="M510 1071q-115 0 -199 84q-77 80 -108 236l22 10q40 -68 118 -114t179 -46q91 0 165.5 45.5t113.5 114.5l22 -10q-32 -151 -114 -236q-78 -84 -199 -84zM471 -467q-219 0 -340 59q-117 58 -117 150q0 43 27.5 79t80 64t110.5 49t137 41l-199 31l-4 25l338 176
q-175 41 -283 125q-121 93 -121 235q0 156 129 275q131 112 306 112q63 0 143 -26q42 14 83.5 46.5t68 63t60 54.5t64.5 24q57 0 92 -44t35 -105q0 -44 -28.5 -70.5t-71.5 -26.5q-28 0 -118 17.5t-144 19.5q100 -46 161.5 -127t61.5 -188q-3 -150 -131 -256
q-69 -58 -246 -146l-100 -51l125 -16q251 -28 366 -100q103 -69 103 -191q0 -126 -156 -209q-172 -90 -432 -90zM543 238q116 109 116 342q0 127 -45.5 211.5t-105.5 119.5q-53 -40 -89 -123t-36 -204q0 -231 160 -346zM500 -422q123 14 196.5 63.5t73.5 131.5q0 68 -55 106
q-63 49 -258 80l-35 6q-152 -74 -152 -203q0 -74 61.5 -123t168.5 -61z" />
    <glyph glyph-name="Gdotaccent" unicode="&#x120;" horiz-adv-x="1662" 
d="M860 1556q-64 0 -101.5 40t-37.5 102q0 71 50 115.5t122 44.5q60 0 97.5 -40t37.5 -100q0 -70 -49.5 -116t-118.5 -46zM854 602q245 -10 471 -10q128 0 313 10l4 -29q-80 -18 -118 -79q-39 -55 -39 -158q0 -98 37 -219q-277 -140 -633 -140q-312 0 -535 183
q-115 96 -179 235.5t-64 302.5q0 170 65.5 315.5t183.5 246.5q227 198 555 198q297 0 523 -88q10 -61 20 -206t23 -240l-27 -4q-92 168 -231 301q-171 166 -351 188q-81 -26 -160 -87.5t-139 -150.5q-127 -184 -127 -434q0 -277 158 -481q129 -166 334 -229q97 7 170 71
q80 69 80 205q0 112 -82 182t-256 84z" />
    <glyph glyph-name="gdotaccent" unicode="&#x121;" horiz-adv-x="1103" 
d="M492 1122q-64 0 -102 40t-38 100q0 72 50 116.5t122 44.5q61 0 98 -40t37 -101q0 -70 -49 -115t-118 -45zM471 -467q-219 0 -340 59q-117 58 -117 150q0 43 27.5 79t80 64t110.5 49t137 41l-199 31l-4 25l338 176q-175 41 -283 125q-121 93 -121 235q0 156 129 275
q131 112 306 112q63 0 143 -26q42 14 83.5 46.5t68 63t60 54.5t64.5 24q57 0 92 -44t35 -105q0 -44 -28.5 -70.5t-71.5 -26.5q-28 0 -118 17.5t-144 19.5q100 -46 161.5 -127t61.5 -188q-3 -150 -131 -256q-69 -58 -246 -146l-100 -51l125 -16q251 -28 366 -100
q103 -69 103 -191q0 -126 -156 -209q-172 -90 -432 -90zM543 238q116 109 116 342q0 127 -45.5 211.5t-105.5 119.5q-53 -40 -89 -123t-36 -204q0 -231 160 -346zM500 -422q123 14 196.5 63.5t73.5 131.5q0 68 -55 106q-63 49 -258 80l-35 6q-152 -74 -152 -203
q0 -74 61.5 -123t168.5 -61z" />
    <glyph glyph-name="uni0122" unicode="&#x122;" horiz-adv-x="1662" 
d="M854 602q245 -10 471 -10q128 0 313 10l4 -29q-80 -18 -118 -79q-39 -55 -39 -158q0 -98 37 -219q-277 -140 -633 -140q-312 0 -535 183q-115 96 -179 235.5t-64 302.5q0 170 65.5 315.5t183.5 246.5q227 198 555 198q297 0 523 -88q10 -61 20 -206t23 -240l-27 -4
q-92 168 -231 301q-171 166 -351 188q-81 -26 -160 -87.5t-139 -150.5q-127 -184 -127 -434q0 -277 158 -481q129 -166 334 -229q97 7 170 71q80 69 80 205q0 112 -82 182t-256 84zM762 -473l-12 22q77 56 77 136q0 30 -30.5 76.5t-30.5 74.5q0 40 33 68t82 28
q56 0 88 -33.5t32 -88.5q0 -100 -79 -179q-67 -72 -160 -104z" />
    <glyph glyph-name="uni0123" unicode="&#x123;" horiz-adv-x="1103" 
d="M621 1473l12 -23q-78 -56 -78 -135q0 -30 30.5 -77t30.5 -75q0 -40 -32.5 -68t-81.5 -28q-56 0 -88.5 34t-32.5 89q0 98 80 178q68 74 160 105zM471 -467q-219 0 -340 59q-117 58 -117 150q0 43 27.5 79t80 64t110.5 49t137 41l-199 31l-4 25l338 176q-175 41 -283 125
q-121 93 -121 235q0 156 129 275q131 112 306 112q63 0 143 -26q42 14 83.5 46.5t68 63t60 54.5t64.5 24q57 0 92 -44t35 -105q0 -44 -28.5 -70.5t-71.5 -26.5q-28 0 -118 17.5t-144 19.5q100 -46 161.5 -127t61.5 -188q-3 -150 -131 -256q-69 -58 -246 -146l-100 -51
l125 -16q251 -28 366 -100q103 -69 103 -191q0 -126 -156 -209q-172 -90 -432 -90zM543 238q116 109 116 342q0 127 -45.5 211.5t-105.5 119.5q-53 -40 -89 -123t-36 -204q0 -231 160 -346zM500 -422q123 14 196.5 63.5t73.5 131.5q0 68 -55 106q-63 49 -258 80l-35 6
q-152 -74 -152 -203q0 -74 61.5 -123t168.5 -61z" />
    <glyph glyph-name="Hcircumflex" unicode="&#x124;" horiz-adv-x="1703" 
d="M512 1563q46 38 93.5 81t112 104t81.5 77q39 35 69 35q31 0 70 -35q21 -19 82 -77t108 -101.5t95 -83.5l-13 -21q-197 56 -348 119q-154 -61 -338 -119zM20 23q81 23 132 67q65 57 84 170q18 124 18 483q0 267 -9.5 383t-47.5 174q-25 38 -62.5 63t-63 33t-59.5 15l2 25
q38 0 170.5 -3t198.5 -3q68 0 356 6l2 -25q-131 -39 -170 -176q-20 -80 -20 -412v-49q104 -2 301 -2q192 0 301 2v150q0 173 -12 245t-39 125q-41 73 -139 117l2 25q270 -6 338 -6q208 0 346 6l4 -27q-106 -34 -150 -109q-38 -62 -43 -153q-10 -107 -10 -350q0 -443 12 -527
q17 -101 62 -164q36 -51 125 -81l-7 -27q-318 6 -348 6q-15 0 -360 -6l-2 27q98 31 151 102q49 62 60 170q10 76 10 305v107q-98 2 -301 2q-205 0 -301 -2v-27q0 -251 11.5 -367t47.5 -180q42 -74 142 -112l-2 -25q-264 6 -349 6q-156 0 -378 -6z" />
    <glyph glyph-name="hcircumflex" unicode="&#x125;" horiz-adv-x="1202" 
d="M250 1665q46 38 93.5 81t112 104t81.5 77q39 35 69 35q31 0 70 -35q21 -19 82 -77t108 -101.5t95 -83.5l-13 -20q-205 58 -348 118q-142 -56 -338 -118zM18 20q79 29 101 84q26 55 35 154q4 94 4 186v240q0 231 -6 354q-7 259 -35 318q-13 26 -38 40.5t-52 14.5
q-13 0 -33 -4l-8 25q18 8 68.5 27.5t97.5 40t81 38.5q47 28 103 54t76 26l22 -14q10 -59 10 -160q0 -31 -2 -271.5t-2 -402.5q78 59 127 91.5t116 61.5t122 29q204 0 231 -211q9 -58 13 -249q4 -184 14 -263q10 -92 39 -137q33 -54 102 -72l-2 -22q-42 0 -136 3t-148 3
q-77 0 -281 -6l-2 22q40 21 65 47.5t39 73.5q25 84 25 281q0 169 -23 254q-32 108 -155 108q-69 0 -146 -57v-225q0 -248 23 -342q32 -116 123 -140l-2 -22q-20 0 -133 3t-164 3q-59 0 -161.5 -3t-105.5 -3z" />
    <glyph glyph-name="Hbar" unicode="&#x126;" horiz-adv-x="1703" 
d="M20 23q81 23 132 67q65 57 84 170q18 99 18 483q0 209 -4 289q-42 0 -117 -1t-104 -1v62q63 -2 219 -2q-12 150 -51 210q-25 38 -62.5 63t-63 33t-59.5 15l2 25q38 0 170.5 -3t198.5 -3q68 0 356 6l2 -25q-131 -39 -170 -176q-13 -57 -16 -148h594q-9 133 -47 207
q-41 73 -139 117l2 25q270 -6 338 -6q208 0 346 6l4 -27q-106 -34 -150 -109q-44 -73 -47 -213q36 0 221 5v-62q-27 0 -103 1t-122 1q-2 -68 -2 -235q0 -443 12 -527q17 -101 62 -164q36 -51 125 -81l-7 -27q-318 6 -348 6q-15 0 -360 -6l-2 27q98 31 151 102q49 62 60 170
q10 76 10 305v107q-98 2 -301 2q-205 0 -301 -2v-27q0 -251 11.5 -367t47.5 -180q42 -74 142 -112l-2 -25q-264 6 -349 6q-156 0 -378 -6zM852 772q192 0 301 2v150q0 77 -2 108h-598q-2 -59 -2 -209v-49q104 -2 301 -2z" />
    <glyph glyph-name="hbar" unicode="&#x127;" horiz-adv-x="1202" 
d="M18 20q79 29 101 84q26 55 35 154q4 94 4 186v240q0 294 -6 453q-34 0 -89.5 -1t-68.5 -1v57q49 -2 153 -2q-10 127 -30 166q-13 26 -38 40.5t-52 14.5q-13 0 -33 -4l-8 25q18 8 68.5 27.5t97.5 40t81 38.5q47 28 103 54t76 26l22 -14q10 -59 10 -160q0 -18 -1 -104.5
t-1 -149.5q195 0 273 2v-57q-74 2 -273 2q-2 -119 -2 -367q78 59 127 91.5t116 61.5t122 29q204 0 231 -211q9 -58 13 -249q4 -184 14 -263q10 -92 39 -137q33 -54 102 -72l-2 -22q-42 0 -136 3t-148 3q-77 0 -281 -6l-2 22q40 21 65 47.5t39 73.5q25 84 25 281
q0 169 -23 254q-32 108 -155 108q-69 0 -146 -57v-225q0 -248 23 -342q32 -116 123 -140l-2 -22q-20 0 -133 3t-164 3q-59 0 -161.5 -3t-105.5 -3z" />
    <glyph glyph-name="Itilde" unicode="&#x128;" horiz-adv-x="804" 
d="M45 1577q29 117 86 187.5t131 70.5q73 0 195 -51q114 -49 176 -49q95 0 145 102l25 -10q-37 -121 -98 -191.5t-140 -70.5q-62 0 -184 49q-115 51 -178 51q-86 0 -133 -96zM20 23q81 23 132 67q65 57 84 170q18 99 18 483q0 267 -9.5 383t-47.5 174q-25 38 -62.5 63
t-63 33t-59.5 15l2 25q38 0 170.5 -3t198.5 -3q79 0 367 6l2 -25q-63 -15 -107 -55.5t-65 -98.5q-14 -38 -20.5 -115t-7.5 -148t-1 -228q0 -284 8.5 -408t36.5 -184q37 -107 154 -151l-5 -25q-282 6 -350 6q-150 0 -372 -6z" />
    <glyph glyph-name="itilde" unicode="&#x129;" horiz-adv-x="595" 
d="M-53 1116q29 117 86 187.5t131 70.5q37 0 70 -10.5t88 -36.5q116 -53 167 -53q95 0 142 102l24 -10q-37 -122 -98 -192t-141 -70q-12 0 -23.5 1t-24.5 4.5t-21 6t-23.5 9.5t-22 10t-26.5 13t-27 13q-91 43 -148 43q-85 0 -129 -96zM16 20q72 23 97 72q47 83 47 311
q0 239 -31 306q-23 61 -76 61q-19 0 -39 -4l-6 22q147 67 201 97q63 39 123 68.5t82 29.5q5 0 11 -5t7 -13q8 -47 8 -152q0 -21 -2 -130t-2 -173v-119q0 -183 37 -264q33 -85 115 -107l-2 -22q-204 6 -295 6q-108 0 -273 -6z" />
    <glyph glyph-name="Imacron" unicode="&#x12a;" horiz-adv-x="804" 
d="M63 1739q86 -2 304 -2q203 0 356 6l-2 -92q-100 2 -342 2q-213 0 -311 -4zM20 23q81 23 132 67q65 57 84 170q18 99 18 483q0 267 -9.5 383t-47.5 174q-25 38 -62.5 63t-63 33t-59.5 15l2 25q38 0 170.5 -3t198.5 -3q79 0 367 6l2 -25q-63 -15 -107 -55.5t-65 -98.5
q-14 -38 -20.5 -115t-7.5 -148t-1 -228q0 -284 8.5 -408t36.5 -184q37 -107 154 -151l-5 -25q-282 6 -350 6q-150 0 -372 -6z" />
    <glyph glyph-name="imacron" unicode="&#x12b;" horiz-adv-x="595" 
d="M4 1278q80 -2 266 -2q178 0 322 6l-2 -92q-94 2 -307 2q-183 0 -275 -4zM16 20q72 23 97 72q47 83 47 311q0 239 -31 306q-23 61 -76 61q-19 0 -39 -4l-6 22q147 67 201 97q63 39 123 68.5t82 29.5q5 0 11 -5t7 -13q8 -47 8 -152q0 -21 -2 -130t-2 -173v-119
q0 -183 37 -264q33 -85 115 -107l-2 -22q-204 6 -295 6q-108 0 -273 -6z" />
    <glyph glyph-name="Ibreve" unicode="&#x12c;" horiz-adv-x="804" 
d="M401 1542q-115 0 -198 80q-83 83 -115 238l23 10q42 -67 121.5 -112.5t181.5 -45.5q94 0 166 44.5t114 113.5l23 -10q-34 -157 -113 -236q-85 -82 -203 -82zM20 23q81 23 132 67q65 57 84 170q18 99 18 483q0 267 -9.5 383t-47.5 174q-25 38 -62.5 63t-63 33t-59.5 15
l2 25q38 0 170.5 -3t198.5 -3q79 0 367 6l2 -25q-63 -15 -107 -55.5t-65 -98.5q-14 -38 -20.5 -115t-7.5 -148t-1 -228q0 -284 8.5 -408t36.5 -184q37 -107 154 -151l-5 -25q-282 6 -350 6q-150 0 -372 -6z" />
    <glyph glyph-name="ibreve" unicode="&#x12d;" horiz-adv-x="595" 
d="M295 1071q-115 0 -199 84q-77 80 -108 236l22 10q40 -68 118 -114t179 -46q91 0 165.5 45.5t113.5 114.5l22 -10q-32 -151 -114 -236q-78 -84 -199 -84zM16 20q72 23 97 72q47 83 47 311q0 239 -31 306q-23 61 -76 61q-19 0 -39 -4l-6 22q147 67 201 97q63 39 123 68.5
t82 29.5q5 0 11 -5t7 -13q8 -47 8 -152q0 -21 -2 -130t-2 -173v-119q0 -183 37 -264q33 -85 115 -107l-2 -22q-204 6 -295 6q-108 0 -273 -6z" />
    <glyph glyph-name="Iogonek" unicode="&#x12e;" horiz-adv-x="804" 
d="M20 23q81 23 132 67q65 57 84 170q18 99 18 483q0 267 -9.5 383t-47.5 174q-25 38 -62.5 63t-63 33t-59.5 15l2 25q38 0 170.5 -3t198.5 -3q79 0 367 6l2 -25q-63 -15 -107 -55.5t-65 -98.5q-14 -38 -20.5 -115t-7.5 -148t-1 -228q0 -284 8.5 -408t36.5 -184
q37 -107 154 -151l-5 -25q-118 4 -221 4q-145 -126 -145 -260q0 -61 32 -95t85 -34q56 0 108 25l8 -21q-125 -88 -241 -88q-83 0 -129 43q-47 41 -47 113q0 95 118 198q63 57 156 121h-74q-150 0 -372 -6z" />
    <glyph glyph-name="iogonek" unicode="&#x12f;" horiz-adv-x="595" 
d="M186 1063q-51 81 -51 172q0 70 50.5 123t131.5 53q61 0 98.5 -37.5t37.5 -93.5q0 -51 -29 -84.5t-82 -62.5q-12 -6 -62.5 -32t-74.5 -42zM16 20q72 23 97 72q47 89 47 311q0 239 -31 306q-23 61 -76 61q-19 0 -39 -4l-6 22q147 67 201 97q63 39 123 68.5t82 29.5
q12 0 18 -18q8 -44 8 -152q0 -21 -2 -130t-2 -173v-119q0 -183 37 -264q33 -85 115 -107l-2 -22q-24 1 -81 2t-85 2q-146 -124 -146 -260q0 -61 32 -95t87 -34q54 0 109 25l8 -21q-129 -88 -244 -88q-81 0 -127 43q-47 41 -47 113q0 96 117 198q63 57 156 121h-74
q-108 0 -273 -6z" />
    <glyph glyph-name="Idotaccent" unicode="&#x130;" horiz-adv-x="804" 
d="M389 1556q-64 0 -101.5 40t-37.5 102q0 71 50 115.5t122 44.5q60 0 97.5 -40t37.5 -100q0 -70 -49.5 -116t-118.5 -46zM20 23q81 23 132 67q65 57 84 170q18 99 18 483q0 267 -9.5 383t-47.5 174q-25 38 -62.5 63t-63 33t-59.5 15l2 25q38 0 170.5 -3t198.5 -3
q79 0 367 6l2 -25q-63 -15 -107 -55.5t-65 -98.5q-14 -38 -20.5 -115t-7.5 -148t-1 -228q0 -284 8.5 -408t36.5 -184q37 -107 154 -151l-5 -25q-282 6 -350 6q-150 0 -372 -6z" />
    <glyph glyph-name="dotlessi" unicode="&#x131;" horiz-adv-x="595" 
d="M16 20q72 23 97 72q47 83 47 311q0 239 -31 306q-23 61 -76 61q-19 0 -39 -4l-6 22q147 67 201 97q63 39 123 68.5t82 29.5q5 0 11 -5t7 -13q8 -47 8 -152q0 -21 -2 -130t-2 -173v-119q0 -183 37 -264q33 -85 115 -107l-2 -22q-204 6 -295 6q-108 0 -273 -6z" />
    <glyph glyph-name="IJ" unicode="&#x132;" horiz-adv-x="1628" 
d="M20 23q81 23 132 67q65 57 84 170q18 99 18 483q0 267 -9.5 383t-47.5 174q-25 38 -62.5 63t-63 33t-59.5 15l2 25q38 0 170.5 -3t198.5 -3q79 0 367 6l2 -25q-63 -15 -107 -55.5t-65 -98.5q-14 -38 -20.5 -115t-7.5 -148t-1 -228q0 -284 8.5 -408t36.5 -184
q37 -107 154 -151l-5 -25q-282 6 -350 6q-150 0 -372 -6zM842 -362q166 150 213 417q35 205 35 656v53q0 249 -10.5 363.5t-49.5 172.5q-37 55 -82 78t-100 33l2 25q38 0 170.5 -3t198.5 -3q78 0 366 6l2 -25q-139 -39 -178 -170q-14 -51 -18.5 -159.5t-4.5 -329.5
q0 -94 3.5 -297t3.5 -232q0 -228 -105 -368q-62 -88 -183 -155t-251 -87z" />
    <glyph glyph-name="ij" unicode="&#x133;" horiz-adv-x="1185" 
d="M186 1083q-51 77 -51 172q0 70 50.5 123.5t131.5 53.5q61 0 98.5 -38t37.5 -94q0 -51 -29 -84.5t-82 -62.5q-12 -6 -62.5 -32t-74.5 -42zM784 1083q-51 77 -51 172q0 70 50 123.5t132 53.5q61 0 98.5 -38t37.5 -94q0 -51 -29 -84.5t-82 -62.5q-12 -6 -62.5 -32t-74.5 -42
zM16 20q72 23 97 72q47 83 47 311q0 239 -31 306q-23 61 -76 61q-19 0 -39 -4l-6 22q147 67 201 97q63 39 123 68.5t82 29.5q5 0 11 -5t7 -13q8 -47 8 -152q0 -21 -2 -130t-2 -173v-119q0 -183 37 -264q33 -85 115 -107l-2 -22q-204 6 -295 6q-108 0 -273 -6zM598 -430
q97 93 129 305q31 188 31 555q0 203 -29 281q-25 59 -80 59q-21 0 -37 -4l-6 22q103 44 180 86q186 109 226 109q26 0 26 -111q0 -49 -2 -189.5t-2 -211.5q0 -70 3 -228.5t3 -191.5q0 -200 -102 -321q-107 -129 -328 -183z" />
    <glyph glyph-name="Jcircumflex" unicode="&#x134;" horiz-adv-x="823" 
d="M76 1563q46 38 94 82t109.5 102.5t82.5 77.5q39 35 70 35t70 -35q24 -22 82 -77.5t106.5 -100t95.5 -84.5l-12 -21q-197 56 -348 119q-154 -61 -338 -119zM37 -362q166 150 213 417q35 205 35 656v53q0 249 -10.5 363.5t-49.5 172.5q-37 55 -82 78t-100 33l2 25
q38 0 170.5 -3t198.5 -3q78 0 366 6l2 -25q-139 -39 -178 -170q-14 -50 -18 -156.5t-4 -332.5q0 -94 3 -297t3 -232q0 -228 -105 -368q-62 -88 -183 -155t-251 -87z" />
    <glyph glyph-name="jcircumflex" unicode="&#x135;" horiz-adv-x="589" 
d="M-41 1051q95 108 264 350q19 27 34.5 39t37.5 12q21 0 36 -12t34 -39q124 -181 264 -350l-15 -19q-106 54 -325 195q-225 -144 -316 -195zM2 -430q97 93 129 305q31 188 31 555q0 203 -29 281q-25 59 -80 59q-21 0 -37 -4l-6 22q103 44 180 86q186 109 226 109
q26 0 26 -111q0 -49 -2 -189.5t-2 -211.5q0 -70 3 -228.5t3 -191.5q0 -200 -102 -321q-107 -129 -328 -183z" />
    <glyph glyph-name="uni0136" unicode="&#x136;" horiz-adv-x="1589" 
d="M20 23q73 19 127 63q35 27 58 74.5t31 95.5q18 99 18 487q0 268 -10 385t-49 175q-59 84 -183 108l2 25q38 0 170.5 -3t198.5 -3q68 0 356 6l2 -25q-132 -45 -168 -170q-14 -52 -18 -154t-4 -325v-90q93 46 174 110q91 69 166 152q145 155 145 301q0 64 -39 111
q-38 44 -104 63l2 25q27 0 151 -1t191 -1q70 0 180.5 2t122.5 2l2 -25q-77 -27 -182 -115q-86 -69 -201 -190q-12 -12 -116 -120.5t-160 -158.5q71 -71 232 -269.5t259 -299.5q74 -77 148 -129q100 -69 151 -80q19 0 39 4l6 -24q-115 -45 -274 -45q-90 0 -152 18
q-124 39 -237 152q-102 98 -224 274l-159 236q-69 -45 -121 -84v-33q0 -176 12.5 -268.5t44.5 -147.5q48 -75 142 -108l-2 -25q-264 6 -353 6q-150 0 -372 -6zM725 -473l-12 22q78 56 78 136q0 30 -31 76.5t-31 74.5q0 40 33 68t82 28q56 0 88.5 -33.5t32.5 -88.5
q0 -99 -80 -179q-67 -72 -160 -104z" />
    <glyph glyph-name="uni0137" unicode="&#x137;" horiz-adv-x="1202" 
d="M1032 -18q-157 0 -250 84q-73 65 -147 192q-106 177 -123 199q-33 -17 -72 -29q3 -198 23 -268q28 -115 125 -140l-2 -22q-22 0 -135 3t-164 3q-59 0 -161.5 -3t-105.5 -3l-2 22q79 29 101 84q26 55 35 154q4 94 4 186v293q0 178 -6 301q-7 259 -35 318q-13 26 -38 40.5
t-52 14.5q-13 0 -33 -4l-8 25q18 8 68.5 27.5t97.5 40t81 38.5q47 28 103 54t76 26q11 -3 22 -14q10 -59 10 -160q0 -35 -2 -372t-2 -542v-51q14 3 72 23q73 31 123 69q113 84 113 183q0 56 -31 97t-86 60l2 23q132 -8 258 -8q55 0 141.5 3t106.5 3l2 -23q-71 -21 -199 -135
q-135 -120 -221 -190q41 -42 86 -100t100.5 -135t91.5 -122q73 -95 162 -161q52 -40 92 -46l-2 -20q-91 -18 -219 -18zM487 -473l-12 22q78 56 78 136q0 30 -30.5 76.5t-30.5 74.5q0 40 32.5 68t81.5 28q56 0 88.5 -33.5t32.5 -88.5q0 -99 -80 -179q-67 -72 -160 -104z" />
    <glyph glyph-name="kgreenlandic" unicode="&#x138;" horiz-adv-x="1202" 
d="M1032 -18q-157 0 -250 84q-75 67 -151 192q-14 22 -36.5 59t-33.5 54.5t-25 38t-24 32.5q-24 -11 -72 -26q3 -186 23 -256q28 -115 125 -140l-2 -22q-22 0 -135 3t-164 3q-59 0 -161.5 -3t-105.5 -3l-2 22q79 29 101 84q27 57 35 152q4 82 4 186q0 80 -4 150
q-12 118 -43 149q-26 29 -64 29q-15 0 -31 -4l-6 22q170 81 219 109q51 32 106.5 59t76.5 27l20 -6q12 -43 12 -107q0 -20 -2 -145t-2 -197v-61q31 6 74 20q66 24 123 72q111 83 111 195q0 56 -31 97t-86 60l2 23q132 -8 258 -8q55 0 141.5 3t106.5 3l2 -23
q-71 -21 -199 -135q-43 -36 -122.5 -111.5t-98.5 -93.5q41 -39 84.5 -92.5t102 -131t91.5 -118.5q79 -99 162 -161q52 -40 92 -46l-2 -20q-91 -18 -219 -18z" />
    <glyph glyph-name="Lacute" unicode="&#x139;" horiz-adv-x="1298" 
d="M248 1565q158 104 330 272q35 35 69 35q46 0 76.5 -40t30.5 -81q0 -59 -64 -92q-80 -45 -346 -98l-88 -19zM23 23q40 10 83.5 34t69.5 56q58 69 68 219q10 88 10 286v142q0 251 -10 366.5t-47 173.5q-25 38 -62.5 63t-63 33t-59.5 15l2 25q38 0 170.5 -3t198.5 -3
q117 0 399 6l4 -25q-101 -25 -152 -76.5t-65 -128.5q-18 -86 -18 -389v-147q0 -279 8 -383q14 -144 82 -195q53 -40 150 -43q125 40 247 133q120 94 209 242l27 -6q-12 -63 -34.5 -210.5t-35.5 -205.5q-62 -4 -151 -4q-118 0 -351.5 2t-314.5 2q-210 0 -362 -4z" />
    <glyph glyph-name="lacute" unicode="&#x13a;" horiz-adv-x="600" 
d="M96 1667q158 104 330 272q35 35 70 35q46 0 76 -39.5t30 -81.5q0 -60 -63 -92q-80 -45 -346 -98l-89 -18zM18 20q79 29 101 84q26 55 35 154q4 94 4 186v293q0 178 -6 301q-7 259 -35 318q-13 26 -38 40.5t-52 14.5q-13 0 -33 -4l-8 25q18 8 68.5 27.5t97.5 40t81 38.5
q47 28 103 54t76 26l22 -14q10 -59 10 -160q0 -36 -2 -384.5t-2 -557.5q0 -245 23 -342q34 -116 127 -140l-2 -22q-22 0 -136 3t-165 3q-59 0 -161.5 -3t-105.5 -3z" />
    <glyph glyph-name="uni013B" unicode="&#x13b;" horiz-adv-x="1298" 
d="M23 23q40 10 83.5 34t69.5 56q58 69 68 219q10 88 10 286v142q0 251 -10 366.5t-47 173.5q-25 38 -62.5 63t-63 33t-59.5 15l2 25q38 0 170.5 -3t198.5 -3q117 0 399 6l4 -25q-101 -25 -152 -76.5t-65 -128.5q-18 -86 -18 -389v-147q0 -279 8 -383q14 -144 82 -195
q53 -40 150 -43q125 40 247 133q120 94 209 242l27 -6q-12 -63 -34.5 -210.5t-35.5 -205.5q-62 -4 -151 -4q-118 0 -351.5 2t-314.5 2q-210 0 -362 -4zM532 -473l-12 22q78 56 78 136q0 30 -30.5 76.5t-30.5 74.5q0 40 32.5 68t81.5 28q56 0 88.5 -33.5t32.5 -88.5
q0 -99 -80 -179q-67 -72 -160 -104z" />
    <glyph glyph-name="uni013C" unicode="&#x13c;" horiz-adv-x="600" 
d="M18 20q79 29 101 84q26 55 35 154q4 94 4 186v293q0 178 -6 301q-7 259 -35 318q-13 26 -38 40.5t-52 14.5q-13 0 -33 -4l-8 25q18 8 68.5 27.5t97.5 40t81 38.5q47 28 103 54t76 26l22 -14q10 -59 10 -160q0 -36 -2 -384.5t-2 -557.5q0 -245 23 -342q34 -116 127 -140
l-2 -22q-22 0 -136 3t-165 3q-59 0 -161.5 -3t-105.5 -3zM188 -473l-12 22q78 56 78 136q0 30 -30.5 76.5t-30.5 74.5q0 40 32.5 68t81.5 28q56 0 88.5 -33.5t32.5 -88.5q0 -99 -80 -179q-67 -72 -160 -104z" />
    <glyph glyph-name="Lcaron" unicode="&#x13d;" horiz-adv-x="1298" 
d="M874 973q111 83 111 198q1 48 -32 104.5t-33 88.5q0 56 38 89.5t95 33.5q60 0 96.5 -44.5t36.5 -113.5q0 -130 -88 -231q-76 -92 -211 -148zM23 23q40 10 83.5 34t69.5 56q58 69 68 219q10 88 10 286v142q0 251 -10 366.5t-47 173.5q-25 38 -62.5 63t-63 33t-59.5 15
l2 25q38 0 170.5 -3t198.5 -3q117 0 399 6l4 -25q-101 -25 -152 -76.5t-65 -128.5q-18 -86 -18 -389v-147q0 -279 8 -383q14 -144 82 -195q53 -40 150 -43q125 40 247 133q120 94 209 242l27 -6q-12 -63 -34.5 -210.5t-35.5 -205.5q-62 -4 -151 -4q-118 0 -351.5 2t-314.5 2
q-210 0 -362 -4z" />
    <glyph glyph-name="lcaron" unicode="&#x13e;" horiz-adv-x="600" 
d="M18 20q79 29 101 84q26 55 35 154q4 94 4 186v293q0 178 -6 301q-7 259 -35 318q-13 26 -38 40.5t-52 14.5q-13 0 -33 -4l-8 25q18 8 68.5 27.5t97.5 40t81 38.5q47 28 103 54t76 26l22 -14q10 -59 10 -160q0 -36 -2 -384.5t-2 -557.5q0 -245 23 -342q34 -116 127 -140
l-2 -22q-22 0 -136 3t-165 3q-59 0 -161.5 -3t-105.5 -3zM563 950q111 83 111 199q1 48 -32.5 104t-33.5 88q0 56 38 89.5t95 33.5q60 0 96.5 -44t36.5 -113q0 -131 -88 -232q-75 -90 -211 -147z" />
    <glyph glyph-name="Ldot" unicode="&#x13f;" horiz-adv-x="1298" 
d="M23 23q40 10 83.5 34t69.5 56q58 69 68 219q10 88 10 286v142q0 251 -10 366.5t-47 173.5q-25 38 -62.5 63t-63 33t-59.5 15l2 25q38 0 170.5 -3t198.5 -3q117 0 399 6l4 -25q-101 -25 -152 -76.5t-65 -128.5q-18 -86 -18 -389v-147q0 -279 8 -383q14 -144 82 -195
q53 -40 150 -43q125 40 247 133q120 94 209 242l27 -6q-12 -63 -34.5 -210.5t-35.5 -205.5q-62 -4 -151 -4q-118 0 -351.5 2t-314.5 2q-210 0 -362 -4zM1016 621q-64 0 -101.5 39.5t-37.5 99.5q0 72 50 117t122 45q60 0 97.5 -40.5t37.5 -101.5q0 -70 -49 -114.5t-119 -44.5
z" />
    <glyph glyph-name="ldot" unicode="&#x140;" horiz-adv-x="933" 
d="M18 20q79 29 101 84q26 55 35 154q4 94 4 186v293q0 178 -6 301q-7 259 -35 318q-13 26 -38 40.5t-52 14.5q-13 0 -33 -4l-8 25q18 8 68.5 27.5t97.5 40t81 38.5q47 28 103 54t76 26l22 -14q10 -59 10 -160q0 -36 -2 -384.5t-2 -557.5q0 -245 23 -342q34 -116 127 -140
l-2 -22q-22 0 -136 3t-165 3q-59 0 -161.5 -3t-105.5 -3zM750 387q-64 0 -102 39.5t-38 99.5q0 72 50 117t122 45q61 0 98.5 -40t37.5 -101q0 -70 -49.5 -115t-118.5 -45z" />
    <glyph glyph-name="Lslash" unicode="&#x141;" horiz-adv-x="1298" 
d="M23 23q40 10 83.5 34t69.5 56q58 69 68 219q10 85 10 262v27q-74 -38 -201 -109l-26 57q89 42 227 113v78q0 251 -10 366.5t-47 173.5q-25 38 -62.5 63t-63 33t-59.5 15l2 25q38 0 170.5 -3t198.5 -3q123 0 399 6l4 -25q-187 -47 -217 -205q-18 -76 -18 -348v-18
q180 94 289 155l28 -55q-35 -17 -87.5 -44.5t-122 -64.5t-107.5 -57v-96q0 -287 8 -391q14 -144 82 -195q53 -40 150 -43q125 40 247 133q120 94 209 242l27 -6q-12 -63 -34.5 -210.5t-35.5 -205.5q-62 -4 -151 -4q-118 0 -351.5 2t-314.5 2q-210 0 -362 -4z" />
    <glyph glyph-name="lslash" unicode="&#x142;" horiz-adv-x="665" 
d="M51 20q38 14 62.5 32t40.5 52q22 52 32 154q4 94 4 186v109q-28 -17 -80 -47.5t-71 -42.5l-29 51l180 98v125q0 137 -4 301q-4 94 -6.5 140t-10 99.5t-19.5 78.5t-37.5 40t-53.5 15q-14 0 -30 -4l-9 25q8 3 105 42.5t141 63.5q48 29 103.5 54.5t76.5 25.5l21 -14
q12 -70 12 -160q0 -45 -2 -283.5t-2 -386.5q16 10 72.5 44t87.5 54l29 -51l-189 -104v-215q0 -257 23 -342q29 -115 125 -140l-2 -22q-22 0 -136.5 3t-165.5 3q-59 0 -161 -3t-105 -3z" />
    <glyph glyph-name="Nacute" unicode="&#x143;" horiz-adv-x="1658" 
d="M674 1565q158 104 330 272q35 35 69 35q46 0 76.5 -40t30.5 -81q0 -59 -64 -92q-80 -45 -346 -98l-88 -19zM6 23q71 29 127 92q96 108 115 315q14 172 14 549q0 230 -127 340q-83 72 -186 92l2 25q136 -4 242 -4q47 0 115 2t83 2q34 0 58 -6q133 -158 295.5 -340.5
t277.5 -306.5t311 -334q8 93 8 223q0 116 -8 260q-6 92 -29 176t-55 139q-75 121 -217 164l2 25q36 0 155.5 -3t170.5 -3q116 0 305 6l2 -25q-84 -27 -151 -115q-46 -62 -70 -147q-24 -90 -31 -217q-8 -88 -8 -342v-293q0 -165 10 -328l-41 -6q-591 674 -1032 1135h-8
q-8 -104 -8 -234q0 -142 6 -321q6 -132 25 -220t40 -126.5t56 -75.5q73 -73 180 -98l-2 -25q-13 0 -143.5 3t-196.5 3q-55 0 -160 -3t-125 -3z" />
    <glyph glyph-name="nacute" unicode="&#x144;" horiz-adv-x="1202" 
d="M406 1051q122 144 249 350q34 55 80 55q44 0 78.5 -39.5t34.5 -85.5q0 -38 -39 -74q-71 -68 -297 -180l-92 -45zM18 20q79 29 101 84q26 55 35 154q4 94 4 186q0 183 -27 263q-9 29 -31 46t-51 17q-17 0 -33 -4l-6 22q136 62 223 111q49 31 102.5 57.5t76.5 26.5
q7 0 13.5 -4t6.5 -10q8 -49 8 -168v-31q118 89 202.5 135.5t162.5 46.5q204 0 231 -211q9 -58 13 -249q4 -184 14 -263q10 -92 39 -137q33 -54 102 -72l-2 -22q-42 0 -136 3t-148 3q-77 0 -281 -6l-2 22q40 21 65 47.5t39 73.5q25 84 25 281q0 169 -23 254q-32 108 -155 108
q-69 0 -146 -57v-225q0 -248 23 -342q32 -116 123 -140l-2 -22q-20 0 -133 3t-164 3q-59 0 -161.5 -3t-105.5 -3z" />
    <glyph glyph-name="uni0145" unicode="&#x145;" horiz-adv-x="1658" 
d="M6 23q71 29 127 92q96 108 115 315q14 172 14 549q0 230 -127 340q-83 72 -186 92l2 25q136 -4 242 -4q47 0 115 2t83 2q34 0 58 -6q133 -158 295.5 -340.5t277.5 -306.5t311 -334q8 93 8 223q0 116 -8 260q-6 92 -29 176t-55 139q-75 121 -217 164l2 25q36 0 155.5 -3
t170.5 -3q116 0 305 6l2 -25q-84 -27 -151 -115q-46 -62 -70 -147q-24 -90 -31 -217q-8 -88 -8 -342v-293q0 -165 10 -328l-41 -6q-591 674 -1032 1135h-8q-8 -104 -8 -234q0 -142 6 -321q6 -132 25 -220t40 -126.5t56 -75.5q73 -73 180 -98l-2 -25q-13 0 -143.5 3t-196.5 3
q-55 0 -160 -3t-125 -3zM719 -473l-12 22q77 56 77 136q0 30 -30.5 76.5t-30.5 74.5q0 40 33 68t82 28q56 0 88 -33.5t32 -88.5q0 -100 -79 -179q-67 -72 -160 -104z" />
    <glyph glyph-name="uni0146" unicode="&#x146;" horiz-adv-x="1202" 
d="M18 20q79 29 101 84q26 55 35 154q4 94 4 186q0 183 -27 263q-9 29 -31 46t-51 17q-17 0 -33 -4l-6 22q136 62 223 111q49 31 102.5 57.5t76.5 26.5q7 0 13.5 -4t6.5 -10q8 -49 8 -168v-31q118 89 202.5 135.5t162.5 46.5q204 0 231 -211q9 -58 13 -249q4 -184 14 -263
q10 -92 39 -137q33 -54 102 -72l-2 -22q-42 0 -136 3t-148 3q-77 0 -281 -6l-2 22q40 21 65 47.5t39 73.5q25 84 25 281q0 169 -23 254q-32 108 -155 108q-69 0 -146 -57v-225q0 -248 23 -342q32 -116 123 -140l-2 -22q-20 0 -133 3t-164 3q-59 0 -161.5 -3t-105.5 -3z
M489 -473l-12 22q78 56 78 136q0 30 -30.5 76.5t-30.5 74.5q0 40 32.5 68t81.5 28q56 0 88.5 -33.5t32.5 -88.5q0 -99 -80 -179q-67 -72 -160 -104z" />
    <glyph glyph-name="Ncaron" unicode="&#x147;" horiz-adv-x="1658" 
d="M842 1540q-37 0 -72 35q-210 200 -283 262l13 21q156 -45 346 -119q211 79 340 119l12 -21q-86 -71 -287 -262q-39 -35 -69 -35zM6 23q71 29 127 92q96 108 115 315q14 172 14 549q0 230 -127 340q-83 72 -186 92l2 25q136 -4 242 -4q47 0 115 2t83 2q34 0 58 -6
q133 -158 295.5 -340.5t277.5 -306.5t311 -334q8 93 8 223q0 116 -8 260q-6 92 -29 176t-55 139q-75 121 -217 164l2 25q36 0 155.5 -3t170.5 -3q116 0 305 6l2 -25q-84 -27 -151 -115q-46 -62 -70 -147q-24 -90 -31 -217q-8 -88 -8 -342v-293q0 -165 10 -328l-41 -6
q-591 674 -1032 1135h-8q-8 -104 -8 -234q0 -142 6 -321q6 -132 25 -220t40 -126.5t56 -75.5q73 -73 180 -98l-2 -25q-13 0 -143.5 3t-196.5 3q-55 0 -160 -3t-125 -3z" />
    <glyph glyph-name="ncaron" unicode="&#x148;" horiz-adv-x="1202" 
d="M598 1030q-21 0 -36 12t-34 39q-149 218 -264 351l15 18q106 -54 325 -195q212 136 316 195l14 -18q-92 -104 -264 -351q-31 -51 -72 -51zM18 20q79 29 101 84q26 55 35 154q4 94 4 186q0 183 -27 263q-9 29 -31 46t-51 17q-17 0 -33 -4l-6 22q136 62 223 111
q49 31 102.5 57.5t76.5 26.5q7 0 13.5 -4t6.5 -10q8 -49 8 -168v-31q118 89 202.5 135.5t162.5 46.5q204 0 231 -211q9 -58 13 -249q4 -184 14 -263q10 -92 39 -137q33 -54 102 -72l-2 -22q-42 0 -136 3t-148 3q-77 0 -281 -6l-2 22q40 21 65 47.5t39 73.5q25 84 25 281
q0 169 -23 254q-32 108 -155 108q-69 0 -146 -57v-225q0 -248 23 -342q32 -116 123 -140l-2 -22q-20 0 -133 3t-164 3q-59 0 -161.5 -3t-105.5 -3z" />
    <glyph glyph-name="napostrophe" unicode="&#x149;" horiz-adv-x="1202" 
d="M-115 950q111 83 111 199q1 48 -32.5 104t-33.5 88q0 56 38 89.5t95 33.5q61 0 97.5 -44t36.5 -113q0 -131 -88 -232q-75 -90 -211 -147zM18 20q79 29 101 84q26 55 35 154q4 94 4 186q0 183 -27 263q-9 29 -31 46t-51 17q-17 0 -33 -4l-6 22q136 62 223 111
q49 31 102.5 57.5t76.5 26.5q7 0 13.5 -4t6.5 -10q8 -49 8 -168v-31q118 89 202.5 135.5t162.5 46.5q204 0 231 -211q9 -58 13 -249q4 -184 14 -263q10 -92 39 -137q33 -54 102 -72l-2 -22q-42 0 -136 3t-148 3q-77 0 -281 -6l-2 22q40 21 65 47.5t39 73.5q25 84 25 281
q0 169 -23 254q-32 108 -155 108q-69 0 -146 -57v-225q0 -248 23 -342q32 -116 123 -140l-2 -22q-20 0 -133 3t-164 3q-59 0 -161.5 -3t-105.5 -3z" />
    <glyph glyph-name="Eng" unicode="&#x14a;" horiz-adv-x="1658" 
d="M6 23q71 29 127 92q96 108 115 315q14 172 14 549q0 230 -127 340q-83 72 -186 92l2 25q136 -4 242 -4q47 0 115 2t83 2q34 0 58 -6q339 -405 890 -990q0 32 1 110t1 122q0 116 -8 260q-6 92 -29 176t-55 139q-75 121 -217 164l2 25q36 0 155.5 -3t170.5 -3q116 0 305 6
l2 -25q-84 -27 -151 -115q-46 -62 -70 -147q-24 -90 -31 -217q-8 -88 -8 -334q0 -89 3 -305t3 -336q0 -104 -30 -191t-78 -135q-98 -98 -228 -98q-107 0 -164 33q-110 55 -110 147q0 69 46.5 114.5t108.5 45.5q56 0 87.5 -27.5t62.5 -89.5q45 -85 68 -108q73 9 122.5 97.5
t49.5 217.5v33q-567 644 -1004 1102h-8q-8 -104 -8 -234q0 -142 6 -321q6 -132 25 -220t40 -126.5t56 -75.5q73 -73 180 -98l-2 -25q-13 0 -143.5 3t-196.5 3q-55 0 -160 -3t-125 -3z" />
    <glyph glyph-name="eng" unicode="&#x14b;" horiz-adv-x="1196" 
d="M606 -430q85 91 127 311q31 162 31 541q0 169 -23 254q-32 108 -155 108q-69 0 -146 -57v-225q0 -248 23 -342q32 -116 123 -140l-2 -22q-20 0 -133 3t-164 3q-59 0 -161.5 -3t-105.5 -3l-2 22q79 29 101 84q26 55 35 154q4 94 4 186q0 183 -27 263q-9 29 -31 46t-51 17
q-17 0 -33 -4l-6 22q136 62 223 111q49 31 102.5 57.5t76.5 26.5q7 0 13.5 -4t6.5 -10q8 -49 8 -168v-31q118 89 202.5 135.5t162.5 46.5q204 0 231 -211q11 -73 11 -249q0 -87 1 -251t1 -190q0 -199 -103 -321q-110 -130 -328 -183z" />
    <glyph glyph-name="Omacron" unicode="&#x14c;" horiz-adv-x="1728" 
d="M557 1739q86 -2 303 -2q204 0 357 6l-3 -92q-100 2 -342 2q-213 0 -311 -4zM877 -23q-146 0 -280.5 48t-240.5 137q-245 202 -245 538q0 213 91.5 377.5t256.5 263.5q189 115 430 115q289 0 493 -178q117 -102 175.5 -242.5t58.5 -304.5q0 -216 -97.5 -381t-279.5 -270
q-76 -44 -172.5 -73.5t-189.5 -29.5zM905 31q168 71 271.5 255t103.5 416q0 275 -120.5 462.5t-323.5 242.5q-173 -60 -281.5 -240.5t-108.5 -425.5q0 -133 38 -254t102.5 -211t146.5 -153t172 -92z" />
    <glyph glyph-name="omacron" unicode="&#x14d;" horiz-adv-x="1198" 
d="M303 1278q80 -2 266 -2q178 0 322 6l-2 -92q-94 2 -307 2q-183 0 -275 -4zM84 457q0 135 63.5 243.5t174.5 176.5q59 36 139 56.5t155 20.5q93 0 183 -32.5t157 -90.5q158 -136 158 -362q0 -129 -68 -240.5t-186 -179.5q-123 -69 -252 -69q-101 0 -195.5 31t-164.5 91
q-164 135 -164 355zM793 430q0 195 -62.5 332t-157.5 149q-83 -24 -127.5 -134.5t-44.5 -264.5q0 -191 62 -324t166 -165q73 18 118.5 135t45.5 272z" />
    <glyph glyph-name="Obreve" unicode="&#x14e;" horiz-adv-x="1728" 
d="M862 1542q-115 0 -198 80q-83 83 -115 238l22 10q42 -67 121.5 -112.5t181.5 -45.5q94 0 166.5 44.5t114.5 113.5l23 -10q-34 -157 -113 -236q-85 -82 -203 -82zM877 -23q-146 0 -280.5 48t-240.5 137q-245 202 -245 538q0 213 91.5 377.5t256.5 263.5q189 115 430 115
q289 0 493 -178q117 -102 175.5 -242.5t58.5 -304.5q0 -216 -97.5 -381t-279.5 -270q-76 -44 -172.5 -73.5t-189.5 -29.5zM905 31q168 71 271.5 255t103.5 416q0 275 -120.5 462.5t-323.5 242.5q-173 -60 -281.5 -240.5t-108.5 -425.5q0 -133 38 -254t102.5 -211t146.5 -153
t172 -92z" />
    <glyph glyph-name="obreve" unicode="&#x14f;" horiz-adv-x="1198" 
d="M596 1071q-115 0 -199 84q-77 80 -108 236l22 10q40 -68 118 -114t179 -46q91 0 165.5 45.5t113.5 114.5l22 -10q-32 -151 -114 -236q-78 -84 -199 -84zM84 457q0 135 63.5 243.5t174.5 176.5q59 36 139 56.5t155 20.5q93 0 183 -32.5t157 -90.5q158 -136 158 -362
q0 -129 -68 -240.5t-186 -179.5q-123 -69 -252 -69q-101 0 -195.5 31t-164.5 91q-164 135 -164 355zM793 430q0 195 -62.5 332t-157.5 149q-83 -24 -127.5 -134.5t-44.5 -264.5q0 -191 62 -324t166 -165q73 18 118.5 135t45.5 272z" />
    <glyph glyph-name="Ohungarumlaut" unicode="&#x150;" horiz-adv-x="1728" 
d="M555 1550q82 105 195 297q19 36 37 52t47 16q40 0 70 -33t30 -70q0 -36 -37 -73q-45 -40 -139 -100t-187 -105zM811 1565q182 119 330 258q43 43 80 43q41 0 66.5 -34t25.5 -73q0 -34 -15.5 -53t-46.5 -37q-90 -49 -430 -127zM877 -23q-146 0 -280.5 48t-240.5 137
q-245 202 -245 538q0 213 91.5 377.5t256.5 263.5q189 115 430 115q289 0 493 -178q117 -102 175.5 -242.5t58.5 -304.5q0 -216 -97.5 -381t-279.5 -270q-76 -44 -172.5 -73.5t-189.5 -29.5zM905 31q168 71 271.5 255t103.5 416q0 275 -120.5 462.5t-323.5 242.5
q-173 -60 -281.5 -240.5t-108.5 -425.5q0 -133 38 -254t102.5 -211t146.5 -153t172 -92z" />
    <glyph glyph-name="ohungarumlaut" unicode="&#x151;" horiz-adv-x="1198" 
d="M352 1047q68 122 127 337q19 78 82 78q47 0 80 -30t33 -70q0 -30 -29 -72q-34 -45 -109 -116t-165 -142zM580 1051q130 132 243 323q41 62 88 62q41 0 70 -35t29 -78q0 -50 -41 -80q-42 -37 -147.5 -96t-227.5 -115zM84 457q0 135 63.5 243.5t174.5 176.5q59 36 139 56.5
t155 20.5q93 0 183 -32.5t157 -90.5q158 -136 158 -362q0 -129 -68 -240.5t-186 -179.5q-123 -69 -252 -69q-101 0 -195.5 31t-164.5 91q-164 135 -164 355zM793 430q0 195 -62.5 332t-157.5 149q-83 -24 -127.5 -134.5t-44.5 -264.5q0 -191 62 -324t166 -165
q73 18 118.5 135t45.5 272z" />
    <glyph glyph-name="OE" unicode="&#x152;" horiz-adv-x="2062" 
d="M866 -4q-289 0 -501 170q-120 95 -187 230.5t-67 299.5q0 212 93.5 375.5t258.5 261.5q95 56 191.5 80.5t217.5 24.5q40 0 157 -3t165 -3q98 0 288.5 2t241.5 2q122 0 189 -6q12 -66 19.5 -184t19.5 -210l-27 -4q-87 142 -184 221q-134 113 -283 133q-61 0 -88 -10
q-24 -177 -24 -581v-31h86q108 0 131 4q60 6 116 51q65 51 93 131l26 -4q-10 -98 -10 -221q0 -148 4 -201l-27 -4q-31 67 -77 113q-55 55 -136 67q-46 9 -120 9q-63 0 -86 -4v-27q0 -260 8 -379q4 -83 20 -128.5t47 -74.5q43 -43 129 -47q130 42 242 125q123 95 207 240
l26 -6q-11 -59 -32 -203.5t-35 -202.5q-58 -4 -148 -4q-116 0 -335.5 2t-286.5 2q-51 0 -159 -3t-163 -3zM891 49q60 24 94 74q47 64 57 239q7 93 7 246v101q0 205 -7 376q-10 156 -47 215q-50 77 -147 95q-172 -51 -287 -230.5t-115 -429.5q0 -240 128.5 -428.5
t316.5 -257.5z" />
    <glyph glyph-name="oe" unicode="&#x153;" horiz-adv-x="1685" 
d="M580 -20q-91 0 -180.5 31.5t-157.5 90.5q-158 135 -158 355q0 136 59 245t162 175q57 37 134.5 58t150.5 21q87 0 167 -35t140 -104q121 137 301 137q82 0 152 -31t119 -83t81.5 -115t48.5 -133q5 -30 5 -35q0 -11 -11 -22l-546 -13v-33q0 -172 77 -265t201 -93
q148 0 272 141l23 -16q-32 -48 -70 -91t-91.5 -87.5t-121.5 -71t-141 -26.5q-192 0 -317 137q-63 -64 -141 -100.5t-158 -36.5zM600 25q66 18 107 135t41 270q0 195 -56 333t-141 150q-71 -24 -111.5 -135.5t-40.5 -263.5q0 -189 55.5 -323t145.5 -166zM1049 563
q187 5 266 15q-5 127 -40 225.5t-89 107.5q-125 -65 -137 -348z" />
    <glyph glyph-name="Racute" unicode="&#x154;" horiz-adv-x="1589" 
d="M578 1565q155 102 329 272q35 35 70 35q46 0 76 -39.5t30 -81.5q0 -60 -63 -92q-80 -45 -346 -98l-88 -19zM23 23q38 8 84.5 35t72.5 61q56 70 66 241q8 114 8 252v97q0 247 -8 378q-5 80 -14 125t-31 80q-33 54 -99 86q-54 26 -110 33l2 25q111 -6 346 -6q37 0 173.5 3
t207.5 3q159 0 261.5 -16t184.5 -62q166 -93 166 -266q0 -138 -90.5 -245t-220.5 -153q190 -274 340 -426q76 -80 164 -142t147 -77q19 0 39 4l6 -24q-109 -45 -274 -45q-124 0 -207 41q-103 45 -188 137q-161 176 -332 510q-27 0 -87 2t-81 2v-68q0 -189 10 -309
q7 -79 30 -123.5t66 -79.5q68 -60 191 -69l-2 -29q-40 0 -217 3t-240 3q-134 0 -362 -6zM549 750q98 -25 289 -25q29 0 75 4q97 115 97 305q0 144 -88 238q-87 100 -240 114q-71 0 -109 -10q-24 -202 -24 -581v-45z" />
    <glyph glyph-name="racute" unicode="&#x155;" horiz-adv-x="868" 
d="M266 1051q126 148 250 350q34 55 80 55q44 0 78.5 -39.5t34.5 -85.5q0 -38 -39 -74q-71 -68 -297 -180l-92 -45zM16 20q27 7 55.5 26t41.5 44q45 76 45 303q0 234 -25 307q-23 70 -82 70q-25 0 -37 -4l-6 22q4 2 82.5 38.5t110.5 54.5q168 102 213 102q14 0 16 -10
q10 -31 10 -189v-122q54 128 138 233q60 72 118 72q61 0 104.5 -68.5t43.5 -146.5q0 -44 -26.5 -71.5t-69.5 -27.5q-34 0 -109 17.5t-109 17.5q-18 0 -26 -2q-25 -22 -44.5 -74.5t-19.5 -124.5v-61q0 -212 33 -291q17 -41 59.5 -72.5t110.5 -39.5l-2 -25q-45 0 -171.5 3
t-174.5 3q-41 0 -87 -1t-102 -2.5t-88 -2.5z" />
    <glyph glyph-name="uni0156" unicode="&#x156;" horiz-adv-x="1589" 
d="M23 23q38 8 84.5 35t72.5 61q56 70 66 241q8 114 8 252v97q0 247 -8 378q-5 80 -14 125t-31 80q-33 54 -99 86q-54 26 -110 33l2 25q111 -6 346 -6q37 0 173.5 3t207.5 3q159 0 261.5 -16t184.5 -62q166 -93 166 -266q0 -138 -90.5 -245t-220.5 -153q190 -274 340 -426
q76 -80 164 -142t147 -77q19 0 39 4l6 -24q-109 -45 -274 -45q-124 0 -207 41q-103 45 -188 137q-161 176 -332 510q-27 0 -87 2t-81 2v-68q0 -189 10 -309q7 -79 30 -123.5t66 -79.5q68 -60 191 -69l-2 -29q-40 0 -217 3t-240 3q-134 0 -362 -6zM549 750q98 -25 289 -25
q29 0 75 4q97 115 97 305q0 144 -88 238q-87 100 -240 114q-71 0 -109 -10q-24 -202 -24 -581v-45zM729 -473l-12 22q78 56 78 136q0 30 -31 76.5t-31 74.5q0 40 33 68t82 28q56 0 88.5 -33.5t32.5 -88.5q0 -99 -80 -179q-67 -72 -160 -104z" />
    <glyph glyph-name="uni0157" unicode="&#x157;" horiz-adv-x="868" 
d="M16 20q27 7 55.5 26t41.5 44q45 76 45 303q0 234 -25 307q-23 70 -82 70q-25 0 -37 -4l-6 22q4 2 82.5 38.5t110.5 54.5q168 102 213 102q14 0 16 -10q10 -31 10 -189v-122q54 128 138 233q60 72 118 72q61 0 104.5 -68.5t43.5 -146.5q0 -44 -26.5 -71.5t-69.5 -27.5
q-34 0 -109 17.5t-109 17.5q-18 0 -26 -2q-25 -22 -44.5 -74.5t-19.5 -124.5v-61q0 -212 33 -291q17 -41 59.5 -72.5t110.5 -39.5l-2 -25q-45 0 -171.5 3t-174.5 3q-41 0 -87 -1t-102 -2.5t-88 -2.5zM188 -473l-12 22q78 56 78 136q0 30 -30.5 76.5t-30.5 74.5q0 40 32.5 68
t81.5 28q56 0 88.5 -33.5t32.5 -88.5q0 -99 -80 -179q-67 -72 -160 -104z" />
    <glyph glyph-name="Rcaron" unicode="&#x158;" horiz-adv-x="1589" 
d="M731 1540q-37 0 -72 35q-17 16 -62.5 60t-72 69t-68.5 63t-79 70l12 21q156 -45 346 -119q211 79 340 119l12 -21q-79 -65 -286 -262q-39 -35 -70 -35zM23 23q38 8 84.5 35t72.5 61q56 70 66 241q8 114 8 252v97q0 247 -8 378q-5 80 -14 125t-31 80q-33 54 -99 86
q-54 26 -110 33l2 25q111 -6 346 -6q37 0 173.5 3t207.5 3q159 0 261.5 -16t184.5 -62q166 -93 166 -266q0 -138 -90.5 -245t-220.5 -153q190 -274 340 -426q76 -80 164 -142t147 -77q19 0 39 4l6 -24q-109 -45 -274 -45q-124 0 -207 41q-103 45 -188 137q-161 176 -332 510
q-27 0 -87 2t-81 2v-68q0 -189 10 -309q7 -79 30 -123.5t66 -79.5q68 -60 191 -69l-2 -29q-40 0 -217 3t-240 3q-134 0 -362 -6zM549 750q98 -25 289 -25q29 0 75 4q97 115 97 305q0 144 -88 238q-87 100 -240 114q-71 0 -109 -10q-24 -202 -24 -581v-45z" />
    <glyph glyph-name="rcaron" unicode="&#x159;" horiz-adv-x="868" 
d="M442 1030q-20 0 -35 12t-34 39q-149 218 -264 351l14 18q111 -56 326 -195q220 141 315 195l14 -18q-92 -104 -264 -351q-31 -51 -72 -51zM16 20q27 7 55.5 26t41.5 44q45 76 45 303q0 234 -25 307q-23 70 -82 70q-25 0 -37 -4l-6 22q4 2 82.5 38.5t110.5 54.5
q168 102 213 102q14 0 16 -10q10 -31 10 -189v-122q54 128 138 233q60 72 118 72q61 0 104.5 -68.5t43.5 -146.5q0 -44 -26.5 -71.5t-69.5 -27.5q-34 0 -109 17.5t-109 17.5q-18 0 -26 -2q-25 -22 -44.5 -74.5t-19.5 -124.5v-61q0 -212 33 -291q17 -41 59.5 -72.5
t110.5 -39.5l-2 -25q-45 0 -171.5 3t-174.5 3q-41 0 -87 -1t-102 -2.5t-88 -2.5z" />
    <glyph glyph-name="Sacute" unicode="&#x15a;" horiz-adv-x="1214" 
d="M453 1565q155 102 329 272q35 35 70 35q46 0 76 -39.5t30 -81.5q0 -60 -63 -92q-80 -45 -346 -98l-88 -19zM109 453q72 -143 221 -269q142 -123 282 -153q89 25 147 86t58 147q0 61 -37 113q-30 41 -91 81.5t-159 94.5q-85 47 -117.5 66t-90 59t-91.5 76
q-116 123 -116 278q0 202 151 318q132 106 363 106q237 0 415 -61q9 -49 21 -193t18 -198l-26 -5q-80 135 -203 252q-139 130 -256 156q-71 -19 -127.5 -88t-56.5 -164q0 -59 16.5 -101t56.5 -83q64 -66 256 -158q50 -25 82 -42.5t76 -44.5t71.5 -50.5t58 -56t47.5 -65.5
t28.5 -75.5t11.5 -89.5q0 -176 -139 -291q-150 -121 -408 -121q-276 0 -430 62q-8 27 -16.5 78t-14 92.5t-14.5 122.5t-14 117z" />
    <glyph glyph-name="sacute" unicode="&#x15b;" horiz-adv-x="917" 
d="M256 1051q126 148 250 350q34 55 80 55q44 0 78 -39.5t34 -85.5q0 -38 -39 -74q-71 -68 -297 -180l-92 -45zM86 332q62 -110 170 -199.5t209 -112.5q55 11 90 47t35 93q0 48 -33 78q-36 40 -162 96q-168 74 -225 129q-84 74 -84 190q0 137 117 226q110 79 274 79
q169 0 318 -49q6 -32 10.5 -143.5t7.5 -147.5l-22 -4q-74 120 -168.5 202.5t-180.5 101.5q-43 -14 -73.5 -54.5t-30.5 -89.5q0 -46 20 -77t64 -56q38 -28 131 -66q55 -25 82.5 -38t68 -37t64.5 -47q72 -72 72 -177q0 -132 -103 -210q-117 -89 -303 -89q-207 0 -328 54
q-7 18 -13.5 56.5t-10.5 69.5t-10.5 91t-8.5 80z" />
    <glyph glyph-name="Scircumflex" unicode="&#x15c;" horiz-adv-x="1214" 
d="M266 1563q46 38 93.5 81t112 104t81.5 77q39 35 70 35q14 0 27.5 -6t20.5 -11.5t21 -17.5q21 -19 82 -77t108 -101.5t95 -83.5l-12 -21q-200 57 -349 119q-158 -63 -337 -119zM109 453q72 -143 221 -269q142 -123 282 -153q89 25 147 86t58 147q0 61 -37 113
q-30 41 -91 81.5t-159 94.5q-85 47 -117.5 66t-90 59t-91.5 76q-116 123 -116 278q0 202 151 318q132 106 363 106q237 0 415 -61q9 -49 21 -193t18 -198l-26 -5q-80 135 -203 252q-139 130 -256 156q-71 -19 -127.5 -88t-56.5 -164q0 -59 16.5 -101t56.5 -83
q64 -66 256 -158q50 -25 82 -42.5t76 -44.5t71.5 -50.5t58 -56t47.5 -65.5t28.5 -75.5t11.5 -89.5q0 -176 -139 -291q-150 -121 -408 -121q-276 0 -430 62q-8 27 -16.5 78t-14 92.5t-14.5 122.5t-14 117z" />
    <glyph glyph-name="scircumflex" unicode="&#x15d;" horiz-adv-x="917" 
d="M123 1051q95 108 264 350q19 27 34.5 39t37.5 12q20 0 35 -12t34 -39q119 -174 265 -350l-15 -19q-106 54 -325 195q-225 -144 -316 -195zM86 332q62 -110 170 -199.5t209 -112.5q55 11 90 47t35 93q0 48 -33 78q-36 40 -162 96q-168 74 -225 129q-84 74 -84 190
q0 137 117 226q110 79 274 79q169 0 318 -49q6 -32 10.5 -143.5t7.5 -147.5l-22 -4q-74 120 -168.5 202.5t-180.5 101.5q-43 -14 -73.5 -54.5t-30.5 -89.5q0 -46 20 -77t64 -56q38 -28 131 -66q55 -25 82.5 -38t68 -37t64.5 -47q72 -72 72 -177q0 -132 -103 -210
q-117 -89 -303 -89q-207 0 -328 54q-7 18 -13.5 56.5t-10.5 69.5t-10.5 91t-8.5 80z" />
    <glyph glyph-name="Scedilla" unicode="&#x15e;" horiz-adv-x="1214" 
d="M571 -23q-276 0 -430 62q-8 27 -16.5 78t-14 92.5t-14.5 122.5t-14 117l27 4q72 -143 221 -269q142 -123 282 -153q89 25 147 86t58 147q0 61 -37 113q-30 41 -91 81.5t-159 94.5q-85 47 -117.5 66t-90 59t-91.5 76q-116 123 -116 278q0 202 151 318q132 106 363 106
q237 0 415 -61q9 -49 21 -193t18 -198l-26 -5q-80 135 -203 252q-139 130 -256 156q-71 -19 -127.5 -88t-56.5 -164q0 -59 16.5 -101t56.5 -83q64 -66 256 -158q50 -25 82 -42.5t76 -44.5t71.5 -50.5t58 -56t47.5 -65.5t28.5 -75.5t11.5 -89.5q0 -176 -139 -291
q-112 -87 -274 -110l-82 -49q139 -46 139 -168q0 -92 -84.5 -159t-222.5 -87l-9 22q134 50 134 150q0 67 -53 101.5t-132 37.5l-6 21l221 120h-39z" />
    <glyph glyph-name="scedilla" unicode="&#x15f;" horiz-adv-x="917" 
d="M768 453q72 -72 72 -177q0 -132 -103 -210q-63 -51 -155 -72l-95 -53q140 -49 140 -170q0 -91 -85 -158.5t-223 -87.5l-8 22q133 50 133 150q0 67 -52.5 101.5t-131.5 37.5l-6 21l223 123q-21 -3 -43 -3q-207 0 -328 54q-7 18 -13.5 56.5t-10.5 69.5t-10.5 91t-8.5 80
l23 4q62 -110 170 -199.5t209 -112.5q55 11 90 47t35 93q0 48 -33 78q-36 40 -162 96q-168 74 -225 129q-84 74 -84 190q0 137 117 226q110 79 274 79q169 0 318 -49q6 -32 10.5 -143.5t7.5 -147.5l-22 -4q-74 120 -168.5 202.5t-180.5 101.5q-43 -14 -73.5 -54.5
t-30.5 -89.5q0 -46 20 -77t64 -56q38 -28 131 -66q55 -25 82.5 -38t68 -37t64.5 -47z" />
    <glyph glyph-name="Scaron" unicode="&#x160;" horiz-adv-x="1214" 
d="M621 1540q-37 0 -72 35q-210 200 -283 262l13 21q156 -45 346 -119q211 79 340 119l12 -21q-86 -71 -287 -262q-39 -35 -69 -35zM109 453q72 -143 221 -269q142 -123 282 -153q89 25 147 86t58 147q0 61 -37 113q-30 41 -91 81.5t-159 94.5q-85 47 -117.5 66t-90 59
t-91.5 76q-116 123 -116 278q0 202 151 318q132 106 363 106q237 0 415 -61q9 -49 21 -193t18 -198l-26 -5q-80 135 -203 252q-139 130 -256 156q-71 -19 -127.5 -88t-56.5 -164q0 -59 16.5 -101t56.5 -83q64 -66 256 -158q50 -25 82 -42.5t76 -44.5t71.5 -50.5t58 -56
t47.5 -65.5t28.5 -75.5t11.5 -89.5q0 -176 -139 -291q-150 -121 -408 -121q-276 0 -430 62q-8 27 -16.5 78t-14 92.5t-14.5 122.5t-14 117z" />
    <glyph glyph-name="scaron" unicode="&#x161;" horiz-adv-x="917" 
d="M446 1030q-20 0 -35 12t-34 39q-149 218 -264 351l14 18q111 -56 326 -195q220 141 315 195l14 -18q-92 -104 -264 -351q-31 -51 -72 -51zM86 332q62 -110 170 -199.5t209 -112.5q55 11 90 47t35 93q0 48 -33 78q-36 40 -162 96q-168 74 -225 129q-84 74 -84 190
q0 137 117 226q110 79 274 79q169 0 318 -49q6 -32 10.5 -143.5t7.5 -147.5l-22 -4q-74 120 -168.5 202.5t-180.5 101.5q-43 -14 -73.5 -54.5t-30.5 -89.5q0 -46 20 -77t64 -56q38 -28 131 -66q55 -25 82.5 -38t68 -37t64.5 -47q72 -72 72 -177q0 -132 -103 -210
q-117 -89 -303 -89q-207 0 -328 54q-7 18 -13.5 56.5t-10.5 69.5t-10.5 91t-8.5 80z" />
    <glyph glyph-name="uni0162" unicode="&#x162;" horiz-adv-x="1357" 
d="M295 23q70 18 131 67q67 57 86 170q18 99 18 483q0 210 -4 390q-2 109 -12 239q-40 4 -92 4q-100 -30 -213 -143q-88 -91 -158 -203l-26 4q12 89 22 212.5t19 183.5q62 6 147 6q55 0 221.5 -2t241.5 -2q77 0 252.5 2t218.5 2q87 0 145 -6q10 -64 20 -187t21 -209l-26 -4
q-70 115 -160 205q-109 111 -209 141q-58 0 -98 -4q-7 -99 -9 -227q-4 -204 -4 -379q0 -374 17 -502q10 -76 45 -137q52 -77 172 -104l-2 -25q-288 6 -387 6q-153 0 -375 -6zM567 -473l-12 22q78 56 78 136q0 30 -31 76.5t-31 74.5q0 40 33 68t82 28q56 0 88.5 -33.5
t32.5 -88.5q0 -99 -80 -179q-67 -72 -160 -104z" />
    <glyph glyph-name="uni0163" unicode="&#x163;" horiz-adv-x="772" 
d="M358 -23q-94 0 -149 58q-55 63 -55 205q0 28 2 152t2 175q0 144 -2 226q-84 0 -156 -7l-4 25q130 76 237 186q104 110 183 242l28 -6q-8 -144 -8 -275v-30q252 0 303 2q0 -57 -16 -139q-22 0 -120 1t-165 1v-248q0 -241 13 -305q10 -48 38 -72.5t66 -24.5q85 0 152 70
l24 -25q-76 -94 -176 -153q-94 -58 -197 -58zM258 -473l-12 22q78 56 78 136q0 30 -31 76.5t-31 74.5q0 40 33 68t82 28q56 0 88.5 -33.5t32.5 -88.5q0 -99 -80 -179q-67 -72 -160 -104z" />
    <glyph glyph-name="Tcaron" unicode="&#x164;" horiz-adv-x="1357" 
d="M694 1540q-36 0 -71 35q-210 200 -283 262l12 21q156 -45 346 -119q211 79 340 119l13 -21q-86 -71 -287 -262q-39 -35 -70 -35zM295 23q70 18 131 67q67 57 86 170q18 99 18 483q0 210 -4 390q-2 109 -12 239q-40 4 -92 4q-100 -30 -213 -143q-88 -91 -158 -203l-26 4
q12 89 22 212.5t19 183.5q62 6 147 6q55 0 221.5 -2t241.5 -2q77 0 252.5 2t218.5 2q87 0 145 -6q10 -64 20 -187t21 -209l-26 -4q-70 115 -160 205q-109 111 -209 141q-58 0 -98 -4q-7 -99 -9 -227q-4 -204 -4 -379q0 -374 17 -502q10 -76 45 -137q52 -77 172 -104l-2 -25
q-288 6 -387 6q-153 0 -375 -6z" />
    <glyph glyph-name="tcaron" unicode="&#x165;" horiz-adv-x="788" 
d="M754 950q110 82 110 199q1 48 -32 104t-33 88q0 56 38 89.5t95 33.5q60 0 96.5 -44t36.5 -113q0 -131 -88 -232q-75 -90 -211 -147zM358 -23q-94 0 -149 58q-55 63 -55 205q0 28 2 152t2 175q0 144 -2 226q-84 0 -156 -7l-4 25q130 76 237 186q104 110 183 242l28 -6
q-8 -144 -8 -275v-30q252 0 303 2q0 -57 -16 -139q-22 0 -120 1t-165 1v-248q0 -241 13 -305q10 -48 38 -72.5t66 -24.5q85 0 152 70l24 -25q-76 -94 -176 -153q-94 -58 -197 -58z" />
    <glyph glyph-name="Tbar" unicode="&#x166;" horiz-adv-x="1357" 
d="M295 23q70 18 131 67q67 57 86 170q18 92 18 428q-155 0 -235 -2v62q120 -3 235 -3q0 155 -4 373q-3 129 -12 254q-40 4 -92 4q-100 -30 -213 -143q-88 -91 -158 -203l-26 4q12 89 22 212.5t19 183.5q62 6 147 6q55 0 221.5 -2t241.5 -2q77 0 252.5 2t218.5 2
q87 0 145 -6q10 -64 20 -187t21 -209l-26 -4q-70 115 -160 205q-109 111 -209 141q-58 0 -98 -4q-7 -99 -9 -227q-4 -204 -4 -377v-23q101 0 236 3v-62q-74 2 -236 2q0 -282 13 -399q15 -109 49 -162q52 -77 172 -104l-2 -25q-288 6 -387 6q-153 0 -375 -6z" />
    <glyph glyph-name="tbar" unicode="&#x167;" horiz-adv-x="772" 
d="M555 143q85 0 152 70l24 -25q-76 -94 -176 -153q-94 -58 -197 -58q-94 0 -149 58q-55 63 -55 205q0 76 4 264q-36 0 -88.5 -1t-59.5 -1v53q43 -2 148 -2v14q0 144 -2 226q-84 0 -156 -7l-4 25q130 76 237 186q104 110 183 242l28 -6q-8 -144 -8 -275v-30q252 0 303 2
q0 -57 -16 -139q-22 0 -120 1t-165 1v-240q182 0 252 2v-53q-66 2 -252 2q0 -195 13 -264q10 -48 38 -72.5t66 -24.5z" />
    <glyph glyph-name="Utilde" unicode="&#x168;" horiz-adv-x="1656" 
d="M535 1577q29 117 86 187.5t131 70.5q72 0 194 -51q114 -49 176 -49q96 0 146 102l24 -10q-37 -122 -97.5 -192t-139.5 -70q-63 0 -185 49q-115 51 -178 51q-86 0 -133 -96zM840 -31q-286 0 -439 135q-159 134 -159 390q0 25 2 126.5t2 165.5q0 275 -10 336
q-16 139 -74 197q-37 38 -70.5 57.5t-81.5 34.5l2 25q294 -6 367 -6q99 0 381 6l4 -25q-92 -31 -137 -82q-61 -67 -74 -174q-10 -95 -10 -313v-144q0 -149 6 -215q15 -169 113 -256q102 -88 270 -88q166 0 274 92q107 90 129 263q11 87 11 204q0 142 -17 285
q-18 178 -102 297q-35 49 -85 83t-93 48l2 25q21 0 139.5 -3t177.5 -3q128 0 287 6l4 -27q-58 -27 -103 -74q-63 -66 -100 -194q-43 -162 -43 -436v-50q0 -99 -6 -176q-16 -214 -121 -334q-146 -176 -446 -176z" />
    <glyph glyph-name="utilde" unicode="&#x169;" horiz-adv-x="1187" 
d="M250 1116q29 117 86 187.5t131 70.5q37 0 70 -10.5t88 -36.5q116 -53 168 -53q94 0 141 102l24 -10q-37 -122 -98 -192t-141 -70q-12 0 -23.5 1t-24.5 4.5t-21 6t-23.5 9.5t-22 10t-26.5 13t-27 13q-91 43 -148 43q-85 0 -129 -96zM387 -23q-96 0 -155 54.5t-78 156.5
q-13 66 -13 252q0 196 -18 256q-17 74 -86 74q-13 0 -33 -4l-6 22q152 72 184 89q163 86 215 86q10 0 19 -13q12 -30 12 -116q0 -10 -1 -132t-1 -184q0 -187 23 -270q31 -101 147 -101q76 0 154 58v215q0 189 -19 266q-8 36 -32 59t-60 23q-15 0 -23 -2l-6 22q52 18 201 93
q54 31 118 56.5t93 25.5q9 0 15.5 -5.5t6.5 -13.5q0 -16 -3.5 -71t-4.5 -72q-4 -74 -4 -320q0 -173 27 -256q20 -61 74 -61q18 0 34 4l7 -23q-20 -10 -95 -45.5t-118 -60.5q-42 -24 -96 -43t-79 -19q-15 0 -18 13q-11 47 -18 170q-111 -88 -196 -135.5t-167 -47.5z" />
    <glyph glyph-name="Umacron" unicode="&#x16a;" horiz-adv-x="1656" 
d="M569 1739q86 -2 303 -2q204 0 357 6l-2 -92q-100 2 -342 2q-214 0 -312 -4zM840 -31q-286 0 -439 135q-159 134 -159 390q0 25 2 126.5t2 165.5q0 275 -10 336q-16 139 -74 197q-37 38 -70.5 57.5t-81.5 34.5l2 25q294 -6 367 -6q99 0 381 6l4 -25q-92 -31 -137 -82
q-61 -67 -74 -174q-10 -95 -10 -313v-144q0 -149 6 -215q15 -169 113 -256q102 -88 270 -88q166 0 274 92q107 90 129 263q11 87 11 204q0 142 -17 285q-18 178 -102 297q-35 49 -85 83t-93 48l2 25q21 0 139.5 -3t177.5 -3q128 0 287 6l4 -27q-58 -27 -103 -74
q-63 -66 -100 -194q-43 -162 -43 -436v-50q0 -99 -6 -176q-16 -214 -121 -334q-146 -176 -446 -176z" />
    <glyph glyph-name="umacron" unicode="&#x16b;" horiz-adv-x="1187" 
d="M299 1278q80 -2 266 -2q178 0 322 6l-2 -92q-94 2 -307 2q-183 0 -275 -4zM387 -23q-96 0 -155 54.5t-78 156.5q-13 66 -13 252q0 196 -18 256q-17 74 -86 74q-13 0 -33 -4l-6 22q152 72 184 89q163 86 215 86q10 0 19 -13q12 -30 12 -116q0 -10 -1 -132t-1 -184
q0 -187 23 -270q31 -101 147 -101q76 0 154 58v215q0 189 -19 266q-8 36 -32 59t-60 23q-15 0 -23 -2l-6 22q52 18 201 93q54 31 118 56.5t93 25.5q9 0 15.5 -5.5t6.5 -13.5q0 -16 -3.5 -71t-4.5 -72q-4 -74 -4 -320q0 -173 27 -256q20 -61 74 -61q18 0 34 4l7 -23
q-20 -10 -95 -45.5t-118 -60.5q-42 -24 -96 -43t-79 -19q-15 0 -18 13q-11 47 -18 170q-111 -88 -196 -135.5t-167 -47.5z" />
    <glyph glyph-name="Ubreve" unicode="&#x16c;" horiz-adv-x="1656" 
d="M868 1542q-115 0 -198 80q-83 83 -115 238l23 10q42 -67 121.5 -112.5t181.5 -45.5q94 0 166 44.5t114 113.5l23 -10q-34 -157 -113 -236q-85 -82 -203 -82zM840 -31q-286 0 -439 135q-159 134 -159 390q0 25 2 126.5t2 165.5q0 275 -10 336q-16 139 -74 197
q-37 38 -70.5 57.5t-81.5 34.5l2 25q294 -6 367 -6q99 0 381 6l4 -25q-92 -31 -137 -82q-61 -67 -74 -174q-10 -95 -10 -313v-144q0 -149 6 -215q15 -169 113 -256q102 -88 270 -88q166 0 274 92q107 90 129 263q11 87 11 204q0 142 -17 285q-18 178 -102 297q-35 49 -85 83
t-93 48l2 25q21 0 139.5 -3t177.5 -3q128 0 287 6l4 -27q-58 -27 -103 -74q-63 -66 -100 -194q-43 -162 -43 -436v-50q0 -99 -6 -176q-16 -214 -121 -334q-146 -176 -446 -176z" />
    <glyph glyph-name="ubreve" unicode="&#x16d;" horiz-adv-x="1187" 
d="M592 1071q-115 0 -199 84q-77 80 -108 236l22 10q40 -68 118 -114t179 -46q91 0 165.5 45.5t113.5 114.5l22 -10q-32 -151 -114 -236q-78 -84 -199 -84zM387 -23q-96 0 -155 54.5t-78 156.5q-13 66 -13 252q0 196 -18 256q-17 74 -86 74q-13 0 -33 -4l-6 22
q152 72 184 89q163 86 215 86q10 0 19 -13q12 -30 12 -116q0 -10 -1 -132t-1 -184q0 -187 23 -270q31 -101 147 -101q76 0 154 58v215q0 189 -19 266q-8 36 -32 59t-60 23q-15 0 -23 -2l-6 22q52 18 201 93q54 31 118 56.5t93 25.5q9 0 15.5 -5.5t6.5 -13.5q0 -16 -3.5 -71
t-4.5 -72q-4 -74 -4 -320q0 -173 27 -256q20 -61 74 -61q18 0 34 4l7 -23q-20 -10 -95 -45.5t-118 -60.5q-42 -24 -96 -43t-79 -19q-15 0 -18 13q-11 47 -18 170q-111 -88 -196 -135.5t-167 -47.5z" />
    <glyph glyph-name="Uring" unicode="&#x16e;" horiz-adv-x="1656" 
d="M893 1460q-96 0 -162 51q-72 59 -72 148q0 109 93 172q56 41 141 41q86 0 151 -49q72 -59 72 -154q0 -109 -98 -170q-56 -39 -125 -39zM905 1501q44 19 69 61.5t25 96.5q0 68 -34.5 113t-92.5 59q-47 -20 -73.5 -62.5t-26.5 -97.5q0 -67 38.5 -113t94.5 -57zM840 -31
q-286 0 -439 135q-159 134 -159 390q0 25 2 126.5t2 165.5q0 275 -10 336q-16 139 -74 197q-37 38 -70.5 57.5t-81.5 34.5l2 25q294 -6 367 -6q99 0 381 6l4 -25q-92 -31 -137 -82q-61 -67 -74 -174q-10 -95 -10 -313v-144q0 -149 6 -215q15 -169 113 -256q102 -88 270 -88
q166 0 274 92q107 90 129 263q11 87 11 204q0 142 -17 285q-18 178 -102 297q-35 49 -85 83t-93 48l2 25q21 0 139.5 -3t177.5 -3q128 0 287 6l4 -27q-58 -27 -103 -74q-63 -66 -100 -194q-43 -162 -43 -436v-50q0 -99 -6 -176q-16 -214 -121 -334q-146 -176 -446 -176z" />
    <glyph glyph-name="uring" unicode="&#x16f;" horiz-adv-x="1187" 
d="M598 1032q-88 0 -154 51q-71 58 -71 148q0 110 92 172q59 43 133 43q82 0 145 -51q72 -59 72 -154q0 -105 -98 -170q-56 -39 -119 -39zM612 1071q41 19 65.5 63t24.5 97q0 69 -33.5 115.5t-88.5 60.5q-46 -22 -71.5 -65t-25.5 -97q0 -68 37 -115.5t92 -58.5zM387 -23
q-96 0 -155 54.5t-78 156.5q-13 66 -13 252q0 196 -18 256q-17 74 -86 74q-13 0 -33 -4l-6 22q152 72 184 89q163 86 215 86q10 0 19 -13q12 -30 12 -116q0 -10 -1 -132t-1 -184q0 -187 23 -270q31 -101 147 -101q76 0 154 58v215q0 189 -19 266q-8 36 -32 59t-60 23
q-15 0 -23 -2l-6 22q52 18 201 93q54 31 118 56.5t93 25.5q9 0 15.5 -5.5t6.5 -13.5q0 -16 -3.5 -71t-4.5 -72q-4 -74 -4 -320q0 -173 27 -256q20 -61 74 -61q18 0 34 4l7 -23q-20 -10 -95 -45.5t-118 -60.5q-42 -24 -96 -43t-79 -19q-15 0 -18 13q-11 47 -18 170
q-111 -88 -196 -135.5t-167 -47.5z" />
    <glyph glyph-name="Uhungarumlaut" unicode="&#x170;" horiz-adv-x="1656" 
d="M561 1550q82 105 195 297q19 36 37 52t47 16q40 0 70 -33t30 -70q0 -36 -37 -73q-45 -40 -139 -100.5t-186 -104.5zM817 1565q182 119 330 258q43 43 80 43q41 0 66.5 -34t25.5 -73q0 -34 -15.5 -53t-46.5 -37q-90 -49 -430 -127zM840 -31q-286 0 -439 135
q-159 134 -159 390q0 25 2 126.5t2 165.5q0 275 -10 336q-16 139 -74 197q-37 38 -70.5 57.5t-81.5 34.5l2 25q294 -6 367 -6q99 0 381 6l4 -25q-92 -31 -137 -82q-61 -67 -74 -174q-10 -95 -10 -313v-144q0 -149 6 -215q15 -169 113 -256q102 -88 270 -88q166 0 274 92
q107 90 129 263q11 87 11 204q0 142 -17 285q-18 178 -102 297q-35 49 -85 83t-93 48l2 25q21 0 139.5 -3t177.5 -3q128 0 287 6l4 -27q-58 -27 -103 -74q-63 -66 -100 -194q-43 -162 -43 -436v-50q0 -99 -6 -176q-16 -214 -121 -334q-146 -176 -446 -176z" />
    <glyph glyph-name="uhungarumlaut" unicode="&#x171;" horiz-adv-x="1187" 
d="M338 1047q68 122 127 337q19 78 82 78q47 0 79.5 -30t32.5 -70q0 -32 -28 -72q-33 -44 -108.5 -115.5t-166.5 -142.5zM565 1051q132 135 244 323q41 62 88 62q41 0 69.5 -35t28.5 -78q0 -50 -41 -80q-42 -37 -147.5 -96.5t-226.5 -114.5zM387 -23q-96 0 -155 54.5
t-78 156.5q-13 66 -13 252q0 196 -18 256q-17 74 -86 74q-13 0 -33 -4l-6 22q152 72 184 89q163 86 215 86q10 0 19 -13q12 -30 12 -116q0 -10 -1 -132t-1 -184q0 -187 23 -270q31 -101 147 -101q76 0 154 58v215q0 189 -19 266q-8 36 -32 59t-60 23q-15 0 -23 -2l-6 22
q52 18 201 93q54 31 118 56.5t93 25.5q9 0 15.5 -5.5t6.5 -13.5q0 -16 -3.5 -71t-4.5 -72q-4 -74 -4 -320q0 -173 27 -256q20 -61 74 -61q18 0 34 4l7 -23q-20 -10 -95 -45.5t-118 -60.5q-42 -24 -96 -43t-79 -19q-15 0 -18 13q-11 47 -18 170q-111 -88 -196 -135.5
t-167 -47.5z" />
    <glyph glyph-name="Uogonek" unicode="&#x172;" horiz-adv-x="1656" 
d="M1655 1436l4 -27q-58 -27 -103 -74q-63 -66 -100 -194q-43 -162 -43 -436v-50q0 -99 -6 -176q-16 -214 -121 -334q-118 -139 -325 -168q-119 -113 -119 -235q0 -61 31.5 -95t84.5 -34q57 0 109 25l8 -21q-125 -88 -244 -88q-80 0 -126 43q-48 42 -48 113q0 93 117 198
q43 40 109 86h-43q-286 0 -439 135q-159 134 -159 390q0 25 2 126.5t2 165.5q0 275 -10 336q-16 139 -74 197q-37 38 -70.5 57.5t-81.5 34.5l2 25q294 -6 367 -6q99 0 381 6l4 -25q-92 -31 -137 -82q-61 -67 -74 -174q-10 -95 -10 -313v-144q0 -149 6 -215q15 -169 113 -256
q102 -88 270 -88q166 0 274 92q107 90 129 263q11 87 11 204q0 142 -17 285q-18 178 -102 297q-35 49 -85 83t-93 48l2 25q21 0 139.5 -3t177.5 -3q128 0 287 6z" />
    <glyph glyph-name="uogonek" unicode="&#x173;" horiz-adv-x="1187" 
d="M387 -23q-96 0 -155 54.5t-78 156.5q-13 66 -13 252q0 188 -18 256q-17 74 -86 74q-13 0 -33 -4l-6 22q152 72 184 89q66 41 124 62.5t91 21.5q10 0 19 -9q12 -30 12 -118q0 -10 -1 -132t-1 -184q0 -187 23 -270q31 -101 147 -101q76 0 154 58v215q0 189 -19 266
q-8 36 -32 59t-60 23q-15 0 -23 -2l-6 22q52 18 201 93q54 31 118 56.5t93 25.5q9 0 15.5 -5.5t6.5 -13.5q0 -16 -3.5 -71t-4.5 -72q-4 -74 -4 -320q0 -173 27 -256q20 -61 74 -61q18 0 34 4l7 -23q-119 -80 -177.5 -156.5t-58.5 -162.5q0 -62 32 -96.5t87 -34.5
q57 0 108 26l9 -20q-123 -88 -244 -88q-81 0 -127 43q-47 41 -47 113q0 96 112 196q79 64 99 78l-25 -12q-39 -21 -86.5 -37.5t-69.5 -16.5q-15 0 -18 13q-11 47 -18 170q-111 -88 -196 -135.5t-167 -47.5z" />
    <glyph glyph-name="Wcircumflex" unicode="&#x174;" horiz-adv-x="2162" 
d="M766 1563q46 38 93.5 81t112 104t81.5 77q39 35 69 35q31 0 70 -35q21 -19 82 -77t108 -101.5t95 -83.5l-13 -21q-197 56 -348 119q-154 -61 -338 -119zM674 -37q-22 60 -50.5 134.5t-65.5 166.5t-56 142q-228 576 -338 784q-100 186 -207 219v27q17 0 128 -2t179 -2
q39 0 163.5 2t180.5 2l4 -25q-51 -19 -87 -55t-40 -84q3 -64 37 -166q39 -114 99 -264q115 -285 172 -465h6l123 299q80 197 96 315q-62 155 -90 213q-82 164 -178 205v27q12 0 126 -2t179 -2q42 0 163.5 2t176.5 2l2 -25q-62 -21 -105 -56.5t-47 -82.5q0 -70 35 -168
q59 -170 98 -270q107 -267 172 -457h6l121 291q115 285 115 485q0 108 -61 184q-40 49 -109 74l2 25q38 0 158 -2t168 -2q168 0 262 4l2 -25q-55 -25 -100 -65q-50 -45 -113 -140q-83 -130 -262 -561l-158 -379q-90 -229 -115 -301l-36 -2q-17 46 -175 443
q-104 265 -188 471q-33 -98 -84 -228l-160 -381q-19 -52 -60 -159.5t-54 -143.5z" />
    <glyph glyph-name="wcircumflex" unicode="&#x175;" horiz-adv-x="1646" 
d="M526 1051q100 113 265 350q19 27 34 39t37 12q21 0 36 -12t34 -39q124 -181 264 -350l-14 -19q-111 56 -326 195q-231 -148 -315 -195zM483 -33q-59 162 -157 383q-115 275 -185 398q-27 53 -84 110q-38 35 -80 51l5 23q147 -6 249 -6q94 0 306 8v-23q-48 -18 -72 -45
q-27 -30 -27 -80q0 -39 29 -110q34 -91 100 -250q59 -149 66 -170q70 144 101.5 245t31.5 185q-30 102 -72 164q-29 46 -71 61l2 23q10 0 100 -4t133 -4q39 0 127 3t127 3l2 -23q-45 -13 -67 -41q-33 -33 -33 -86q0 -40 24 -110q8 -20 101 -252q42 -103 59 -166
q131 271 131 451q0 82 -39 135q-32 49 -90 71l2 23q10 0 105.5 -4t136.5 -4q15 0 231 6l2 -23q-52 -18 -121 -98q-88 -104 -188 -319l-127 -261q-91 -187 -156 -268l-32 4q-51 139 -154 385q-59 148 -88 228q-32 -117 -100 -265l-45 -94q-84 -175 -150 -258z" />
    <glyph glyph-name="Ycircumflex" unicode="&#x176;" horiz-adv-x="1357" 
d="M377 1563q46 38 93.5 81t112 104t81.5 77q39 35 69 35q31 0 70 -35q24 -22 82 -77.5t106.5 -100t95.5 -84.5l-12 -21q-197 56 -348 119q-154 -61 -338 -119zM297 23q75 23 129 67q66 53 86 170q16 88 18 289q-52 195 -137 369q-92 192 -203 317q-60 69 -122 109t-95 40
q-26 0 -34 -2l-7 23q106 49 240 49q107 0 188.5 -33t151.5 -121q96 -122 174 -323q63 -156 90 -320h6l13 70q59 376 170 553q113 176 286 176q113 0 197 -65l-8 -23q-223 -67 -385 -305q-158 -233 -228 -502q3 -201 14.5 -284t43.5 -142q45 -79 172 -112l-2 -25
q-264 6 -377 6q-157 0 -379 -6z" />
    <glyph glyph-name="ycircumflex" unicode="&#x177;" horiz-adv-x="1153" 
d="M285 1051q95 108 264 350q19 27 34.5 39t37.5 12q20 0 35 -12t34 -39q124 -181 264 -350l-14 -19q-111 56 -326 195q-231 -148 -315 -195zM207 -467q-71 0 -119 18q-106 43 -106 144q0 63 41 104t102 41q52 0 82.5 -27.5t50.5 -82.5q23 -72 49 -95q39 11 92 68
q67 73 127 197l35 69q-97 186 -192 383q-141 285 -209 396q-36 61 -92 110q-42 37 -88 53l4 21q106 -4 282 -4q153 0 324 6l2 -23q-53 -18 -80 -45q-35 -30 -35 -86q0 -38 27 -104q14 -36 114 -252q77 -154 84 -170h5q116 246 116 457q0 86 -47 139q-32 43 -94 61l2 23
q12 0 114.5 -4t147.5 -4q38 0 79 1t89.5 2.5t77.5 2.5l2 -23q-51 -22 -125 -102q-33 -35 -69 -90.5t-59 -99.5t-64 -125q-30 -60 -110 -223.5t-118 -241.5l-74 -152q-93 -190 -178 -264q-84 -78 -190 -78z" />
    <glyph glyph-name="Ydieresis" unicode="&#x178;" horiz-adv-x="1357" 
d="M506 1573q-53 0 -83 33.5t-30 81.5q0 60 40.5 97.5t101.5 37.5q49 0 78.5 -33t29.5 -82q0 -59 -40 -97t-97 -38zM928 1573q-53 0 -83 33.5t-30 81.5q0 61 40 98t101 37q50 0 79.5 -33t29.5 -82q0 -59 -40 -97t-97 -38zM297 23q75 23 129 67q66 53 86 170q16 88 18 289
q-52 195 -137 369q-92 192 -203 317q-60 69 -122 109t-95 40q-26 0 -34 -2l-7 23q106 49 240 49q107 0 188.5 -33t151.5 -121q96 -122 174 -323q63 -156 90 -320h6l13 70q59 376 170 553q113 176 286 176q113 0 197 -65l-8 -23q-223 -67 -385 -305q-158 -233 -228 -502
q3 -201 14.5 -284t43.5 -142q45 -79 172 -112l-2 -25q-264 6 -377 6q-157 0 -379 -6z" />
    <glyph glyph-name="Zacute" unicode="&#x179;" horiz-adv-x="1316" 
d="M537 1565q155 102 329 272q35 35 70 35q46 0 76 -39.5t30 -81.5q0 -60 -63 -92q-80 -45 -346 -98l-88 -19zM35 20q189 273 438 695q235 391 367 657q-32 4 -99 4q-141 0 -209 -12q-100 -33 -202 -115q-99 -79 -193 -217l-26 4q6 46 16.5 131.5t19.5 151.5t17 111
q59 6 192 6q114 0 317 -3t265 -3q51 0 157 1t150 1l2 -25q-177 -259 -485 -778q-173 -291 -322 -563q113 -11 183 -11q145 0 217 13q100 34 202 114q54 43 111.5 108t95.5 128l27 -4q-10 -53 -32 -197t-38 -215q-58 -4 -213 -4q-43 0 -197 1t-245 1h-145q-287 0 -369 -2z
" />
    <glyph glyph-name="zacute" unicode="&#x17a;" horiz-adv-x="964" 
d="M328 1051q126 148 250 350q34 55 79 55q44 0 78.5 -39.5t34.5 -85.5q0 -38 -39 -74q-71 -68 -297 -180l-92 -45zM31 18q111 154 323 504q124 212 201 369q-88 0 -135 -6q-41 -2 -78 -17q-64 -41 -130.5 -111.5t-109.5 -146.5l-22 4q2 18 4 48.5t4.5 70.5t3.5 60
q8 119 14 137q58 4 93 4q52 0 171.5 -2t172.5 -2q270 0 360 2l4 -23q-147 -209 -295 -463q-139 -230 -235 -407h80q93 0 155 16q78 38 152 107q77 77 137 170l23 -4q-5 -32 -13.5 -103t-16.5 -129.5t-17 -97.5q-21 0 -159 1t-231 1h-194q-205 0 -260 -2z" />
    <glyph glyph-name="Zdotaccent" unicode="&#x17b;" horiz-adv-x="1316" 
d="M678 1556q-64 0 -101.5 40t-37.5 102q0 71 50 115.5t122 44.5q60 0 97.5 -40t37.5 -100q0 -70 -49.5 -116t-118.5 -46zM35 20q189 273 438 695q235 391 367 657q-32 4 -99 4q-141 0 -209 -12q-100 -33 -202 -115q-99 -79 -193 -217l-26 4q6 46 16.5 131.5t19.5 151.5
t17 111q59 6 192 6q114 0 317 -3t265 -3q51 0 157 1t150 1l2 -25q-177 -259 -485 -778q-173 -291 -322 -563q113 -11 183 -11q145 0 217 13q100 34 202 114q54 43 111.5 108t95.5 128l27 -4q-10 -53 -32 -197t-38 -215q-58 -4 -213 -4q-43 0 -197 1t-245 1h-145
q-287 0 -369 -2z" />
    <glyph glyph-name="zdotaccent" unicode="&#x17c;" horiz-adv-x="964" 
d="M473 1122q-64 0 -101.5 40t-37.5 100q0 72 50 116.5t122 44.5q61 0 98 -40t37 -101q0 -70 -49.5 -115t-118.5 -45zM31 18q111 154 323 504q124 212 201 369q-88 0 -135 -6q-41 -2 -78 -17q-64 -41 -130.5 -111.5t-109.5 -146.5l-22 4q2 18 4 48.5t4.5 70.5t3.5 60
q8 119 14 137q58 4 93 4q52 0 171.5 -2t172.5 -2q270 0 360 2l4 -23q-147 -209 -295 -463q-139 -230 -235 -407h80q93 0 155 16q78 38 152 107q77 77 137 170l23 -4q-5 -32 -13.5 -103t-16.5 -129.5t-17 -97.5q-21 0 -159 1t-231 1h-194q-205 0 -260 -2z" />
    <glyph glyph-name="Zcaron" unicode="&#x17d;" horiz-adv-x="1316" 
d="M711 1540q-37 0 -72 35q-210 200 -283 262l13 21q156 -45 346 -119q211 79 340 119l12 -21q-86 -71 -287 -262q-39 -35 -69 -35zM35 20q189 273 438 695q235 391 367 657q-32 4 -99 4q-141 0 -209 -12q-100 -33 -202 -115q-99 -79 -193 -217l-26 4q6 46 16.5 131.5
t19.5 151.5t17 111q59 6 192 6q114 0 317 -3t265 -3q51 0 157 1t150 1l2 -25q-177 -259 -485 -778q-173 -291 -322 -563q113 -11 183 -11q145 0 217 13q100 34 202 114q54 43 111.5 108t95.5 128l27 -4q-10 -53 -32 -197t-38 -215q-58 -4 -213 -4q-43 0 -197 1t-245 1h-145
q-287 0 -369 -2z" />
    <glyph glyph-name="zcaron" unicode="&#x17e;" horiz-adv-x="964" 
d="M494 1030q-21 0 -36 12t-34 39q-149 218 -264 351l14 18q111 -56 326 -195q220 141 315 195l14 -18q-92 -104 -264 -351q-31 -51 -71 -51zM31 18q111 154 323 504q124 212 201 369q-88 0 -135 -6q-41 -2 -78 -17q-64 -41 -130.5 -111.5t-109.5 -146.5l-22 4q2 18 4 48.5
t4.5 70.5t3.5 60q8 119 14 137q58 4 93 4q52 0 171.5 -2t172.5 -2q270 0 360 2l4 -23q-147 -209 -295 -463q-139 -230 -235 -407h80q93 0 155 16q78 38 152 107q77 77 137 170l23 -4q-5 -32 -13.5 -103t-16.5 -129.5t-17 -97.5q-21 0 -159 1t-231 1h-194q-205 0 -260 -2z
" />
    <glyph glyph-name="longs" unicode="&#x17f;" horiz-adv-x="690" 
d="M27 20q38 11 73 41q53 45 64 177q4 70 4 276q0 177 -6 279q-72 0 -168 -7l-4 25q86 47 172 129q-4 106 -4 147q0 130 24 211q43 134 158 224q129 98 297 98q67 0 123 -12q60 -15 107.5 -52.5t47.5 -95.5q0 -56 -42 -98.5t-99 -42.5q-47 0 -75.5 31.5t-59.5 97.5
q-56 114 -80 131q-33 -38 -58 -133.5t-36 -210.5q-14 -148 -14 -307l-2 -396q0 -242 16 -327q17 -95 78 -142q43 -32 108 -40l-2 -25q-61 0 -185 3t-169 3q-77 0 -266 -6z" />
    <glyph glyph-name="florin" unicode="&#x192;" 
d="M207 -342q-114 0 -197.5 49t-83.5 131q0 57 36.5 93t88.5 36q111 0 131 -145q13 -106 33 -119q90 90 152 305q52 198 82 500l18 172h-188v49q76 -2 192 -2q13 148 29.5 245t52.5 179q61 134 166 213q128 92 280 92q107 0 184 -49.5t77 -130.5q0 -55 -35.5 -93t-96.5 -38
q-106 0 -127 151q-14 98 -34 121q-104 -65 -162 -319q-23 -100 -51 -369q149 0 223 2l-4 -53q-88 2 -223 2l-21 -176q-27 -239 -69 -398t-119 -266q-128 -182 -334 -182z" />
    <glyph glyph-name="Aringacute" unicode="&#x1fa;" horiz-adv-x="1531" 
d="M-59 23q42 18 98 65q52 44 111 129q96 139 296 567l177 379q39 90 90 226q-68 7 -111 45q-72 56 -72 147q0 106 93 170q122 88 251 197q35 28 72 28q33 0 53.5 -27t20.5 -57q0 -45 -53 -69q-29 -13 -142 -37q52 -9 88 -41q74 -58 74 -154q0 -104 -100 -170
q-25 -19 -70 -30q65 -151 162 -363q272 -607 383 -780q117 -189 231 -223l-2 -27q-8 0 -139 2t-209 2q-39 0 -173 -2t-198 -2l-2 25q59 19 103.5 56.5t54.5 86.5q-3 63 -39 162q-19 48 -78 182q-140 4 -247 4q-116 0 -256 -4q-50 -139 -50 -242q0 -102 68 -182
q44 -44 100 -63l-2 -25q-43 0 -160 2t-171 2q-59 0 -155 -2l-95 -2zM776 1423q43 20 68.5 63t25.5 95q0 67 -35 113t-92 61q-47 -22 -73.5 -64t-26.5 -96q0 -68 38 -113.5t95 -58.5zM664 573q136 0 219 5l-226 497h-6l-157 -342q-47 -98 -66 -158q59 -2 236 -2z" />
    <glyph glyph-name="aringacute" unicode="&#x1fb;" horiz-adv-x="1042" 
d="M528 1032q-91 0 -153 51q-72 59 -72 148q0 97 84 168q190 156 258 213q41 30 72 30q33 0 53.5 -26.5t20.5 -54.5q0 -47 -52 -70q-47 -23 -151 -53q43 -11 86 -43q71 -58 71 -154q0 -105 -98 -170q-53 -39 -119 -39zM543 1071q41 19 65.5 63t24.5 97q0 69 -34 115.5
t-89 60.5q-45 -22 -70.5 -65t-25.5 -97q0 -68 37 -115.5t92 -58.5zM330 -23q-113 0 -184.5 68t-71.5 172q0 74 24 98q34 17 107.5 37.5t205 53.5t197.5 51v47q0 78 -14 143q-31 146 -178 146q-26 0 -66 -9q1 -6 11 -63t10 -84q0 -52 -15 -82q-27 -49 -92 -49
q-58 0 -100.5 31t-42.5 77q0 42 46.5 86t145.5 99q35 28 99 71q65 42 119 62t116 20q134 0 197 -98q37 -57 43 -149q4 -33 4 -97q0 -39 -2 -112.5t-2 -102.5q0 -125 28 -180q11 -25 33.5 -38t44.5 -13q25 0 35 2l6 -19q-72 -46 -149 -102q-86 -63 -140 -63q-32 0 -69 41.5
t-55 103.5q-74 -68 -142.5 -108t-148.5 -40zM508 127q63 0 104 35q-8 33 -8 90q0 18 2 77t2 87l-47 -10q-108 -25 -152 -56.5t-44 -83.5q0 -64 42 -101.5t101 -37.5z" />
    </font>
</defs>
</svg>
